<svg width="335" height="221" viewBox="0 0 335 221" fill="none" xmlns="http://www.w3.org/2000/svg">
<g clip-path="url(#clip0_121_427)">
<path d="M41.3706 53.5717L42.5904 65.791H57.701L49.1593 0H34.146L0.0791016 65.791H15.1869L21.1 53.5717H41.3706ZM26.7324 41.7309L37.9945 18.6086L40.2452 41.7309H26.7324ZM41.3706 130.839L42.5904 143.059H57.701L49.1593 77.2676H34.146L0.0791016 143.059H15.1869L21.1 130.839H41.3706ZM26.7324 118.996L37.9945 95.8761L40.2452 118.996H26.7324ZM41.3706 208.107L42.5904 220.326H57.701L49.1593 154.535H34.146L0.0791016 220.326H15.1869L21.1 208.107H41.3706ZM26.7324 196.263L37.9945 173.144L40.2452 196.263H26.7324ZM64.8712 50.5663C63.0701 59.8692 67.6287 66.4678 76.6974 66.4678C84.9156 66.4678 91.4472 61.3374 94.1504 53.1014L85.7603 52.0317C84.2398 56.4853 81.7629 58.7966 78.3296 58.7966C74.106 58.7966 72.5282 55.6393 73.7108 49.7748L75.1196 42.3303C76.3022 36.4658 79.0054 33.3084 83.2262 33.3084C86.6623 33.3084 88.2401 35.6198 88.0712 40.0762L96.9108 39.0037C97.3603 30.7734 92.8561 25.6402 84.635 25.6402C75.5692 25.6402 68.4191 32.2388 66.6179 41.5416L64.8712 50.5663ZM100.29 33.9852H110.424L104.287 65.791H112.958L119.094 33.9852H129.231L130.751 26.317H101.807L100.29 33.9852ZM144.264 26.317H135.594L127.934 65.791H136.607L144.264 26.317ZM166.113 25.6402C157.047 25.6402 149.894 32.2388 148.093 41.4871L146.349 50.6208C144.545 59.8692 149.106 66.4678 158.172 66.4678C167.238 66.4678 174.391 59.8692 176.192 50.6208L177.936 41.4871C179.74 32.2388 175.178 25.6402 166.113 25.6402ZM159.693 58.7966C155.753 58.7966 154.006 55.8114 155.188 49.8322L156.652 42.2758C157.78 36.2995 160.649 33.3084 164.592 33.3084C168.532 33.3084 170.279 36.2995 169.154 42.2758L167.688 49.8322C166.505 55.8114 163.636 58.7966 159.693 58.7966ZM202.204 65.791H209.807L217.464 26.317H208.793L204.231 49.8322L194.942 26.317H187.34L179.683 65.791H188.353L192.915 42.2758L202.204 65.791ZM63.0701 143.059H76.3022C85.368 143.059 92.292 137.249 94.096 127.831L95.8398 118.809C97.6982 109.392 93.025 103.585 83.9592 103.585H70.727L63.0701 143.059ZM85.5914 127.042C84.4116 132.964 81.7085 135.387 77.6538 135.387H73.204L77.8772 111.253H82.327C86.3817 111.253 88.1829 113.679 87.0002 119.598L85.5914 127.042ZM106.034 143.059H115.042L135.087 103.585H125.967L112.958 130.314L110.424 103.585H101.303L106.034 143.059ZM131.596 143.059H157.216L158.679 135.387H141.73L143.42 126.65H158.061L159.581 118.978H144.94L146.403 111.253H163.352L164.873 103.585H139.253L131.596 143.059ZM185.876 143.059H193.479L201.136 103.585H192.465L187.904 127.1L178.612 103.585H171.012L163.352 143.059H172.026L176.587 119.543L185.876 143.059ZM204.065 111.253H214.199L208.063 143.059H216.733L222.87 111.253H233.007L234.527 103.585H205.583L204.065 111.253ZM247.25 103.585H238.579L233.737 128.396C231.936 137.702 236.271 143.735 245.337 143.735C254.403 143.735 261.103 137.702 262.904 128.396L267.746 103.585H259.076L255.021 124.45C253.446 132.399 251.473 136.122 246.803 136.122C242.127 136.122 241.62 132.399 243.198 124.45L247.25 103.585ZM283.063 128.961L287.456 143.059H297.14L291.51 127.607C295.731 125.804 299.336 122.193 300.519 116.271C302.263 107.361 296.295 103.585 289.764 103.585H274.842L267.185 143.059H275.856L278.559 128.961H283.063ZM291.848 116.271C291.115 119.882 288.524 121.29 285.371 121.29H280.079L281.992 111.253H287.287C290.44 111.253 292.521 112.664 291.848 116.271ZM301.644 143.059H327.264L328.73 135.387H311.781L313.471 126.65H328.109L329.629 118.978H314.991L316.454 111.253H333.403L334.921 103.585H309.301L301.644 143.059ZM75.1196 196.865C76.3022 191.001 79.0054 187.844 83.2262 187.844C86.6623 187.844 88.2401 190.155 88.0712 194.611L96.9108 193.539C97.3603 185.306 92.8561 180.175 84.635 180.175C75.5692 180.175 68.4191 186.771 66.6179 196.077L64.8712 205.156C63.0701 214.462 67.6287 221 76.7518 221C86.2672 221 92.9677 214.347 94.8261 204.872L95.9515 198.896H80.8638L79.5666 205.664H85.9293L85.8749 205.887C85.0302 210.344 82.2153 213.389 78.1607 213.389C74.1632 213.389 72.5282 210.232 73.7108 204.367L75.1196 196.865ZM114.647 180.852H105.977L98.3196 220.326H106.99L114.647 180.852ZM114.931 220.326H140.55L142.014 212.655H125.065L131.258 180.852H122.588L114.931 220.326ZM144.997 220.326H170.617L172.083 212.655H155.134L156.823 203.914H171.462L172.982 196.246H158.344L159.807 188.52H176.756L178.274 180.852H152.657L144.997 220.326Z" fill="black"/>
</g>
<defs>
<clipPath id="clip0_121_427">
<rect width="335" height="221" fill="white"/>
</clipPath>
</defs>
</svg>
