<?xml version="1.0" encoding="UTF-8"?>
<!DOCTYPE svg PUBLIC "-//W3C//DTD SVG 1.1//EN" "http://www.w3.org/Graphics/SVG/1.1/DTD/svg11.dtd">
<!-- Creator: CorelDRAW 2021 (64-Bit) -->
<svg xmlns="http://www.w3.org/2000/svg" xml:space="preserve" width="116px" height="106px" version="1.1" style="shape-rendering:geometricPrecision; text-rendering:geometricPrecision; image-rendering:optimizeQuality; fill-rule:evenodd; clip-rule:evenodd"
viewBox="0 0 15.861 14.462"
 xmlns:xlink="http://www.w3.org/1999/xlink"
 xmlns:xodm="http://www.corel.com/coreldraw/odm/2003">
 <defs>
  <style type="text/css">
   <![CDATA[
    .fil0 {fill:#A36700;fill-rule:nonzero}
   ]]>
  </style>
 </defs>
 <g id="Layer_x0020_1">
  <metadata id="CorelCorpID_0Corel-Layer"/>
  <path class="fil0" d="M5.927 4.651c-0.115,-0.041 -0.243,-0.091 -0.38,-0.151 -0.512,-0.225 -1.235,-0.642 -1.769,-1.346 -0.363,-0.479 -0.598,-1.035 -0.697,-1.652 -0.012,-0.069 0.033,-0.134 0.101,-0.148l0.42 -0.089 -1.141 -0.983 -0.651 1.354 0.459 -0.065c0.006,-0.001 0.012,-0.002 0.018,-0.002 0.057,0 0.108,0.037 0.124,0.093 0.131,0.44 0.29,0.811 0.484,1.134 0.219,0.364 0.482,0.666 0.803,0.923 0.548,0.439 1.281,0.746 2.229,0.932zm4.861 4.891c0,1.718 -1.398,3.116 -3.117,3.116 -1.718,0 -3.116,-1.398 -3.116,-3.116 0,-1.718 1.398,-3.117 3.116,-3.117 1.719,0 3.117,1.399 3.117,3.117zm-3.106 -1.149l0 -0.217 0.082 0 0 0.193c0,0.078 0.059,0.144 0.138,0.152 0.11,0.01 0.212,0.038 0.301,0.081l-0.039 0.104c-0.031,-0.015 -0.066,-0.03 -0.107,-0.043 -0.093,-0.032 -0.194,-0.048 -0.3,-0.048 -0.142,0.001 -0.254,0.04 -0.334,0.118 -0.067,0.066 -0.105,0.155 -0.105,0.252 0,0.058 0.01,0.106 0.031,0.15 0.021,0.045 0.051,0.084 0.095,0.121 0.068,0.061 0.176,0.12 0.351,0.192 0,0 0,0 0,0 0.138,0.056 0.237,0.112 0.314,0.175 0.076,0.063 0.129,0.135 0.158,0.216 0.02,0.055 0.03,0.119 0.03,0.188 0,0.124 -0.044,0.243 -0.125,0.335 0,0 0,0 0,0 -0.076,0.088 -0.184,0.151 -0.313,0.182 -0.068,0.017 -0.116,0.078 -0.116,0.148l0 0.229 -0.086 0 0 -0.207c0,-0.079 -0.06,-0.145 -0.139,-0.152 -0.071,-0.006 -0.141,-0.019 -0.208,-0.039 -0.067,-0.019 -0.126,-0.044 -0.175,-0.071l0.038 -0.107c0.14,0.075 0.309,0.118 0.467,0.118 0.141,0.003 0.259,-0.038 0.349,-0.113 0.089,-0.076 0.137,-0.179 0.139,-0.299 0,-0.058 -0.011,-0.11 -0.031,-0.158 -0.02,-0.048 -0.05,-0.09 -0.09,-0.131 -0.069,-0.07 -0.173,-0.133 -0.319,-0.191 -0.143,-0.056 -0.247,-0.109 -0.326,-0.165 -0.085,-0.061 -0.143,-0.128 -0.175,-0.202 -0.023,-0.053 -0.035,-0.112 -0.035,-0.177 0,-0.124 0.045,-0.239 0.126,-0.325 0.071,-0.077 0.171,-0.132 0.287,-0.16 0.069,-0.017 0.117,-0.078 0.117,-0.149zm-0.305 -0.37l0 0.258c-0.126,0.048 -0.235,0.12 -0.322,0.212 -0.134,0.142 -0.209,0.332 -0.208,0.534 0,0.107 0.02,0.208 0.06,0.299 0.055,0.125 0.148,0.236 0.278,0.328 0.1,0.071 0.224,0.135 0.39,0.201 0.136,0.054 0.193,0.099 0.215,0.122 0.017,0.016 0.022,0.027 0.026,0.035 0.003,0.008 0.006,0.019 0.006,0.038 0,0.03 -0.008,0.048 -0.029,0.066 -0.032,0.027 -0.087,0.042 -0.151,0.042 -0.152,0.007 -0.293,-0.057 -0.374,-0.111l-0.09 -0.06c-0.039,-0.026 -0.088,-0.032 -0.132,-0.018 -0.045,0.015 -0.08,0.05 -0.096,0.094l-0.142 0.397c-0.023,0.064 -0.001,0.136 0.055,0.175l0.052 0.038c0.084,0.06 0.188,0.108 0.309,0.143 0.042,0.012 0.085,0.023 0.128,0.031l0 0.226c0,0.084 0.068,0.153 0.153,0.153l0.39 0c0.084,0 0.153,-0.069 0.153,-0.153l0 -0.268c0.14,-0.053 0.261,-0.135 0.354,-0.242 0.129,-0.148 0.201,-0.338 0.2,-0.536 0,-0.105 -0.016,-0.203 -0.048,-0.291 -0.047,-0.134 -0.132,-0.251 -0.251,-0.348 -0.099,-0.083 -0.221,-0.152 -0.384,-0.219 -0.005,-0.003 -0.01,-0.005 -0.016,-0.007 -0.164,-0.068 -0.23,-0.11 -0.258,-0.135 -0.01,-0.009 -0.017,-0.016 -0.019,-0.022 -0.001,-0.002 -0.003,-0.008 -0.003,-0.02 0,-0.01 0.003,-0.023 0.013,-0.033 0.021,-0.02 0.064,-0.031 0.122,-0.032 0.073,0 0.139,0.011 0.202,0.032 0.052,0.017 0.091,0.038 0.122,0.056l0.086 0.049c0.039,0.023 0.085,0.027 0.127,0.012 0.042,-0.015 0.076,-0.048 0.092,-0.09l0.148 -0.391c0.026,-0.07 -0.001,-0.148 -0.065,-0.186l-0.062 -0.036c-0.103,-0.06 -0.216,-0.103 -0.339,-0.129l0 -0.214c0,-0.084 -0.068,-0.153 -0.153,-0.153l-0.386 0c-0.085,0 -0.153,0.069 -0.153,0.153zm2.397 1.519c0,1.159 -0.943,2.103 -2.103,2.103 -1.159,0 -2.103,-0.944 -2.103,-2.103 0,-1.16 0.944,-2.103 2.103,-2.103 1.16,0 2.103,0.943 2.103,2.103zm-4.511 0c0,1.328 1.08,2.408 2.408,2.408 1.328,0 2.409,-1.08 2.409,-2.408 0,-1.328 -1.081,-2.409 -2.409,-2.409 -1.328,0 -2.408,1.081 -2.408,2.409zm6.425 -3.352c0.29,0 2.332,-0.018 3.234,-0.517l0 0.96c-0.001,0.009 -0.001,0.018 -0.001,0.026 0,0.003 0,0.007 0,0.012 -0.021,0.4 -1.463,0.725 -3.233,0.725 -0.425,0 -0.83,-0.019 -1.202,-0.053 -0.5,-0.639 -1.214,-1.104 -2.032,-1.288l0 -0.382c0.901,0.499 2.943,0.517 3.234,0.517zm0 -3.367c0.29,0 2.332,-0.019 3.234,-0.517l0 0.96c-0.001,0.008 -0.001,0.018 -0.001,0.026 0,0.003 0,0.007 0,0.011 -0.021,0.401 -1.463,0.726 -3.233,0.726 -1.77,0 -3.213,-0.325 -3.233,-0.726 0,-0.008 0.001,-0.016 0,-0.023 0,-0.004 0,-0.009 0,-0.015l-0.001 -0.959c0.901,0.498 2.943,0.517 3.234,0.517zm0 -1.634c1.836,0 2.972,0.341 3.165,0.553 -0.193,0.213 -1.329,0.554 -3.165,0.554 -1.836,0 -2.973,-0.341 -3.165,-0.554 0.192,-0.212 1.329,-0.553 3.165,-0.553zm3.234 3.583c-0.001,0.009 -0.001,0.018 -0.001,0.026 0,0.004 0,0.008 0,0.012 -0.021,0.401 -1.463,0.725 -3.233,0.725 -1.77,0 -3.213,-0.325 -3.233,-0.725 0,-0.008 0.001,-0.016 0,-0.023 0,-0.005 0,-0.01 0,-0.015l-0.001 -0.837c0.769,0.486 2.411,0.551 3.234,0.551 0.823,0 2.464,-0.065 3.234,-0.551l0 0.837zm0 3.367c-0.001,0.009 -0.001,0.018 -0.001,0.026 0,0.004 0,0.008 0,0.012 -0.021,0.401 -1.463,0.725 -3.233,0.725 -0.171,0 -0.338,-0.004 -0.503,-0.009 -0.069,-0.379 -0.198,-0.738 -0.378,-1.065 0.335,0.02 0.643,0.026 0.881,0.026 0.823,0 2.464,-0.066 3.234,-0.552l0 0.837zm0 1.373c-0.001,0.009 -0.001,0.018 -0.001,0.026 0,0.004 0,0.008 0,0.012 -0.021,0.401 -1.463,0.725 -3.233,0.725 -0.176,0 -0.347,-0.004 -0.516,-0.01 0.048,-0.234 0.074,-0.476 0.074,-0.723 0,-0.063 -0.002,-0.126 -0.005,-0.188 0.164,0.004 0.317,0.006 0.447,0.006 0.823,0 2.464,-0.065 3.234,-0.551l0 0.703zm-7.251 -3.544c-1.97,0 -3.574,1.603 -3.574,3.574 0,1.971 1.604,3.574 3.574,3.574 1.558,0 2.886,-1.003 3.374,-2.396 0.242,0.01 0.462,0.013 0.643,0.013 1.098,0 3.651,-0.116 3.651,-1.192 0,-0.003 0,-0.006 -0.002,-0.009 0.002,-0.003 0.002,-0.006 0.002,-0.009l0 -1.436c0.005,-0.032 0.01,-0.064 0.01,-0.098 0,-0.032 -0.005,-0.063 -0.01,-0.093l0 -1.181c0.005,-0.032 0.01,-0.065 0.01,-0.099 0,-0.032 -0.005,-0.063 -0.01,-0.093l0 -1.315c0.005,-0.032 0.01,-0.065 0.01,-0.099 0,-0.056 -0.012,-0.109 -0.03,-0.16 0.011,-0.047 0.02,-0.096 0.02,-0.148 0,-0.003 0,-0.006 -0.002,-0.009 0.002,-0.004 0.002,-0.006 0.002,-0.009l0 -1.436c0.005,-0.032 0.01,-0.064 0.01,-0.098 0,-0.032 -0.005,-0.063 -0.01,-0.093l0 -1.315c0.005,-0.032 0.01,-0.065 0.01,-0.099 0,-0.058 -0.012,-0.113 -0.032,-0.166 -0.032,-0.11 -0.1,-0.203 -0.193,-0.26 -0.745,-0.633 -3.12,-0.655 -3.436,-0.655 -0.315,0 -2.691,0.022 -3.437,0.655 -0.091,0.057 -0.161,0.15 -0.192,0.26 -0.02,0.052 -0.031,0.107 -0.031,0.166 0,0.034 0.003,0.067 0.01,0.099l0 1.315c-0.006,0.03 -0.01,0.061 -0.01,0.093 0,0.034 0.003,0.066 0.01,0.098l0 1.436c0,0.003 0,0.006 0,0.01 0,0.003 0,0.006 0,0.008 0,0.052 0.008,0.101 0.019,0.148 -0.018,0.051 -0.029,0.104 -0.029,0.16 0,0.034 0.003,0.067 0.01,0.099l0 0.778c-0.121,-0.012 -0.243,-0.018 -0.367,-0.018zm8.19 8.091c0,-0.222 -0.184,-0.403 -0.411,-0.403l-14.626 0 0 -13.253c0,-0.222 -0.185,-0.403 -0.412,-0.403 -0.228,0 -0.412,0.181 -0.412,0.403l0 0 0 13.656c0,0.107 0.044,0.21 0.121,0.286 0.076,0.075 0.183,0.117 0.291,0.117l15.038 0c0.227,0 0.411,-0.18 0.411,-0.403zm-9.093 -9.236c-0.017,0.111 -0.111,0.189 -0.22,0.189 -0.009,0 -0.019,0 -0.029,-0.002 -1.307,-0.171 -2.283,-0.527 -2.984,-1.088 -0.345,-0.277 -0.627,-0.601 -0.863,-0.992 -0.189,-0.316 -0.346,-0.672 -0.476,-1.087l-0.418 0.06c-0.082,0.012 -0.163,-0.022 -0.211,-0.089 -0.049,-0.066 -0.057,-0.154 -0.021,-0.228l0.702 -1.46c0,0 0,0 0,0 0.03,-0.062 0.089,-0.108 0.157,-0.121 0.066,-0.014 0.137,0.004 0.19,0.049l1.233 1.063c0.064,0.055 0.091,0.143 0.07,0.224 -0.021,0.083 -0.086,0.145 -0.169,0.163l-0.371 0.078c0.103,0.526 0.314,1.002 0.627,1.415 0.501,0.659 1.183,1.052 1.667,1.266 0.276,0.121 0.518,0.199 0.672,0.242 0.087,0.025 0.155,0.041 0.197,0.051 0.022,0.005 0.04,0.008 0.051,0.011l0.011 0.002c0.125,0.022 0.204,0.134 0.185,0.254z"/>
 </g>
</svg>
