<svg width="22" height="34" viewBox="0 0 22 34" fill="none" xmlns="http://www.w3.org/2000/svg">
<g clip-path="url(#clip0_122_851)">
<path d="M18.7444 28.0382H3.24557V2.87626H18.7444V28.0382ZM10.995 31.9536C10.296 31.9536 9.72674 31.3873 9.72674 30.7038C9.72674 30.0203 10.296 29.454 10.995 29.454C11.704 29.454 12.2633 30.0203 12.2633 30.7038C12.2633 31.3873 11.704 31.9536 10.995 31.9536ZM2.06718 0.0837402C0.928734 0.0837402 0 0.991797 0 2.1049V31.8853C0 33.0081 0.928734 33.9162 2.06718 33.9162H19.9228C21.0713 33.9162 22 33.0081 22 31.8853V2.1049C22 0.991797 21.0713 0.0837402 19.9228 0.0837402H2.06718V0.0837402Z" fill="#FEFEFE"/>
</g>
<defs>
<clipPath id="clip0_122_851">
<rect width="22" height="34" fill="white"/>
</clipPath>
</defs>
</svg>
