<?xml version="1.0" encoding="UTF-8"?>
<!DOCTYPE svg PUBLIC "-//W3C//DTD SVG 1.1//EN" "http://www.w3.org/Graphics/SVG/1.1/DTD/svg11.dtd">
<!-- Creator: CorelDRAW 2021 (64-Bit) -->
<svg xmlns="http://www.w3.org/2000/svg" xml:space="preserve" width="102px" height="112px" version="1.1" style="shape-rendering:geometricPrecision; text-rendering:geometricPrecision; image-rendering:optimizeQuality; fill-rule:evenodd; clip-rule:evenodd"
viewBox="0 0 102.001 112.508"
 xmlns:xlink="http://www.w3.org/1999/xlink"
 xmlns:xodm="http://www.corel.com/coreldraw/odm/2003">
 <defs>
  <style type="text/css">
   <![CDATA[
    .fil0 {fill:#A36700;fill-rule:nonzero}
   ]]>
  </style>
 </defs>
 <g id="Layer_x0020_1">
  <metadata id="CorelCorpID_0Corel-Layer"/>
  <path class="fil0" d="M100.87 89.132c-1.232,-3.423 -3.757,-6.603 -6.198,-9.678 -0.67,-0.844 -1.303,-1.641 -1.899,-2.43 -2.8,-3.71 -5.802,-7.627 -8.707,-11.416 -5.452,-7.111 -11.084,-14.459 -15.942,-21.161l0 -23.608c0.42,-0.038 0.94,-0.087 1.466,-0.306 3.389,-1.408 6.832,-4.931 6.884,-9.628 0.033,-2.835 -0.832,-5.162 -2.568,-6.918 -3.57,-3.612 -27.088,-3.987 -27.088,-3.987 -4.825,0 -9.815,0 -13.715,1.173 -4.909,1.475 -7.427,4.643 -7.482,9.416 -0.077,6.593 4.952,9.103 8.35,10.336 0,0 0.498,20.978 0.04,23.23 -0.179,0.879 -1.836,3.055 -2.932,4.494 0,0 -26.111,34.521 -26.399,34.89 -2.147,2.755 -4.367,5.604 -4.647,10.739 -0.189,3.472 0.428,6.623 1.832,9.366 0.885,1.729 3.473,5.941 8.373,7.702 2.235,0.803 5.194,1.161 9.594,1.161 1.865,0 3.79,-0.062 5.652,-0.122 1.8,-0.059 3.501,-0.114 5.091,-0.114l40.945 0c1.626,0 3.345,0.056 5.165,0.115 1.854,0.061 3.772,0.122 5.622,0.122 4.367,0 7.312,-0.358 9.55,-1.162 3.724,-1.339 6.876,-4.453 8.647,-8.546 1.861,-4.299 1.991,-9.153 0.366,-13.668zm-35.891 -28.784c-0.938,-0.091 -1.903,-0.137 -2.867,-0.137 -4.606,0 -8.741,1.026 -12.738,2.017 -3.59,0.891 -6.982,1.733 -10.387,1.733 -3.154,0 -5.961,-0.719 -8.785,-2.257 0.292,-0.345 0.554,-0.606 0.752,-0.72 0.368,-0.108 0.859,-0.163 1.462,-0.163 0.859,0 1.822,0.105 2.841,0.217 1.082,0.118 2.199,0.241 3.276,0.241 3.008,0 5.021,-1.095 5.984,-3.254 0.201,-0.452 0.227,-0.962 0.074,-1.432 -1.011,-3.088 -4.6,-3.088 -5.778,-3.088 -0.773,0 -1.574,0.048 -2.352,0.095 0.382,-0.499 0.785,-1.012 1.197,-1.535 1.239,-1.576 2.522,-3.206 3.518,-4.875 0.184,-0.308 0.281,-0.661 0.281,-1.02l0 -1.908c0.806,0.008 1.698,0.067 2.639,0.13 1.046,0.069 2.128,0.14 3.133,0.14 1.62,0 3.636,-0.164 4.86,-1.448 0.671,-0.705 0.999,-1.628 0.948,-2.668 -0.081,-1.683 -1.1,-3.689 -5.492,-3.689 -1.023,0 -2.139,0.087 -3.218,0.172 -0.981,0.076 -1.994,0.156 -2.87,0.162l0 -10.052c0.826,0.008 1.747,0.075 2.719,0.145 1.072,0.077 2.181,0.157 3.205,0.157 1.575,0 3.538,-0.164 4.738,-1.449 0.469,-0.502 1.008,-1.382 0.917,-2.725 -0.114,-1.661 -1.17,-3.641 -5.552,-3.641 -1.01,0 -2.112,0.084 -3.177,0.165 -0.973,0.074 -1.978,0.15 -2.852,0.156 0.002,-0.018 0.002,-0.035 0.003,-0.054 0.056,-1.408 0.114,-2.862 -0.463,-4.078 -0.237,-0.5 -0.671,-0.879 -1.2,-1.046 -0.745,-0.236 -1.489,-0.426 -2.208,-0.611 -3.621,-0.927 -4.526,-1.421 -4.481,-3.369 0.038,-1.643 1.229,-3.321 9.775,-3.321 1.397,0 16.361,-0.013 17.74,-0.013 1.542,0 2.745,0.049 3.68,0.15 2.112,0.229 4.008,1.32 4.611,2.652 0.329,0.726 0.208,1.48 -0.37,2.304 -0.407,0.579 -1.342,0.837 -2.834,1.208 -1.241,0.309 -2.649,0.66 -4.037,1.423 -0.637,0.351 -1.033,1.019 -1.033,1.746l0 29.362c0,0.418 0.132,0.826 0.377,1.165 3.642,5.048 7.232,9.839 10.76,14.474 -2.427,-0.749 -5.048,-1.29 -6.796,-1.461z"/>
 </g>
</svg>
