<?xml version="1.0" encoding="UTF-8"?>
<!DOCTYPE svg PUBLIC "-//W3C//DTD SVG 1.1//EN" "http://www.w3.org/Graphics/SVG/1.1/DTD/svg11.dtd">
<!-- Creator: CorelDRAW 2021 (64-Bit) -->
<svg xmlns="http://www.w3.org/2000/svg" xml:space="preserve" width="114px" height="109px" version="1.1" style="shape-rendering:geometricPrecision; text-rendering:geometricPrecision; image-rendering:optimizeQuality; fill-rule:evenodd; clip-rule:evenodd"
viewBox="0 0 114 109.806"
 xmlns:xlink="http://www.w3.org/1999/xlink"
 xmlns:xodm="http://www.corel.com/coreldraw/odm/2003">
 <defs>
  <style type="text/css">
   <![CDATA[
    .fil0 {fill:#A36700;fill-rule:nonzero}
   ]]>
  </style>
 </defs>
 <g id="Layer_x0020_1">
  <metadata id="CorelCorpID_0Corel-Layer"/>
  <path class="fil0" d="M18.491 42.112c1.247,-1.246 1.735,-2.954 1.499,-4.575l12.557 -12.558c1.622,0.236 3.33,-0.255 4.578,-1.503 2.097,-2.094 2.097,-5.498 0,-7.598 -2.1,-2.096 -5.501,-2.093 -7.597,0.004 -1.248,1.246 -1.737,2.954 -1.501,4.575l-4.346 4.346 -0.057 -0.396 -10.855 -10.854 -5.63 -1.426 1.425 5.632 10.855 10.854 0.395 0.056 -4.344 4.345c-1.622,-0.237 -3.327,0.252 -4.576,1.5 -2.095,2.094 -2.097,5.498 0,7.598 2.094,2.099 5.502,2.097 7.597,0zm38.511 52.374c0,0 -20.671,-8.621 -20.671,-42.898l20.671 -16.453 20.672 16.453c0,34.277 -20.672,42.898 -20.672,42.898zm0 6.42c0,0 -25.143,-10.486 -25.143,-52.177l25.143 -20.015 25.144 20.015c0,41.691 -25.144,52.177 -25.144,52.177zm2.956 -78.755c-0.188,-1.862 -1.281,-2.431 -2.112,-2.589l-0.608 -1.595c0.276,-0.422 0.682,-1.091 1.103,-1.95 3.396,-4.859 7.061,-5.399 7.061,-5.399 -0.055,7.652 6.191,9.076 6.191,9.076 -4.846,-4.536 -0.364,-13.043 -0.364,-13.043 -5.653,-1.044 -9.129,1.045 -11.247,3.743 0.035,-0.379 0.059,-0.764 0.059,-1.157 0,-5.101 -3.154,-9.237 -3.154,-9.237 0,0 -3.159,4.136 -3.159,9.237 0,0.391 0.024,0.774 0.058,1.151 -2.118,-2.695 -5.593,-4.779 -11.242,-3.737 0,0 4.479,8.507 -0.364,13.043 0,0 6.248,-1.424 6.193,-9.076 0,0 3.659,0.54 7.053,5.391 0.423,0.863 0.832,1.535 1.109,1.958l-0.608 1.595c-0.858,0.163 -1.991,0.77 -2.124,2.777l-28.154 22.409c0,51.984 31.35,65.058 31.35,65.058 0,0 31.35,-13.074 31.35,-65.058l-28.391 -22.597zm-28.94 60.059l-11.148 11.148 -6.553 11.766 19.328 -19.328c-0.555,-1.143 -1.101,-2.335 -1.627,-3.586zm47.35 -47.352l2.903 2.311 4.379 -4.38 -2.606 -2.604 -4.676 4.673zm10.428 1.079l-2.606 -2.607 -4.317 4.317 2.903 2.311 4.02 -4.021zm-74.941 69.727l11.767 -6.553 9.204 -9.202c-0.62,-1.071 -1.229,-2.197 -1.828,-3.389l-19.143 19.144zm21.772 -70.806l-4.67 -4.673 -2.608 2.604 4.376 4.377 2.902 -2.308zm47.355 47.352c-0.528,1.249 -1.074,2.443 -1.631,3.583l19.332 19.331 -6.552 -11.766 -11.149 -11.148zm-57.777 -46.273l4.018 4.018 2.903 -2.308 -4.316 -4.317 -2.605 2.607zm53.97 53.972l9.2 9.202 11.768 6.553 -19.143 -19.144c-0.597,1.192 -1.209,2.316 -1.825,3.389zm22.388 -84.516l-0.316 6.74 6.331 -0.727 -0.723 6.334 6.737 -0.317 0.408 -12.436 -12.437 0.406zm3.872 12.366l1.422 -5.632 -5.626 1.426 -10.853 10.854 -0.057 0.397 -4.348 -4.347c0.235,-1.621 -0.252,-3.329 -1.498,-4.575 -2.1,-2.097 -5.501,-2.1 -7.598,-0.004 -2.1,2.1 -2.1,5.504 0,7.598 1.245,1.248 2.952,1.737 4.572,1.503l12.559 12.558c-0.236,1.621 0.252,3.329 1.501,4.575 2.095,2.097 5.501,2.099 7.598,0 2.095,-2.1 2.095,-5.504 0,-7.598 -1.249,-1.248 -2.955,-1.736 -4.577,-1.5l-4.345 -4.345 0.395 -0.056 10.855 -10.854zm-92.683 -5.626l-0.317 -6.74 -12.435 -0.406 0.407 12.436 6.737 0.317 -0.721 -6.334 6.329 0.727z"/>
 </g>
</svg>
