<svg width="61" height="34" viewBox="0 0 61 34" fill="none" xmlns="http://www.w3.org/2000/svg">
<g clip-path="url(#clip0_122_855)">
<path d="M12.5965 3.8861H42.3734V5.315H12.5965C10.6487 5.315 8.87439 6.11626 7.58922 7.40272C6.30404 8.68919 5.50804 10.4609 5.50804 12.4106V15.0992V15.1259V19.4883V19.5151V25.4755C5.50804 27.4252 6.30404 29.1969 7.58922 30.4834C8.87439 31.7743 10.6487 32.5711 12.5965 32.5711H48.4034C50.3512 32.5711 52.1255 31.7743 53.4107 30.4834C54.6959 29.1969 55.4919 27.4252 55.4919 25.4755V19.5151V19.4883V15.1259V15.0992V12.4106C55.4919 10.4609 54.6959 8.68919 53.4107 7.40272C52.1255 6.11626 50.3512 5.315 48.4034 5.315H45.6374V3.8861H48.4034C48.439 3.8861 48.4746 3.8861 48.5102 3.8861H48.5146H48.5191L48.5947 3.89055C48.9504 3.895 49.2973 3.92616 49.6397 3.97512C49.4351 3.38754 49.0883 2.86672 48.6436 2.44828C47.9676 1.81618 47.0605 1.42891 46.0643 1.42891H14.9356C13.9439 1.42891 13.0367 1.81618 12.3608 2.44828C11.9117 2.86672 11.5648 3.38754 11.3602 3.97512C11.7027 3.92616 12.054 3.895 12.4053 3.89055L12.4809 3.8861H12.4853H12.4942C12.5253 3.8861 12.5609 3.8861 12.5965 3.8861ZM28.2409 13.3543H30.5178V22.5242L27.2804 24.8835L24.0519 22.5242V15.2728L23.2114 13.3543H26.3243V21.3936L27.2804 22.0746L28.2409 21.3936V13.3543ZM35.4361 24.4739L34.6712 21.5538C34.4044 21.7497 34.1465 21.9322 33.9063 22.0969V24.4517H31.6295V13.3543H34.9247C35.5028 13.3543 35.9964 13.47 36.4011 13.697C36.8058 13.9241 37.1171 14.2268 37.3305 14.6096C37.5484 14.9924 37.6551 15.4153 37.6551 15.8782V19.1723C37.3527 19.4572 37.0103 19.7599 36.6279 20.0715L37.7885 24.4739H35.4361ZM33.9063 15.2283V19.6041C34.4622 19.2569 35.0092 18.8206 35.5517 18.2865V17.0935C35.5517 16.6394 35.5428 16.2878 35.525 16.034C35.5072 15.7803 35.4494 15.5978 35.3472 15.4821C35.2449 15.3619 35.0848 15.2862 34.8535 15.2595C34.6668 15.2372 34.4133 15.2283 34.0976 15.2283H33.9063ZM49.5908 24.7544C50.3334 24.7544 51.0094 25.0526 51.4941 25.5423C51.9832 26.0319 52.2856 26.7041 52.2856 27.4475C52.2856 28.1953 51.9832 28.8675 51.4941 29.3572C51.0094 29.8424 50.3334 30.1451 49.5908 30.1451C48.8481 30.1451 48.1722 29.8424 47.683 29.3572C47.1983 28.8675 46.8959 28.1953 46.8959 27.4475C46.8959 26.7041 47.1983 26.0319 47.683 25.5423C48.1722 25.0526 48.8481 24.7544 49.5908 24.7544ZM50.4846 26.5528C50.2578 26.3257 49.9376 26.1833 49.5908 26.1833C49.2395 26.1833 48.9237 26.3257 48.6969 26.5528C48.4657 26.7798 48.3234 27.1003 48.3234 27.4475C48.3234 27.7992 48.4657 28.1152 48.6969 28.3467C48.9237 28.5737 49.2395 28.7162 49.5908 28.7162C49.9376 28.7162 50.2578 28.5737 50.4846 28.3467C50.7159 28.1152 50.8537 27.7992 50.8537 27.4475C50.8537 27.1003 50.7159 26.7798 50.4846 26.5528ZM49.5908 7.74103C50.3334 7.74103 51.0094 8.04373 51.4941 8.52893C51.9832 9.01859 52.2856 9.69521 52.2856 10.4386C52.2856 11.182 51.9832 11.8541 51.4941 12.3438C51.0094 12.8335 50.3334 13.1362 49.5908 13.1362C48.8481 13.1362 48.1722 12.8335 47.683 12.3438C47.1983 11.8541 46.8959 11.182 46.8959 10.4386C46.8959 9.69521 47.1983 9.01859 47.683 8.52893C48.1722 8.04373 48.8481 7.74103 49.5908 7.74103ZM50.4846 9.54386C50.2578 9.31239 49.9376 9.16994 49.5908 9.16994C49.2395 9.16994 48.9237 9.31239 48.6969 9.54386C48.4657 9.77088 48.3234 10.0869 48.3234 10.4386C48.3234 10.7858 48.4657 11.1063 48.6969 11.3333C48.9237 11.5648 49.2395 11.7028 49.5908 11.7028C49.9376 11.7028 50.2578 11.5648 50.4846 11.3333C50.7159 11.1063 50.8537 10.7858 50.8537 10.4386C50.8537 10.0869 50.7159 9.77088 50.4846 9.54386ZM11.4136 24.7544C12.1562 24.7544 12.8277 25.0526 13.3169 25.5423C13.8061 26.0319 14.104 26.7041 14.104 27.4475C14.104 28.1953 13.8061 28.8675 13.3169 29.3572C12.8277 29.8424 12.1562 30.1451 11.4136 30.1451C10.6665 30.1451 9.99502 29.8424 9.50586 29.3572C9.02114 28.8675 8.71874 28.1953 8.71874 27.4475C8.71874 26.7041 9.02114 26.0319 9.50586 25.5423C9.99502 25.0526 10.6665 24.7544 11.4136 24.7544ZM12.3074 26.5528C12.0762 26.3257 11.7605 26.1833 11.4136 26.1833C11.0623 26.1833 10.7466 26.3257 10.5153 26.5528C10.2885 26.7798 10.1462 27.1003 10.1462 27.4475C10.1462 27.7992 10.2885 28.1152 10.5153 28.3467C10.7466 28.5737 11.0623 28.7162 11.4136 28.7162C11.7605 28.7162 12.0762 28.5737 12.3074 28.3467C12.5342 28.1152 12.6765 27.7992 12.6765 27.4475C12.6765 27.1003 12.5342 26.7798 12.3074 26.5528ZM11.4136 7.74103C12.1562 7.74103 12.8277 8.04373 13.3169 8.52893C13.8061 9.01859 14.104 9.69521 14.104 10.4386C14.104 11.182 13.8061 11.8541 13.3169 12.3438C12.8277 12.8335 12.1562 13.1362 11.4136 13.1362C10.6665 13.1362 9.99502 12.8335 9.50586 12.3438C9.02114 11.8541 8.71874 11.182 8.71874 10.4386C8.71874 9.69521 9.02114 9.01859 9.50586 8.52893C9.99502 8.04373 10.6665 7.74103 11.4136 7.74103ZM12.3074 9.54386C12.0762 9.31239 11.7605 9.16994 11.4136 9.16994C11.0623 9.16994 10.7466 9.31239 10.5153 9.54386C10.2885 9.77088 10.1462 10.0869 10.1462 10.4386C10.1462 10.7858 10.2885 11.1063 10.5153 11.3333C10.7466 11.5648 11.0623 11.7028 11.4136 11.7028C11.7605 11.7028 12.0762 11.5648 12.3074 11.3333C12.5342 11.1063 12.6765 10.7858 12.6765 10.4386C12.6765 10.0869 12.5342 9.77088 12.3074 9.54386ZM51.205 4.3624C52.4279 4.78974 53.5219 5.49306 54.4202 6.3878C55.9633 7.93689 56.9238 10.0647 56.9238 12.4106V13.105C57.1462 13.0249 57.3863 12.9804 57.6353 12.9804H58.6315C59.2185 12.9804 59.7565 13.2207 60.1434 13.6125C60.5303 13.9997 60.7704 14.5339 60.7704 15.1259V19.4883C60.7704 20.0759 60.5303 20.6146 60.1434 21.0018C59.7565 21.3891 59.2185 21.6295 58.6315 21.6295H57.6353C57.3863 21.6295 57.1462 21.5894 56.9238 21.5093V25.4755C56.9238 27.8214 55.9633 29.9492 54.4202 31.4983C52.8771 33.0429 50.747 34 48.4034 34H12.5965C10.2529 34 8.12285 33.0429 6.57975 31.4983C5.03666 29.9492 4.08056 27.8214 4.08056 25.4755V21.5093C3.85821 21.5894 3.61808 21.6295 3.3646 21.6295H2.37293C1.78148 21.6295 1.24785 21.3891 0.856514 21.0018C0.469628 20.6146 0.229492 20.0759 0.229492 19.4883V15.1259C0.229492 14.5339 0.469628 13.9997 0.856514 13.6125C1.24785 13.2207 1.78148 12.9804 2.37293 12.9804H3.3646C3.61808 12.9804 3.85821 13.0249 4.08056 13.105V12.4106C4.08056 10.0647 5.03666 7.93689 6.57975 6.3878C7.47804 5.49306 8.57644 4.78974 9.79491 4.3624C9.98613 3.20503 10.5642 2.1723 11.3869 1.40665C12.3208 0.534171 13.5704 0 14.9356 0H46.0643C47.434 0 48.6791 0.534171 49.613 1.40665C50.4357 2.1723 51.0138 3.20503 51.205 4.3624ZM56.9238 15.1081V19.5017C56.9283 19.6931 57.0039 19.8623 57.1328 19.9914C57.2618 20.1205 57.4397 20.2006 57.6353 20.2006H58.6315C58.8271 20.2006 59.005 20.1205 59.134 19.9914C59.2629 19.8623 59.343 19.6842 59.343 19.4883V15.1259C59.343 14.9301 59.2629 14.752 59.134 14.6229C59.005 14.4894 58.8271 14.4093 58.6315 14.4093H57.6353C57.4397 14.4093 57.2618 14.4894 57.1328 14.6229C57.0039 14.7476 56.9283 14.9212 56.9238 15.1081ZM4.08056 19.5017V15.1081C4.07612 14.9212 3.99607 14.7476 3.87155 14.6229C3.73815 14.4894 3.56027 14.4093 3.3646 14.4093H2.37293C2.17726 14.4093 1.99938 14.4894 1.86597 14.6229C1.73701 14.752 1.65697 14.9301 1.65697 15.1259V19.4883C1.65697 19.6842 1.73701 19.8623 1.86597 19.9914C1.99938 20.1205 2.17726 20.2006 2.37293 20.2006H3.3646C3.56027 20.2006 3.73815 20.1205 3.87155 19.9914C3.99607 19.8623 4.07612 19.6931 4.08056 19.5017Z" fill="#FEFEFE"/>
</g>
<defs>
<clipPath id="clip0_122_855">
<rect width="61" height="34" fill="white"/>
</clipPath>
</defs>
</svg>
