<?xml version="1.0" encoding="UTF-8"?>
<!DOCTYPE svg PUBLIC "-//W3C//DTD SVG 1.1//EN" "http://www.w3.org/Graphics/SVG/1.1/DTD/svg11.dtd">
<!-- Creator: CorelDRAW 2021 (64-Bit) -->
<svg xmlns="http://www.w3.org/2000/svg" xml:space="preserve" width="90px" height="107px" version="1.1" style="shape-rendering:geometricPrecision; text-rendering:geometricPrecision; image-rendering:optimizeQuality; fill-rule:evenodd; clip-rule:evenodd"
viewBox="0 0 9.324 10.987"
 xmlns:xlink="http://www.w3.org/1999/xlink"
 xmlns:xodm="http://www.corel.com/coreldraw/odm/2003">
 <defs>
  <style type="text/css">
   <![CDATA[
    .fil0 {fill:#A36700;fill-rule:nonzero}
   ]]>
  </style>
 </defs>
 <g id="Layer_x0020_1">
  <metadata id="CorelCorpID_0Corel-Layer"/>
  <path class="fil0" d="M0 4.636l0.028 0.648c0.008,0.077 0.038,0.152 0.048,0.237 0.006,0.055 0.006,0.077 0.018,0.125l0.28 0.876 0.142 0.3c0.099,0.219 0.254,0.425 0.39,0.622 0.001,0.003 0.004,0.006 0.005,0.008l0.722 0.771 0.284 0.223c0.148,0.103 0.283,0.199 0.442,0.285 0.066,0.036 0.115,0.072 0.184,0.102l0.406 0.179c0.085,0.044 0.334,0.129 0.426,0.145l0.729 0.153c0.467,0.033 0.624,0.023 1.103,0.001 0.091,-0.004 0.15,-0.03 0.243,-0.043l0.371 -0.07c0.052,-0.013 0.056,-0.025 0.106,-0.037 0.049,-0.011 0.076,-0.007 0.118,-0.026 0.059,-0.025 0.026,-0.02 0.105,-0.037l0.517 -0.211c0.115,-0.042 0.221,-0.109 0.324,-0.169l0.177 -0.109c0.021,-0.014 0.022,-0.017 0.045,-0.032l0.263 -0.179c0.003,-0.002 0.012,-0.009 0.015,-0.011l0.014 -0.012c0.002,-0.002 0.005,-0.004 0.007,-0.006l0.392 -0.335c0.022,-0.021 0.018,-0.017 0.038,-0.04l0.455 -0.519c0.002,-0.003 0.009,-0.012 0.011,-0.015 0.1,-0.142 0.211,-0.285 0.29,-0.437 0.021,-0.04 0.029,-0.054 0.05,-0.093 0.054,-0.098 0.251,-0.488 0.277,-0.594l0.039 -0.103c0.018,-0.038 0.017,-0.066 0.032,-0.111 0.017,-0.048 0.025,-0.044 0.039,-0.104 0.02,-0.089 0.048,-0.147 0.06,-0.239 0.011,-0.083 0.043,-0.148 0.051,-0.234 0.019,-0.184 0.046,-0.164 0.052,-0.39 0.004,-0.142 0.026,-0.264 0.026,-0.415 0,-0.158 0.003,-0.335 -0.02,-0.486 -0.023,-0.154 0.01,-0.109 -0.044,-0.359 -0.012,-0.055 -0.013,-0.124 -0.023,-0.172l-0.269 -0.86c-0.018,-0.045 -0.019,-0.028 -0.037,-0.068l-0.111 -0.239c-0.005,-0.01 -0.011,-0.026 -0.015,-0.036l-0.075 -0.134c-0.04,-0.062 -0.07,-0.136 -0.116,-0.195 -0.019,-0.025 -0.025,-0.038 -0.041,-0.063l-0.203 -0.29c-0.017,-0.02 -0.013,-0.014 -0.025,-0.028l-0.61 -0.649c-0.002,-0.002 -0.004,-0.005 -0.006,-0.007 -0.143,-0.14 -0.319,-0.248 -0.48,-0.364 -0.003,-0.001 -0.006,-0.004 -0.008,-0.005l-0.232 -0.145c-0.066,-0.038 -0.047,-0.056 -0.152,-0.056 -0.025,0.105 -0.176,0.356 -0.238,0.464l-0.123 0.214c-0.024,0.041 -0.029,0.075 -0.068,0.089 0.002,0.081 0.053,0.085 0.123,0.123l0.105 0.064c0.027,0.017 0.024,0.019 0.054,0.037 0.118,0.075 0.222,0.167 0.334,0.25 0.14,0.105 0.166,0.121 0.086,0.214 -0.074,0.086 -0.164,0.156 -0.241,0.239l-0.091 0.091c-0.025,0.027 -0.038,0.038 -0.058,0.059l-0.171 0.167c-0.012,0.012 -0.015,0.016 -0.025,0.027 -0.002,0.002 -0.005,0.004 -0.007,0.006l-0.188 0.189c-0.002,0.002 -0.004,0.004 -0.006,0.006l-0.954 0.956c-0.035,0.029 0.009,0.009 -0.039,0.026 0,0.075 0.007,0.069 0.049,0.107 0.041,0.039 0.042,0.038 0.068,0.088 0.14,-0.074 0.369,-0.337 0.484,-0.451l1.286 -1.286c0.029,-0.029 0.111,-0.099 0.126,-0.12 0.077,0.051 0.139,0.135 0.195,0.207l0.29 0.412c0.017,0.026 0.007,0.009 0.019,0.033l0.054 0.089c0.015,0.027 0.015,0.039 0.032,0.071 0.019,0.034 0.019,0.03 0.036,0.069 0.014,0.034 0.021,0.039 0.036,0.067l0.17 0.428c0.007,0.027 0.009,0.056 0.019,0.085 0.01,0.033 0.021,0.045 0.03,0.074l0.068 0.334c0.012,0.14 0.051,0.189 0.051,0.364l0 0.169 -2.597 0c-0.085,0 -0.051,0.184 -0.039,0.234l2.623 0c0.027,0.116 0.013,0.261 0,0.376 -0.008,0.062 -0.031,0.099 -0.037,0.158 -0.017,0.162 -0.04,0.191 -0.066,0.337 -0.012,0.069 -0.031,0.071 -0.047,0.147l-0.076 0.223c-0.057,0.111 -0.091,0.244 -0.156,0.351 -0.025,0.04 -0.015,0.012 -0.038,0.065l-0.362 0.548c-0.032,0.038 -0.055,0.072 -0.087,0.107l-0.105 0.103c-0.043,-0.011 -0.08,-0.054 -0.11,-0.084l-1.09 -1.092c-0.002,-0.002 -0.004,-0.005 -0.006,-0.006l-0.078 -0.078c-0.002,-0.002 -0.005,-0.005 -0.006,-0.007l-0.171 -0.167c-0.003,-0.002 -0.012,-0.009 -0.014,-0.012 -0.064,-0.054 -0.112,-0.128 -0.171,-0.179 -0.003,-0.002 -0.006,-0.004 -0.008,-0.006 -0.002,-0.002 -0.005,-0.004 -0.007,-0.006 -0.002,-0.002 -0.005,-0.004 -0.007,-0.006l-0.014 -0.012c-0.002,-0.001 -0.005,-0.004 -0.007,-0.006l-0.08 -0.075c-0.053,-0.053 -0.063,-0.09 -0.14,-0.108 -0.052,0.079 -0.051,0.078 -0.13,0.13 0.02,0.084 0.37,0.402 0.452,0.484l1.285 1.286c0.044,0.043 0.092,0.072 0.108,0.139 -0.036,0.053 -0.186,0.179 -0.245,0.223 -0.023,0.017 -0.038,0.022 -0.064,0.04l-0.656 0.396c-0.026,0.01 -0.04,0.009 -0.068,0.023 -0.097,0.051 -0.465,0.188 -0.565,0.201 -0.104,0.014 -0.138,0.036 -0.327,0.063 -0.071,0.01 -0.097,0.019 -0.164,0.03 -0.06,0.011 -0.096,0.011 -0.172,0.011 -0.195,0.001 -0.142,0.029 -0.142,-0.415 0,-0.706 -0.009,-1.412 0.001,-2.118 0.002,-0.137 -0.052,-0.116 -0.157,-0.116 -0.118,0 -0.078,0.154 -0.078,0.299 0,0.292 0.015,2.234 0,2.311 -0.013,0.066 -0.051,0.041 -0.129,0.039 -0.092,-0.002 -0.433,-0.04 -0.509,-0.063 -0.059,-0.017 -0.085,-0.031 -0.155,-0.04 -0.067,-0.008 -0.363,-0.102 -0.433,-0.138 -0.034,-0.018 -0.024,-0.013 -0.065,-0.026l-0.386 -0.185c-0.022,-0.015 -0.002,-0.005 -0.031,-0.021 -0.177,-0.1 -0.339,-0.207 -0.499,-0.332 -0.034,-0.026 -0.076,-0.056 -0.108,-0.087 -0.036,-0.035 -0.061,-0.068 -0.1,-0.095 0.048,-0.071 0.098,-0.133 0.163,-0.187l0.67 -0.668c0.002,-0.003 0.01,-0.011 0.012,-0.014 0.002,-0.001 0.005,-0.004 0.007,-0.006 0.082,-0.083 0.171,-0.157 0.246,-0.247l0.644 -0.642c0.046,-0.041 0.081,-0.082 0.115,-0.132l-0.098 -0.097c-0.012,-0.014 -0.024,-0.033 -0.032,-0.046 -0.106,0.051 -0.16,0.128 -0.25,0.218 -0.126,0.126 -0.263,0.238 -0.379,0.374l-1.145 1.141c-0.001,0 -0.069,0.094 -0.135,0.111 -0.113,-0.075 -0.212,-0.229 -0.292,-0.344 -0.097,-0.142 -0.195,-0.277 -0.269,-0.432l-0.248 -0.557c-0.038,-0.098 -0.057,-0.242 -0.092,-0.336l-0.071 -0.358c-0.017,-0.114 -0.039,-0.311 -0.002,-0.388 0.84,0 1.68,-0.01 2.52,0.001 0.168,0.002 0.115,-0.081 0.103,-0.222 -0.41,-0.034 -0.898,-0.013 -1.311,-0.013 -0.442,0 -0.883,0 -1.325,0 -0.044,-0.206 0.039,-0.388 0.052,-0.558 0.003,-0.043 0.004,-0.061 0.011,-0.093 0.012,-0.051 0.016,-0.044 0.03,-0.087l0.039 -0.169c0.013,-0.031 0.018,-0.037 0.027,-0.077l0.082 -0.242c0.04,-0.074 0.059,-0.153 0.098,-0.227l0.27 -0.483c0.088,-0.129 0.273,-0.387 0.391,-0.466 0.015,0.02 0.091,0.085 0.12,0.113 0.042,0.043 0.075,0.075 0.117,0.117l1.519 1.52c0.064,0.063 0.059,0.064 0.14,0.107 0.127,-0.241 0.281,-0.012 -0.334,-0.627 -0.182,-0.181 -1.38,-1.351 -1.38,-1.386 0,-0.067 0.039,-0.081 0.079,-0.116l0.479 -0.352c0.03,-0.016 0.04,-0.025 0.064,-0.04 0.118,-0.07 0.246,-0.124 0.369,-0.189 0.036,-0.02 0.021,-0.017 0.059,-0.032 0.029,-0.01 0.048,-0.011 0.079,-0.025 0.034,-0.016 0.011,-0.013 0.061,-0.03 0.092,-0.031 0.267,-0.101 0.353,-0.114 0.02,-0.003 0.054,-0.008 0.077,-0.014 0.031,-0.009 0.043,-0.022 0.074,-0.03l0.332 -0.058c0.456,-0.022 0.376,-0.095 0.376,0.325l0 2.285c0.077,0.037 0.169,0.032 0.234,0l0 -2.454c-0.001,-0.214 -0.04,-0.197 0.401,-0.154l0.335 0.067c0.058,0.025 0.096,0.03 0.168,0.042 0.118,0.02 0.081,-0.056 0.131,-0.167l0.05 -0.144c0.02,-0.039 0.015,-0.031 0.027,-0.078 0.017,-0.071 0.038,-0.091 0.053,-0.154 0.018,-0.07 0.004,-0.025 0.029,-0.076l0.087 -0.224c0,-0.065 -0.226,-0.098 -0.283,-0.111 -0.076,-0.016 -0.07,-0.032 -0.166,-0.041 -0.06,-0.006 -0.116,-0.017 -0.175,-0.033 -0.145,-0.038 -0.617,-0.07 -0.787,-0.07 -0.172,0 -0.621,0.035 -0.781,0.075 -0.082,0.021 -0.176,0.022 -0.252,0.048 -0.044,0.015 -0.07,0.022 -0.113,0.029 -0.064,0.01 -0.066,0.01 -0.114,0.03 -0.052,0.022 -0.051,0.015 -0.113,0.029 -0.041,0.01 -0.056,0.029 -0.1,0.043 -0.053,0.016 -0.064,0.011 -0.111,0.032l-0.601 0.269c-0.043,0.028 -0.055,0.024 -0.095,0.048 -0.025,0.016 -0.012,0.012 -0.037,0.027l-0.296 0.185c-0.003,0.001 -0.006,0.004 -0.008,0.005l-0.182 0.13c-0.218,0.174 -0.422,0.352 -0.611,0.558l-0.589 0.787 -0.151 0.278c-0.1,0.173 -0.176,0.372 -0.242,0.563 -0.016,0.043 -0.017,0.072 -0.033,0.11 -0.018,0.044 -0.024,0.056 -0.035,0.108l-0.158 0.724 -0.027 0.558zm5.597 -2.519c0,0.032 0.051,0.159 0.182,0.026 0.007,-0.007 0.003,-0.004 0.019,-0.02l0.048 -0.043c0.002,-0.002 0.004,-0.005 0.006,-0.007 0.002,-0.002 0.004,-0.005 0.006,-0.007l0.234 -0.311c0.014,-0.02 0.022,-0.036 0.036,-0.056 0.016,-0.023 0.019,-0.026 0.036,-0.054l0.457 -0.765c0.078,-0.129 0.171,-0.284 0.171,-0.438 0,-0.036 -0.032,-0.126 -0.074,-0.173l-0.044 -0.047c-0.131,-0.116 -0.351,-0.13 -0.472,-0.007 -0.007,0.008 -0.018,0.02 -0.025,0.027 -0.103,0.117 -0.121,0.279 -0.162,0.357l-0.344 1.06c-0.018,0.052 -0.014,0.096 -0.025,0.156 -0.018,0.094 -0.049,0.115 -0.049,0.302zm-1.87 2.545l0.045 0.293 0.117 0.234c0.091,0.142 0.227,0.251 0.377,0.324 0.031,0.015 0.056,0.02 0.084,0.032 0.026,0.012 0.047,0.026 0.084,0.034 0.127,0.027 0.316,0.022 0.444,0 0.046,-0.008 0.052,-0.014 0.087,-0.029 0.035,-0.015 0.057,-0.018 0.087,-0.031l0.203 -0.135c0.002,-0.001 0.004,-0.004 0.006,-0.006 0.1,-0.092 0.205,-0.203 0.248,-0.336 0.051,-0.155 0.075,-0.15 0.075,-0.393 0,-0.187 -0.038,-0.293 -0.115,-0.43 -0.092,-0.162 -0.234,-0.313 -0.409,-0.383 -0.079,-0.032 -0.058,-0.044 -0.16,-0.061 -0.296,-0.048 -0.17,-0.051 -0.464,-0.002 -0.098,0.017 -0.183,0.062 -0.265,0.112 -0.003,0.002 -0.006,0.003 -0.008,0.005l-0.108 0.074c-0.021,0.018 -0.038,0.038 -0.058,0.058 -0.081,0.081 -0.094,0.117 -0.144,0.194 -0.07,0.107 -0.126,0.337 -0.126,0.446zm-1.818 6.013c0,0.129 0.016,0.158 0.094,0.231 0.05,0.046 0.125,0.081 0.218,0.081l4.883 0c0.112,0 0.227,-0.063 0.284,-0.158 0.082,-0.138 0.013,-0.44 -0.297,-0.44l-4.857 0c-0.111,0 -0.202,0.046 -0.263,0.114 -0.044,0.05 -0.062,0.075 -0.062,0.172zm0.506 -0.403c0,0.042 -0.005,0.065 0.039,0.065l4.416 0c0.086,0 0.01,-0.139 -0.002,-0.193l-0.045 -0.163c-0.019,-0.064 -0.015,-0.107 -0.04,-0.167 -0.049,-0.118 -0.019,-0.104 -0.041,-0.167 -0.028,-0.078 -0.019,-0.001 -0.044,-0.151l-0.093 -0.323c-0.058,-0.216 -0.011,-0.164 -0.265,-0.08 -0.049,0.017 -0.041,0.029 -0.099,0.044l-0.325 0.104c-0.05,0.011 -0.074,0.006 -0.122,0.021l-0.345 0.083 -0.514 0.057c-0.091,0 -0.208,0.009 -0.273,0.009 -0.275,0 -0.617,-0.031 -0.889,-0.094 -0.115,-0.027 -0.096,-0.001 -0.236,-0.05 -0.057,-0.02 -0.055,-0.013 -0.118,-0.024 -0.045,-0.008 -0.063,-0.024 -0.106,-0.038 -0.043,-0.013 -0.068,-0.006 -0.114,-0.028 -0.056,-0.025 -0.035,-0.021 -0.105,-0.038 -0.049,-0.011 -0.272,-0.113 -0.315,-0.113 -0.056,0 -0.042,0.081 -0.058,0.136 -0.022,0.078 -0.025,0.014 -0.046,0.162 -0.01,0.071 -0.032,0.071 -0.046,0.148l-0.08 0.323c-0.045,0.121 -0.021,0.09 -0.042,0.166l-0.067 0.231c-0.011,0.031 -0.025,0.038 -0.025,0.08z"/>
 </g>
</svg>
