<?xml version="1.0" encoding="UTF-8"?>
<!DOCTYPE svg PUBLIC "-//W3C//DTD SVG 1.1//EN" "http://www.w3.org/Graphics/SVG/1.1/DTD/svg11.dtd">
<!-- Creator: CorelDRAW 2021 (64-Bit) -->
<svg xmlns="http://www.w3.org/2000/svg" xml:space="preserve" width="143px" height="143px" version="1.1" style="shape-rendering:geometricPrecision; text-rendering:geometricPrecision; image-rendering:optimizeQuality; fill-rule:evenodd; clip-rule:evenodd"
viewBox="0 0 22.06 22.06"
 xmlns:xlink="http://www.w3.org/1999/xlink"
 xmlns:xodm="http://www.corel.com/coreldraw/odm/2003">
 <defs>
  <style type="text/css">
   <![CDATA[
    .fil1 {fill:#FEFEFE}
    .fil0 {fill:#FEFEFE;fill-rule:nonzero}
   ]]>
  </style>
 </defs>
 <g id="Layer_x0020_1">
  <metadata id="CorelCorpID_0Corel-Layer"/>
  <g id="_2247176635168">
   <path class="fil0" d="M11.03 0c3.046,0 5.803,1.235 7.799,3.231 1.996,1.996 3.231,4.753 3.231,7.799 0,3.046 -1.235,5.803 -3.231,7.799 -1.996,1.996 -4.753,3.231 -7.799,3.231 -3.046,0 -5.803,-1.235 -7.799,-3.231 -1.996,-1.996 -3.231,-4.753 -3.231,-7.799 0,-3.046 1.235,-5.803 3.231,-7.799 1.996,-1.996 4.753,-3.231 7.799,-3.231zm0 4.048c1.928,0 3.673,0.782 4.937,2.045 1.263,1.264 2.045,3.009 2.045,4.937 0,1.928 -0.782,3.673 -2.045,4.937 -1.264,1.263 -3.009,2.045 -4.937,2.045 -1.928,0 -3.673,-0.782 -4.937,-2.045 -1.263,-1.264 -2.045,-3.009 -2.045,-4.937 0,-1.928 0.782,-3.673 2.045,-4.937 1.264,-1.263 3.009,-2.045 4.937,-2.045zm4.779 2.203c-1.223,-1.223 -2.913,-1.979 -4.779,-1.979 -1.866,0 -3.556,0.756 -4.779,1.979 -1.223,1.223 -1.979,2.913 -1.979,4.779 0,1.866 0.756,3.556 1.979,4.779 1.223,1.223 2.913,1.979 4.779,1.979 1.866,0 3.556,-0.756 4.779,-1.979 1.223,-1.223 1.979,-2.913 1.979,-4.779 0,-1.866 -0.756,-3.556 -1.979,-4.779zm-5.101 12.798l-0.251 -0.189 0.005 -0.198c0.002,-0.062 0.024,-0.115 0.065,-0.158 0.042,-0.044 0.1,-0.068 0.175,-0.073l-0.002 -0.054 0.108 0.003 -0.004 0.053 0.233 0.006 -0.009 0.373 -0.171 -0.017 -0.017 -0.184c-0.017,-0.001 -0.034,-0.002 -0.048,-0.002l-0.004 -0.001 -0.018 0.219 0.253 0.195 -0.006 0.225c-0.002,0.062 -0.023,0.115 -0.065,0.158 -0.042,0.044 -0.1,0.068 -0.175,0.072l0.002 0.05 -0.108 -0.002 0.005 -0.049 -0.226 -0.005 0.036 -0.407 0.172 0.016 -0.006 0.219 0.037 0.001 0.019 -0.251zm0.109 0.171c0.001,-0.006 0.002,-0.014 0.002,-0.023 0,-0.009 0.001,-0.018 0.001,-0.028 0,-0.009 0,-0.018 0.001,-0.024l0.001 -0.01 -0.058 -0.043 0.007 0.204c0.015,-0.004 0.027,-0.012 0.033,-0.023 0.006,-0.012 0.011,-0.029 0.013,-0.053zm-0.158 -0.478l0.052 0.04 -0.004 -0.172c-0.019,0.003 -0.031,0.013 -0.037,0.031 -0.006,0.016 -0.01,0.042 -0.01,0.078l-0.001 0.023zm-0.828 0.657l-0.213 -0.027 0.109 -0.859 0.331 -0.182 0.275 0.259 -0.086 0.679 0.055 0.19 -0.291 -0.037 0.096 -0.753 -0.082 -0.075 -0.098 0.052 -0.096 0.753zm-0.773 -0.298l0.104 0.029 0.169 -0.734 -0.105 -0.026 0.034 -0.147 0.39 0.09 0.031 0.147 -0.139 -0.022 -0.171 0.74 0.076 0.014 0.029 0.155 -0.451 -0.103 0.033 -0.143zm-0.329 -0.103l0.001 0 0.163 -0.572c0.015,-0.052 0.014,-0.087 -0.002,-0.104 -0.013,-0.015 -0.045,-0.029 -0.093,-0.043 -0.012,-0.003 -0.024,-0.006 -0.037,-0.009l-0.104 -0.03 0.049 -0.17 0.225 0.064c0.052,0.015 0.094,0.038 0.125,0.069 0.031,0.031 0.051,0.067 0.061,0.107 0.009,0.04 0.008,0.081 -0.004,0.123l-0.221 0.779 -0.472 -0.134 0.049 -0.175 0.26 0.095zm-0.953 -0.163l0.067 -0.168 0.152 0.079 0.325 -0.822 0.199 0.078 -0.325 0.826 0.177 0.047 -0.067 0.169 -0.528 -0.209zm-0.118 -0.86l-0.085 0.167 -0.231 -0.136 -0.17 -0.069 0.086 -0.167 0.164 0.127 0.236 0.078zm-1.242 -0.378l-0.103 -0.297 0.115 -0.162c0.036,-0.05 0.084,-0.082 0.143,-0.095 0.059,-0.013 0.121,0 0.185,0.037l0.029 -0.045 0.087 0.063 -0.033 0.041 0.191 0.135 -0.216 0.305 -0.133 -0.11 0.089 -0.162c-0.014,-0.011 -0.027,-0.02 -0.039,-0.029l-0.003 -0.002 -0.136 0.171 0.1 0.303 -0.13 0.183c-0.037,0.051 -0.084,0.083 -0.143,0.095 -0.059,0.013 -0.121,0.001 -0.185,-0.038l-0.027 0.043 -0.087 -0.062 0.03 -0.038 -0.183 -0.131 0.257 -0.317 0.132 0.109 -0.126 0.178 0.03 0.022 0.156 -0.197zm-0.005 0.203c0.004,-0.005 0.008,-0.011 0.014,-0.019 0.006,-0.007 0.011,-0.015 0.016,-0.022 0.006,-0.008 0.011,-0.015 0.015,-0.02l0.006 -0.008 -0.024 -0.068 -0.108 0.173c0.015,0.006 0.029,0.006 0.04,0 0.012,-0.006 0.025,-0.018 0.041,-0.036zm0.136 -0.486l0.021 0.063 0.092 -0.145c-0.017,-0.008 -0.033,-0.007 -0.048,0.004 -0.014,0.011 -0.031,0.031 -0.052,0.06l-0.013 0.018zm-1.059 0.098l-0.163 -0.14 0.567 -0.655 0.377 0.032 0.085 0.369 -0.448 0.517 -0.059 0.189 -0.222 -0.193 0.496 -0.573 -0.026 -0.108 -0.111 -0.011 -0.496 0.573zm-0.484 -0.664l0.072 0.081 0.544 -0.52 -0.073 -0.08 0.109 -0.103 0.276 0.289 -0.054 0.14 -0.105 -0.095 -0.549 0.524 0.056 0.054 -0.061 0.145 -0.321 -0.335 0.106 -0.1zm-0.219 -0.263l0.001 0 0.45 -0.389c0.04,-0.036 0.059,-0.065 0.055,-0.088 -0.003,-0.019 -0.022,-0.048 -0.055,-0.087 -0.007,-0.009 -0.016,-0.018 -0.025,-0.028l-0.071 -0.081 0.134 -0.116 0.153 0.177c0.036,0.041 0.058,0.083 0.067,0.126 0.009,0.043 0.006,0.084 -0.008,0.123 -0.014,0.039 -0.037,0.073 -0.07,0.101l-0.612 0.53 -0.322 -0.371 0.137 -0.119 0.166 0.222zm-0.712 -0.652l0.147 -0.104 0.085 0.149 0.721 -0.512 0.124 0.175 -0.723 0.514 0.123 0.136 -0.148 0.105 -0.329 -0.463zm0.366 -0.782l-0.163 0.094 -0.119 -0.24 -0.105 -0.15 0.163 -0.094 0.069 0.196 0.155 0.194zm-0.843 -0.991l0.076 -0.305 0.184 -0.073c0.059,-0.022 0.116,-0.023 0.172,-0.002 0.057,0.022 0.102,0.066 0.135,0.133l0.049 -0.022 0.039 0.1 -0.05 0.016 0.086 0.218 -0.347 0.137 -0.052 -0.164 0.164 -0.088c-0.007,-0.016 -0.012,-0.031 -0.017,-0.045l-0.002 -0.003 -0.208 0.068 -0.081 0.309 -0.209 0.082c-0.058,0.023 -0.115,0.024 -0.172,0.002 -0.056,-0.021 -0.101,-0.065 -0.134,-0.132l-0.046 0.021 -0.039 -0.1 0.046 -0.015 -0.082 -0.21 0.388 -0.126 0.052 0.165 -0.203 0.08 0.013 0.034 0.238 -0.08zm-0.115 0.167c0.006,-0.002 0.013,-0.004 0.022,-0.007 0.009,-0.004 0.018,-0.007 0.027,-0.01 0.008,-0.004 0.016,-0.007 0.022,-0.009l0.01 -0.003 0.017 -0.07 -0.186 0.086c0.01,0.013 0.022,0.02 0.035,0.021 0.013,0.002 0.031,-0.001 0.053,-0.008zm0.379 -0.332l-0.016 0.064 0.156 -0.071c-0.01,-0.017 -0.024,-0.024 -0.043,-0.023 -0.017,0.001 -0.042,0.008 -0.076,0.021l-0.021 0.009zm-0.947 -0.497l-0.058 -0.207 0.832 -0.237 0.298 0.234 -0.131 0.354 -0.658 0.187 -0.153 0.126 -0.08 -0.283 0.73 -0.207 0.037 -0.105 -0.087 -0.07 -0.73 0.208zm-0.043 -0.779l0.02 0.107 0.734 -0.17 -0.023 -0.106 0.147 -0.034 0.09 0.39 -0.118 0.093 -0.042 -0.135 -0.74 0.171 0.021 0.074 -0.126 0.095 -0.105 -0.452 0.142 -0.033zm-0.046 -0.387l0 0.001 0.59 -0.075c0.054,-0.007 0.086,-0.021 0.095,-0.042 0.008,-0.018 0.009,-0.053 0.003,-0.103 -0.002,-0.011 -0.004,-0.024 -0.006,-0.038l-0.013 -0.106 0.175 -0.022 0.03 0.232c0.006,0.053 0.002,0.101 -0.015,0.142 -0.016,0.04 -0.041,0.073 -0.074,0.098 -0.033,0.024 -0.072,0.04 -0.115,0.045l-0.803 0.102 -0.062 -0.487 0.18 -0.023 0.015 0.276zm-0.248 -0.888l0.181 -0.014 -0.004 0.172 0.881 -0.067 0.016 0.214 -0.885 0.068 0.035 0.18 -0.18 0.013 -0.044 -0.566zm0.729 -0.499l-0.188 -0.014 0.037 -0.266 -0.002 -0.183 0.187 0.014 -0.053 0.201 0.019 0.248zm-0.169 -1.27l0.225 -0.22 0.195 0.035c0.062,0.011 0.111,0.041 0.147,0.089 0.037,0.048 0.052,0.109 0.046,0.183l0.053 0.007 -0.019 0.106 -0.051 -0.012 -0.041 0.23 -0.368 -0.066 0.042 -0.167 0.185 0.012c0.003,-0.017 0.007,-0.033 0.01,-0.047l0 -0.004 -0.213 -0.051 -0.231 0.22 -0.221 -0.039c-0.062,-0.011 -0.111,-0.041 -0.147,-0.088 -0.037,-0.048 -0.052,-0.109 -0.045,-0.184l-0.05 -0.006 0.019 -0.106 0.047 0.012 0.04 -0.222 0.397 0.097 -0.043 0.167 -0.215 -0.039 -0.006 0.036 0.244 0.057zm-0.185 0.082c0.006,0.002 0.014,0.004 0.023,0.006 0.009,0.001 0.018,0.003 0.027,0.005 0.01,0.001 0.018,0.003 0.024,0.004l0.01 0.002 0.051 -0.05 -0.203 -0.024c0.002,0.016 0.008,0.028 0.018,0.036 0.011,0.008 0.027,0.015 0.05,0.021zm0.497 -0.084l-0.048 0.046 0.171 0.021c0,-0.019 -0.008,-0.032 -0.025,-0.041 -0.015,-0.008 -0.04,-0.016 -0.076,-0.022l-0.022 -0.004zm-0.532 -0.918l0.058 -0.207 0.833 0.236 0.131 0.355 -0.298 0.233 -0.658 -0.187 -0.196 0.027 0.08 -0.283 0.73 0.207 0.087 -0.069 -0.038 -0.105 -0.729 -0.207zm0.404 -0.721l-0.044 0.099 0.7 0.276 0.042 -0.1 0.14 0.055 -0.147 0.373 -0.15 0.009 0.042 -0.135 -0.706 -0.278 -0.025 0.073 -0.158 0.006 0.169 -0.432 0.137 0.054zm0.148 -0.309l0 0 0.542 0.245c0.049,0.023 0.084,0.027 0.103,0.014 0.016,-0.011 0.035,-0.04 0.056,-0.086 0.005,-0.011 0.01,-0.022 0.015,-0.035l0.044 -0.098 0.161 0.073 -0.096 0.213c-0.022,0.049 -0.051,0.087 -0.087,0.113 -0.035,0.026 -0.073,0.041 -0.115,0.045 -0.041,0.004 -0.081,-0.004 -0.121,-0.022l-0.738 -0.333 0.203 -0.448 0.165 0.075 -0.132 0.244zm0.297 -0.92l0.157 0.09 -0.101 0.14 0.766 0.441 -0.107 0.186 -0.769 -0.443 -0.072 0.169 -0.157 -0.091 0.283 -0.492zm0.865 0.008l-0.153 -0.109 0.168 -0.209 0.093 -0.158 0.153 0.109 -0.149 0.145 -0.112 0.222zm0.55 -1.177l0.309 -0.059 0.143 0.136c0.045,0.043 0.07,0.095 0.074,0.155 0.004,0.061 -0.017,0.12 -0.064,0.179l0.041 0.034 -0.074 0.078 -0.036 -0.038 -0.161 0.169 -0.271 -0.258 0.128 -0.116 0.148 0.112c0.012,-0.012 0.023,-0.024 0.033,-0.034l0.003 -0.003 -0.15 -0.16 -0.314 0.056 -0.162 -0.155c-0.046,-0.043 -0.071,-0.095 -0.075,-0.155 -0.004,-0.06 0.018,-0.119 0.065,-0.178l-0.039 -0.032 0.075 -0.078 0.033 0.036 0.155 -0.163 0.277 0.3 -0.127 0.116 -0.158 -0.151 -0.025 0.026 0.172 0.183zm-0.2 -0.034c0.004,0.004 0.01,0.01 0.016,0.017 0.007,0.006 0.013,0.013 0.02,0.019 0.007,0.007 0.013,0.012 0.018,0.017l0.007 0.007 0.07 -0.013 -0.156 -0.133c-0.007,0.015 -0.009,0.028 -0.005,0.041 0.005,0.012 0.014,0.027 0.03,0.045zm0.461 0.204l-0.065 0.012 0.13 0.112c0.011,-0.016 0.011,-0.032 0.003,-0.048 -0.008,-0.015 -0.026,-0.036 -0.052,-0.061l-0.016 -0.015zm0.053 -1.064l0.162 -0.14 0.567 0.654 -0.086 0.368 -0.376 0.032 -0.448 -0.517 -0.179 -0.086 0.222 -0.192 0.497 0.573 0.111 -0.01 0.026 -0.108 -0.496 -0.574zm0.726 -0.385l-0.091 0.059 0.436 0.614 0.09 -0.061 0.087 0.122 -0.326 0.232 -0.131 -0.074 0.109 -0.09 -0.44 -0.619 -0.061 0.048 -0.135 -0.081 0.377 -0.269 0.085 0.119zm0.291 -0.18l-0.001 0 0.321 0.501c0.03,0.046 0.056,0.069 0.079,0.068 0.02,-0.001 0.051,-0.015 0.094,-0.042 0.01,-0.006 0.02,-0.013 0.032,-0.021l0.09 -0.058 0.095 0.149 -0.196 0.126c-0.046,0.029 -0.091,0.045 -0.135,0.048 -0.044,0.003 -0.084,-0.006 -0.12,-0.025 -0.037,-0.02 -0.067,-0.048 -0.091,-0.085l-0.436 -0.681 0.413 -0.265 0.098 0.153 -0.243 0.132zm0.746 -0.614l0.083 0.162 -0.16 0.062 0.403 0.787 -0.192 0.098 -0.404 -0.79 -0.152 0.101 -0.083 -0.161 0.505 -0.259zm0.721 0.473l-0.069 -0.175 0.255 -0.083 0.164 -0.082 0.069 0.175 -0.205 0.04 -0.214 0.125zm1.104 -0.694l0.29 0.12 0.044 0.193c0.015,0.061 0.007,0.118 -0.023,0.17 -0.03,0.053 -0.08,0.091 -0.151,0.114l0.015 0.052 -0.105 0.024 -0.009 -0.052 -0.228 0.053 -0.084 -0.364 0.17 -0.027 0.062 0.175c0.017,-0.004 0.033,-0.007 0.048,-0.01l0.003 -0.001 -0.037 -0.216 -0.293 -0.126 -0.051 -0.219c-0.014,-0.061 -0.006,-0.118 0.024,-0.17 0.029,-0.053 0.08,-0.091 0.151,-0.113l-0.014 -0.048 0.105 -0.025 0.008 0.048 0.219 -0.05 0.067 0.403 -0.17 0.026 -0.049 -0.213 -0.036 0.009 0.044 0.247zm-0.149 -0.138c0.001,0.006 0.003,0.013 0.005,0.023 0.001,0.009 0.003,0.018 0.006,0.027 0.002,0.009 0.004,0.017 0.005,0.024l0.002 0.009 0.066 0.028 -0.057 -0.196c-0.015,0.007 -0.023,0.018 -0.027,0.03 -0.003,0.013 -0.003,0.031 0,0.055zm0.273 0.423l-0.061 -0.025 0.047 0.165c0.018,-0.007 0.027,-0.02 0.029,-0.039 0.001,-0.017 -0.002,-0.044 -0.01,-0.078l-0.005 -0.023zm0.633 -0.867l0.213 -0.027 0.109 0.858 -0.275 0.26 -0.331 -0.183 -0.086 -0.678 -0.102 -0.17 0.292 -0.037 0.096 0.752 0.098 0.053 0.082 -0.075 -0.096 -0.753zm0.776 0.071l-0.108 0.003 0.057 0.751 0.108 -0.006 0.012 0.15 -0.399 0.031 -0.074 -0.131 0.139 -0.021 -0.057 -0.757 -0.077 0.009 -0.074 -0.139 0.462 -0.036 0.011 0.146zm0.39 0.004l-0.001 0 -0.015 0.595c-0.001,0.054 0.008,0.088 0.028,0.1 0.016,0.011 0.05,0.017 0.101,0.018 0.011,0.001 0.024,0.001 0.038,0l0.107 0.003 -0.004 0.177 -0.234 -0.006c-0.054,-0.001 -0.1,-0.013 -0.138,-0.036 -0.038,-0.022 -0.067,-0.051 -0.086,-0.088 -0.019,-0.037 -0.029,-0.077 -0.028,-0.121l0.021 -0.808 0.491 0.012 -0.004 0.181 -0.276 -0.027zm0.916 -0.115l-0.014 0.181 -0.169 -0.031 -0.067 0.882 -0.214 -0.017 0.067 -0.885 -0.183 0.008 0.014 -0.181 0.566 0.043zm0.367 0.794l0.033 -0.185 0.26 0.063 0.183 0.017 -0.033 0.185 -0.195 -0.074 -0.248 -0.006zm1.299 0.007l0.184 0.255 -0.063 0.188c-0.02,0.059 -0.057,0.103 -0.11,0.132 -0.053,0.029 -0.116,0.035 -0.188,0.018l-0.015 0.051 -0.101 -0.034 0.019 -0.049 -0.221 -0.075 0.12 -0.354 0.158 0.067 -0.039 0.181c0.017,0.006 0.032,0.011 0.045,0.016l0.004 0.001 0.082 -0.203 -0.183 -0.261 0.072 -0.213c0.02,-0.059 0.056,-0.103 0.109,-0.132 0.053,-0.03 0.116,-0.035 0.188,-0.017l0.013 -0.049 0.102 0.035 -0.018 0.045 0.213 0.072 -0.155 0.378 -0.158 -0.067 0.07 -0.207 -0.035 -0.011 -0.093 0.233zm-0.053 -0.196c-0.003,0.006 -0.005,0.013 -0.009,0.022 -0.003,0.009 -0.006,0.018 -0.009,0.027 -0.003,0.009 -0.006,0.016 -0.008,0.023l-0.004 0.009 0.042 0.058 0.055 -0.197c-0.016,-0.001 -0.029,0.003 -0.039,0.012 -0.01,0.01 -0.019,0.025 -0.028,0.046zm0.009 0.504l-0.038 -0.053 -0.047 0.165c0.019,0.003 0.034,-0.003 0.045,-0.018 0.01,-0.014 0.021,-0.038 0.033,-0.072l0.007 -0.022zm0.988 -0.395l0.196 0.089 -0.357 0.788 -0.37 0.077 -0.187 -0.328 0.282 -0.624 0.003 -0.198 0.268 0.121 -0.313 0.692 0.056 0.096 0.109 -0.022 0.313 -0.691zm0.654 0.502l-0.092 -0.058 -0.375 0.652 0.093 0.056 -0.075 0.131 -0.347 -0.2 0.012 -0.149 0.127 0.061 0.379 -0.658 -0.069 -0.036 0.017 -0.157 0.403 0.231 -0.073 0.127zm0.284 0.19l0 -0.001 -0.322 0.501c-0.029,0.046 -0.038,0.079 -0.028,0.1 0.009,0.018 0.035,0.041 0.077,0.068 0.01,0.006 0.021,0.013 0.033,0.02l0.09 0.058 -0.095 0.149 -0.197 -0.126c-0.046,-0.03 -0.079,-0.064 -0.1,-0.103 -0.021,-0.038 -0.03,-0.078 -0.027,-0.12 0.002,-0.041 0.015,-0.08 0.039,-0.117l0.436 -0.681 0.414 0.265 -0.098 0.152 -0.222 -0.165zm0.868 0.423l-0.112 0.143 -0.124 -0.12 -0.546 0.695 -0.169 -0.133 0.549 -0.697 -0.157 -0.096 0.112 -0.143 0.447 0.351zm-0.131 0.854l0.13 -0.136 0.183 0.196 0.143 0.115 -0.13 0.136 -0.122 -0.169 -0.204 -0.142zm1.089 0.71l0.014 0.314 -0.156 0.122c-0.049,0.039 -0.103,0.056 -0.164,0.052 -0.06,-0.005 -0.116,-0.034 -0.167,-0.089l-0.04 0.036 -0.067 -0.085 0.044 -0.03 -0.145 -0.184 0.294 -0.231 0.096 0.143 -0.132 0.13c0.011,0.014 0.021,0.027 0.03,0.039l0.002 0.003 0.179 -0.126 -0.01 -0.318 0.177 -0.139c0.049,-0.039 0.103,-0.056 0.163,-0.052 0.061,0.005 0.116,0.034 0.167,0.089l0.038 -0.033 0.066 0.084 -0.04 0.028 0.139 0.177 -0.336 0.232 -0.096 -0.143 0.171 -0.135 -0.022 -0.029 -0.205 0.145zm0.062 -0.193c-0.005,0.003 -0.012,0.008 -0.019,0.014 -0.008,0.005 -0.015,0.011 -0.022,0.017 -0.008,0.006 -0.014,0.011 -0.02,0.015l-0.008 0.005 0.003 0.072 0.154 -0.135c-0.013,-0.01 -0.026,-0.013 -0.039,-0.011 -0.013,0.002 -0.03,0.01 -0.049,0.023zm-0.268 0.427l-0.003 -0.066 -0.129 0.113c0.014,0.013 0.03,0.016 0.047,0.009 0.016,-0.006 0.039,-0.02 0.067,-0.042l0.018 -0.014zm1.047 0.203l0.116 0.181 -0.729 0.467 -0.352 -0.137 0.022 -0.377 0.577 -0.369 0.11 -0.165 0.158 0.248 -0.639 0.409 -0.005 0.111 0.103 0.042 0.639 -0.41zm0.265 0.732l-0.05 -0.096 -0.653 0.376 0.052 0.095 -0.13 0.075 -0.2 -0.347 0.087 -0.123 0.079 0.117 0.658 -0.379 -0.042 -0.065 0.094 -0.127 0.232 0.402 -0.127 0.072zm0.152 0.356l-0.001 0 -0.542 0.245c-0.049,0.022 -0.075,0.045 -0.078,0.068 -0.002,0.02 0.007,0.053 0.028,0.099 0.005,0.011 0.01,0.022 0.016,0.034l0.044 0.098 -0.161 0.073 -0.096 -0.213c-0.022,-0.049 -0.032,-0.096 -0.028,-0.14 0.004,-0.044 0.018,-0.082 0.042,-0.116 0.025,-0.033 0.057,-0.059 0.097,-0.077l0.737 -0.333 0.203 0.448 -0.165 0.074 -0.096 -0.26zm0.501 0.829l-0.171 0.058 -0.038 -0.168 -0.838 0.283 -0.068 -0.203 0.84 -0.285 -0.078 -0.165 0.171 -0.058 0.182 0.538zm-0.569 0.643l0.183 -0.043 0.045 0.265 0.056 0.174 -0.183 0.042 -0.009 -0.208 -0.092 -0.23zm0.531 1.194l-0.163 0.269 -0.198 0.015c-0.062,0.005 -0.117,-0.011 -0.164,-0.049 -0.048,-0.037 -0.078,-0.092 -0.09,-0.166l-0.053 0.007 -0.008 -0.107 0.052 -0.001 -0.017 -0.233 0.372 -0.029 0.001 0.172 -0.182 0.035c0.001,0.018 0.002,0.034 0.003,0.048l0 0.004 0.219 -0.004 0.168 -0.271 0.225 -0.017c0.062,-0.005 0.117,0.011 0.164,0.049 0.048,0.037 0.078,0.092 0.09,0.166l0.049 -0.006 0.008 0.107 -0.048 0.001 0.017 0.224 -0.409 0.005 -0.001 -0.172 0.218 -0.016 -0.002 -0.037 -0.251 0.006zm0.159 -0.126c-0.007,0 -0.014,0.001 -0.024,0.001 -0.009,0.001 -0.018,0.001 -0.028,0.002 -0.009,0.001 -0.017,0.001 -0.024,0.002l-0.01 0 -0.037 0.061 0.203 -0.027c-0.006,-0.015 -0.015,-0.025 -0.027,-0.031 -0.012,-0.005 -0.03,-0.008 -0.053,-0.008zm-0.46 0.206l0.034 -0.056 -0.17 0.022c0.004,0.018 0.016,0.029 0.034,0.034 0.017,0.004 0.043,0.005 0.079,0.002l0.023 -0.002zm0.769 0.704l0.006 0.215 -0.866 0.022 -0.23 -0.3 0.215 -0.311 0.684 -0.018 0.179 -0.083 0.008 0.294 -0.759 0.019 -0.062 0.092 0.067 0.089 0.758 -0.019zm-0.182 0.81l0.013 -0.107 -0.751 -0.058 -0.01 0.108 -0.15 -0.011 0.03 -0.399 0.14 -0.053 0 0.141 0.757 0.057 0.002 -0.077 0.15 -0.052 -0.035 0.462 -0.146 -0.011zm-0.054 0.34l0 0 -0.59 -0.075c-0.054,-0.007 -0.088,-0.001 -0.103,0.017 -0.012,0.015 -0.021,0.048 -0.028,0.099 -0.001,0.011 -0.003,0.024 -0.004,0.037l-0.013 0.107 -0.176 -0.022 0.03 -0.232c0.006,-0.054 0.023,-0.099 0.049,-0.134 0.026,-0.036 0.058,-0.061 0.097,-0.077 0.038,-0.015 0.079,-0.02 0.122,-0.015l0.803 0.102 -0.062 0.488 -0.18 -0.023 0.055 -0.272zm-0.021 0.969l-0.176 -0.041 0.055 -0.163 -0.861 -0.199 0.049 -0.209 0.864 0.199 0.021 -0.182 0.176 0.041 -0.128 0.554zm-0.834 0.244l0.178 0.06 -0.101 0.248 -0.043 0.179 -0.178 -0.061 0.102 -0.181 0.042 -0.245zm-0.192 1.286l-0.279 0.144 -0.177 -0.09c-0.055,-0.029 -0.093,-0.071 -0.114,-0.128 -0.022,-0.056 -0.018,-0.119 0.01,-0.189l-0.049 -0.021 0.049 -0.096 0.045 0.027 0.107 -0.208 0.332 0.17 -0.089 0.147 -0.173 -0.065c-0.008,0.015 -0.016,0.03 -0.023,0.042l-0.002 0.004 0.189 0.11 0.285 -0.143 0.2 0.103c0.056,0.028 0.095,0.071 0.115,0.127 0.022,0.057 0.018,0.12 -0.01,0.189l0.045 0.02 -0.049 0.096 -0.041 -0.025 -0.103 0.201 -0.351 -0.209 0.089 -0.147 0.194 0.099 0.017 -0.032 -0.217 -0.126zm0.201 -0.025c-0.005,-0.003 -0.012,-0.007 -0.02,-0.011 -0.008,-0.005 -0.016,-0.009 -0.025,-0.013 -0.008,-0.004 -0.016,-0.008 -0.022,-0.011l-0.008 -0.005 -0.064 0.033 0.187 0.082c0.003,-0.016 0.001,-0.029 -0.006,-0.04 -0.008,-0.011 -0.022,-0.022 -0.042,-0.035zm-0.499 -0.064l0.058 -0.03 -0.157 -0.07c-0.005,0.018 -0.001,0.033 0.012,0.047 0.012,0.012 0.034,0.026 0.066,0.043l0.021 0.01zm0.25 1.035l-0.116 0.181 -0.729 -0.467 -0.023 -0.378 0.353 -0.136 0.576 0.369 0.195 0.031 -0.158 0.248 -0.639 -0.41 -0.103 0.042 0.005 0.111 0.639 0.409zm-0.588 0.575l0.07 -0.082 -0.592 -0.465 -0.068 0.084 -0.119 -0.093 0.247 -0.315 0.147 0.034 -0.079 0.117 0.597 0.469 0.045 -0.063 0.153 0.04 -0.286 0.365 -0.115 -0.091zm-0.228 0.255l0 0 -0.449 -0.39c-0.041,-0.036 -0.073,-0.05 -0.095,-0.042 -0.019,0.006 -0.045,0.028 -0.078,0.066 -0.008,0.009 -0.016,0.019 -0.025,0.03l-0.07 0.081 -0.134 -0.116 0.153 -0.177c0.036,-0.041 0.074,-0.069 0.116,-0.084 0.041,-0.015 0.082,-0.018 0.123,-0.01 0.04,0.008 0.077,0.027 0.11,0.055l0.612 0.53 -0.322 0.372 -0.137 -0.119 0.196 -0.196zm-0.541 0.799l-0.125 -0.131 0.135 -0.105 -0.609 -0.64 0.155 -0.148 0.612 0.642 0.117 -0.141 0.125 0.131 -0.41 0.392zm-0.826 -0.25l0.116 0.148 -0.22 0.153 -0.134 0.125 -0.116 -0.147 0.185 -0.097 0.169 -0.182zm-0.857 0.979l-0.313 -0.031 -0.099 -0.172c-0.031,-0.054 -0.04,-0.11 -0.027,-0.169 0.013,-0.059 0.051,-0.11 0.112,-0.153l-0.029 -0.045 0.093 -0.054 0.024 0.047 0.202 -0.116 0.186 0.324 -0.155 0.074 -0.11 -0.149c-0.015,0.009 -0.029,0.017 -0.042,0.024l-0.003 0.002 0.098 0.195 0.317 0.036 0.112 0.195c0.031,0.054 0.041,0.11 0.027,0.169 -0.013,0.059 -0.05,0.11 -0.111,0.153l0.027 0.041 -0.093 0.054 -0.022 -0.044 -0.195 0.113 -0.181 -0.367 0.155 -0.074 0.109 0.189 0.032 -0.018 -0.114 -0.224zm0.182 0.089c-0.002,-0.006 -0.006,-0.012 -0.011,-0.021 -0.004,-0.008 -0.009,-0.016 -0.013,-0.024 -0.005,-0.008 -0.009,-0.015 -0.013,-0.021l-0.004 -0.009 -0.071 -0.007 0.112 0.171c0.011,-0.012 0.017,-0.024 0.016,-0.037 -0.001,-0.013 -0.006,-0.031 -0.016,-0.052zm-0.384 -0.326l0.066 0.007 -0.094 -0.145c-0.014,0.012 -0.019,0.028 -0.016,0.046 0.004,0.017 0.015,0.041 0.033,0.072l0.011 0.02zm-0.352 1.009l-0.196 0.089 -0.356 -0.789 0.186 -0.329 0.37 0.077 0.282 0.624 0.147 0.132 -0.268 0.121 -0.312 -0.691 -0.109 -0.021 -0.057 0.096 0.313 0.691zm-0.763 0.157l0.102 -0.035 -0.276 -0.701 -0.101 0.038 -0.056 -0.14 0.373 -0.147 0.109 0.103 -0.127 0.061 0.278 0.707 0.07 -0.032 0.113 0.112 -0.431 0.17 -0.054 -0.136zm-0.374 0.102l0 0 -0.162 -0.573c-0.015,-0.052 -0.034,-0.081 -0.056,-0.087 -0.019,-0.005 -0.053,-0.001 -0.102,0.013 -0.011,0.003 -0.024,0.007 -0.037,0.011l-0.103 0.029 -0.048 -0.17 0.225 -0.064c0.052,-0.015 0.099,-0.017 0.142,-0.007 0.043,0.01 0.079,0.03 0.109,0.059 0.029,0.029 0.05,0.065 0.062,0.107l0.221 0.778 -0.473 0.135 -0.05 -0.175 0.272 -0.056zm-0.841 0.377l-0.041 -0.177 0.171 -0.021 -0.199 -0.861 0.209 -0.049 0.2 0.865 0.172 -0.062 0.041 0.177 -0.553 0.128zm-0.604 -0.652l0.014 0.188 -0.268 0.004 -0.181 0.03 -0.014 -0.188 0.207 0.023 0.242 -0.057zm-0.947 -16.957c2.565,0 4.888,1.04 6.569,2.721 1.681,1.681 2.72,4.004 2.72,6.569 0,2.565 -1.039,4.888 -2.72,6.569 -1.681,1.681 -4.004,2.72 -6.569,2.72 -2.565,0 -4.888,-1.039 -6.569,-2.72 -1.681,-1.681 -2.721,-4.004 -2.721,-6.569 0,-2.565 1.04,-4.888 2.721,-6.569 1.681,-1.681 4.004,-2.721 6.569,-2.721zm6.332 2.958c-1.621,-1.62 -3.859,-2.622 -6.332,-2.622 -2.473,0 -4.711,1.002 -6.332,2.622 -1.62,1.621 -2.622,3.859 -2.622,6.332 0,2.473 1.002,4.711 2.622,6.332 1.621,1.62 3.859,2.622 6.332,2.622 2.473,0 4.711,-1.002 6.332,-2.622 1.62,-1.621 2.622,-3.859 2.622,-6.332 0,-2.473 -1.002,-4.711 -2.622,-6.332zm-7.388 -3.704c-0.185,0.019 -0.373,0.043 -0.557,0.073l0.018 0.111c0.182,-0.03 0.367,-0.054 0.551,-0.073l-0.012 -0.111zm1.056 -0.055c-0.166,0.001 -0.33,0.004 -0.496,0.012l0.006 0.112c0.348,-0.017 0.697,-0.016 1.045,0.003l0.006 -0.111c-0.187,-0.011 -0.373,-0.015 -0.561,-0.016zm-2.165 0.233c-0.182,0.04 -0.366,0.084 -0.545,0.135l0.03 0.108c0.179,-0.05 0.358,-0.094 0.54,-0.134l-0.025 -0.109zm-1.082 0.301c-0.177,0.06 -0.353,0.125 -0.526,0.195l0.042 0.104c0.172,-0.07 0.345,-0.134 0.521,-0.193l-0.037 -0.106zm-1.041 0.42c-0.17,0.08 -0.336,0.164 -0.501,0.253l0.053 0.098c0.163,-0.088 0.328,-0.171 0.496,-0.25l-0.048 -0.101zm-0.988 0.534c-0.16,0.098 -0.316,0.2 -0.47,0.307l0.064 0.091c0.149,-0.106 0.309,-0.207 0.465,-0.303l-0.059 -0.095zm-0.923 0.64c-0.147,0.115 -0.292,0.234 -0.433,0.357l0.074 0.084c0.14,-0.122 0.282,-0.239 0.428,-0.353l-0.069 -0.088zm-0.845 0.738c-0.135,0.129 -0.266,0.266 -0.392,0.403l0.083 0.075c0.124,-0.135 0.254,-0.271 0.387,-0.398l-0.078 -0.08zm-0.76 0.827c-0.119,0.146 -0.233,0.293 -0.344,0.444l0.09 0.066c0.11,-0.15 0.223,-0.295 0.341,-0.439l-0.087 -0.071zm-0.663 0.906c-0.101,0.16 -0.199,0.316 -0.293,0.48l0.097 0.055c0.094,-0.162 0.19,-0.316 0.29,-0.474l-0.094 -0.061zm-0.559 0.975c-0.084,0.167 -0.163,0.337 -0.237,0.509l0.102 0.044c0.074,-0.17 0.152,-0.338 0.235,-0.504l-0.1 -0.049zm-0.446 1.03c-0.065,0.176 -0.124,0.353 -0.179,0.532l0.107 0.033c0.054,-0.177 0.113,-0.353 0.177,-0.527l-0.105 -0.038zm-0.328 1.074c-0.045,0.182 -0.084,0.364 -0.119,0.549l0.11 0.02c0.034,-0.182 0.073,-0.363 0.117,-0.543l-0.108 -0.026zm-0.207 1.104c-0.023,0.186 -0.042,0.371 -0.056,0.558l0.111 0.008c0.014,-0.185 0.033,-0.369 0.056,-0.552l-0.111 -0.014zm-0.082 1.12c-0.003,0.187 -0.002,0.373 0.005,0.561l0.112 -0.004c-0.007,-0.186 -0.008,-0.37 -0.005,-0.556l-0.112 -0.001zm0.041 1.122c0.017,0.185 0.038,0.373 0.067,0.557l0.11 -0.017c-0.028,-0.182 -0.049,-0.367 -0.066,-0.551l-0.111 0.011zm0.164 1.11c0.038,0.183 0.08,0.368 0.129,0.547l0.108 -0.029c-0.048,-0.179 -0.09,-0.359 -0.127,-0.541l-0.11 0.023zm0.288 1.086c0.058,0.178 0.12,0.355 0.189,0.529l0.104 -0.041c-0.068,-0.172 -0.13,-0.348 -0.187,-0.523l-0.106 0.035zm0.407 1.046c0.077,0.171 0.16,0.339 0.247,0.505l0.099 -0.052c-0.086,-0.165 -0.168,-0.33 -0.245,-0.499l-0.101 0.046zm0.521 0.995c0.095,0.159 0.197,0.321 0.302,0.474l0.092 -0.063c-0.103,-0.155 -0.203,-0.309 -0.298,-0.469l-0.096 0.058zm0.629 0.93c0.114,0.149 0.231,0.295 0.352,0.438l0.085 -0.073c-0.12,-0.141 -0.236,-0.285 -0.348,-0.433l-0.089 0.068zm0.728 0.855c0.128,0.136 0.262,0.268 0.398,0.396l0.077 -0.082c-0.135,-0.126 -0.268,-0.257 -0.394,-0.391l-0.081 0.077zm0.818 0.77c0.143,0.12 0.29,0.236 0.44,0.349l0.066 -0.089c-0.148,-0.112 -0.293,-0.227 -0.434,-0.346l-0.072 0.086zm0.898 0.674c0.156,0.103 0.314,0.204 0.476,0.299l0.056 -0.097c-0.16,-0.094 -0.316,-0.193 -0.47,-0.295l-0.062 0.093zm0.967 0.57c0.167,0.086 0.335,0.167 0.506,0.244l0.045 -0.102c-0.169,-0.076 -0.335,-0.156 -0.5,-0.241l-0.051 0.099zm1.025 0.459c0.175,0.067 0.351,0.129 0.53,0.186l0.034 -0.106c-0.177,-0.057 -0.351,-0.118 -0.524,-0.184l-0.04 0.104zm1.069 0.342c0.182,0.047 0.364,0.088 0.548,0.125l0.022 -0.109c-0.182,-0.037 -0.362,-0.078 -0.542,-0.124l-0.028 0.108zm1.102 0.22c0.185,0.026 0.371,0.047 0.558,0.063l0.009 -0.111c-0.185,-0.016 -0.368,-0.037 -0.552,-0.063l-0.015 0.111zm1.119 0.096c0.187,0.005 0.373,0.006 0.561,0.002l-0.003 -0.112c-0.186,0.004 -0.37,0.003 -0.556,-0.002l-0.002 0.112zm1.122 -0.027c0.187,-0.015 0.373,-0.035 0.559,-0.06l-0.016 -0.111c-0.183,0.025 -0.368,0.045 -0.552,0.059l0.009 0.112zm1.113 -0.151c0.183,-0.036 0.368,-0.075 0.548,-0.122l-0.028 -0.108c-0.179,0.045 -0.36,0.085 -0.542,0.12l0.022 0.11zm1.089 -0.274c0.178,-0.056 0.356,-0.116 0.531,-0.183l-0.04 -0.104c-0.172,0.066 -0.349,0.125 -0.525,0.18l0.034 0.107zm1.051 -0.394c0.172,-0.076 0.34,-0.156 0.508,-0.241l-0.051 -0.099c-0.165,0.084 -0.333,0.163 -0.502,0.237l0.045 0.103zm1.001 -0.51c0.162,-0.093 0.321,-0.193 0.477,-0.295l-0.061 -0.093c-0.155,0.101 -0.312,0.2 -0.472,0.292l0.056 0.096zm0.938 -0.617c0.151,-0.112 0.297,-0.227 0.442,-0.347l-0.072 -0.085c-0.142,0.118 -0.288,0.232 -0.437,0.343l0.067 0.089zm0.864 -0.717c0.136,-0.127 0.273,-0.259 0.401,-0.394l-0.081 -0.077c-0.125,0.133 -0.263,0.265 -0.396,0.389l0.076 0.082zm0.779 -0.809c0.122,-0.142 0.24,-0.286 0.355,-0.435l-0.089 -0.068c-0.113,0.147 -0.23,0.29 -0.351,0.431l0.085 0.072zm0.685 -0.889c0.106,-0.154 0.208,-0.313 0.305,-0.472l-0.096 -0.058c-0.096,0.158 -0.196,0.315 -0.301,0.467l0.092 0.063zm0.583 -0.96c0.088,-0.166 0.171,-0.333 0.25,-0.503l-0.102 -0.047c-0.078,0.168 -0.16,0.334 -0.247,0.497l0.099 0.053zm0.471 -1.019c0.07,-0.175 0.133,-0.35 0.193,-0.528l-0.106 -0.035c-0.059,0.176 -0.122,0.349 -0.191,0.522l0.104 0.041zm0.355 -1.066c0.049,-0.181 0.093,-0.362 0.132,-0.546l-0.109 -0.023c-0.039,0.182 -0.082,0.361 -0.131,0.54l0.108 0.029zm0.234 -1.098c0.028,-0.186 0.052,-0.371 0.07,-0.558l-0.111 -0.01c-0.019,0.185 -0.042,0.367 -0.07,0.551l0.111 0.017zm0.109 -1.118c0.008,-0.187 0.011,-0.373 0.009,-0.561l-0.112 0.001c0.002,0.186 -0.001,0.37 -0.008,0.556l0.111 0.004zm-0.013 -1.122c-0.013,-0.187 -0.03,-0.374 -0.053,-0.56l-0.111 0.014c0.023,0.184 0.04,0.369 0.052,0.553l0.112 -0.007zm-0.137 -1.115c-0.034,-0.184 -0.072,-0.368 -0.115,-0.55l-0.109 0.027c0.044,0.179 0.081,0.362 0.114,0.543l0.11 -0.02zm-0.261 -1.092c-0.054,-0.179 -0.112,-0.358 -0.176,-0.534l-0.105 0.039c0.064,0.173 0.121,0.35 0.174,0.527l0.107 -0.032zm-0.381 -1.057c-0.074,-0.172 -0.152,-0.342 -0.234,-0.51l-0.1 0.05c0.082,0.166 0.159,0.334 0.231,0.505l0.103 -0.045zm-0.497 -1.006c-0.092,-0.164 -0.189,-0.324 -0.29,-0.482l-0.094 0.061c0.1,0.156 0.196,0.314 0.287,0.476l0.097 -0.055zm-0.606 -0.946c-0.11,-0.152 -0.223,-0.301 -0.341,-0.446l-0.087 0.07c0.117,0.145 0.229,0.291 0.338,0.442l0.09 -0.066zm-0.706 -0.873c-0.127,-0.139 -0.256,-0.272 -0.389,-0.405l-0.078 0.08c0.131,0.131 0.259,0.263 0.384,0.401l0.083 -0.076zm-0.799 -0.789c-0.141,-0.124 -0.284,-0.243 -0.431,-0.36l-0.069 0.088c0.145,0.115 0.287,0.234 0.426,0.356l0.074 -0.084zm-0.881 -0.696c-0.155,-0.108 -0.31,-0.209 -0.469,-0.31l-0.058 0.095c0.157,0.098 0.311,0.201 0.462,0.307l0.065 -0.092zm-0.953 -0.594c-0.165,-0.09 -0.331,-0.175 -0.5,-0.256l-0.048 0.101c0.167,0.08 0.332,0.164 0.494,0.253l0.054 -0.098zm-1.013 -0.484c-0.174,-0.071 -0.349,-0.137 -0.526,-0.199l-0.036 0.106c0.175,0.061 0.348,0.126 0.519,0.196l0.043 -0.103zm-1.061 -0.368c-0.181,-0.052 -0.362,-0.097 -0.544,-0.139l-0.025 0.109c0.181,0.041 0.36,0.086 0.538,0.137l0.031 -0.107zm-1.096 -0.247c-0.185,-0.031 -0.369,-0.056 -0.556,-0.077l-0.012 0.111c0.184,0.02 0.367,0.046 0.55,0.076l0.018 -0.11zm5.964 2.311c-1.955,-1.956 -4.657,-3.166 -7.641,-3.166 -2.984,0 -5.686,1.21 -7.641,3.166 -1.956,1.955 -3.166,4.657 -3.166,7.641 0,2.984 1.21,5.686 3.166,7.641 1.955,1.956 4.657,3.165 7.641,3.165 2.984,0 5.686,-1.209 7.641,-3.165 1.956,-1.955 3.165,-4.657 3.165,-7.641 0,-2.984 -1.209,-5.686 -3.165,-7.641z"/>
   <path class="fill" d="M8.54 6.564l0 1.172c0,0.336 -0.017,0.612 -0.017,0.948l0.034 -0.121 0.069 0c0,0.264 -0.103,0.16 -0.103,0.259 0,0.389 -0.039,1.098 0.01,1.42 0.046,0.308 -0.01,1.092 0.051,1.499 0.023,0.15 -0.012,0.335 0.029,0.488 0.022,0.081 0.164,0.141 0.227,0.204 0.074,0.075 0.234,0.252 0.234,0.369l0 0.155c-0.089,0 -0.165,0.029 -0.241,0.069 -0.038,-0.097 0.064,0.029 -0.001,-0.083 -0.023,-0.039 -0.083,-0.075 -0.118,-0.109 -0.051,-0.051 -0.091,-0.077 -0.174,-0.084 0.027,0.115 0.041,0.022 0.052,0.121 -0.074,-0.008 -0.076,-0.043 -0.116,-0.091 -0.034,-0.043 -0.06,-0.072 -0.095,-0.112l-0.139 -0.171c-0.047,-0.055 0.021,-0.012 -0.064,-0.057 0.006,0.068 0.025,0.071 0.069,0.121 0.053,0.061 0.131,0.12 0.138,0.207l0.052 0c0.01,0.097 0.148,0.156 0.202,0.245 0.049,0.08 0.048,0.055 0.142,0.048 -0.042,0.182 -0.121,0.081 -0.121,0.448 -0.043,0.01 -0.039,0.008 -0.07,0.032l-0.026 0.026c-0.021,0.026 -0.014,0.008 -0.024,0.045 0.062,0 0.086,-0.006 0.115,-0.057 0.001,-0.002 0.003,-0.008 0.005,-0.012l0.001 0.069c-0.004,0.028 0.015,0.112 -0.001,0.138 -0.052,0.088 -0.081,-0.014 -0.172,0.12 0.053,0.002 0.063,0.008 0.104,0.018l0 0.051 -0.068 0.053c-0.002,0.003 -0.005,0.007 -0.007,0.01 -0.002,0.003 -0.006,0.007 -0.008,0.01 -0.047,0.055 -0.222,0.101 -0.216,0.169 0.005,0.061 0.073,0.025 0.109,0.017 -0.065,0.096 -0.075,0.06 -0.172,0.052 0.006,0.075 0.038,0.066 -0.052,0.068l0.052 0.087c-0.053,0.001 -0.063,0.007 -0.104,0.017 0.044,0.027 0.059,-0.016 0.109,0.045l0.029 0.041c-0.018,0.025 -0.027,0.029 -0.04,0.046 -0.014,0.019 -0.022,0.039 -0.039,0.065 -0.028,0.043 -0.017,0.023 -0.048,0.055l-0.045 0.058c0.05,-0.013 0.058,-0.031 0.113,-0.054l0.027 -0.01c0.056,-0.029 0.034,-0.039 0.118,-0.039 0.106,0 0.029,0.033 0.155,0 0.008,0.086 0.052,0.114 0.092,0.185 0.012,0.023 0.003,0.009 0.019,0.033l0.053 0.047c0.02,0.01 -0.002,-0.01 0.026,0.012l0.037 0.047c0.024,0.018 -0.037,0.018 0.066,0.02 0,0.097 -0.01,0.079 0.063,0.144 0.032,0.029 0.036,0.049 0.075,0.063 -0.017,0.066 -0.034,0.039 -0.051,0.086l0.103 -0.017c-0.002,0.106 -0.011,0.042 -0.033,0.1l-0.065 0.236c-0.009,0.033 -0.003,-0.021 -0.007,0.022l0.001 0.017c0.009,0.034 -0.006,0.004 0.018,0.021l0.061 -0.092c0,0 -0.009,0.046 -0.01,0.058l0.052 0 0 -0.052c0.088,-0.007 0.023,-0.013 0.104,-0.034 0.051,0.038 0.081,0.075 0.086,0.138 -0.041,0.016 -0.025,-0.001 -0.042,0.044 -0.015,0.038 -0.009,0.033 -0.01,0.076l0.012 -0.022c0.045,-0.082 0.074,-0.138 0.074,-0.236 -0.036,-0.013 0.005,0.051 -0.038,-0.002 -0.023,-0.029 -0.014,-0.049 -0.014,-0.102l-0.068 0.086c0,-0.061 0.001,-0.072 0.02,-0.116 0.046,-0.103 0.157,-0.097 0.186,0.013 0.032,-0.023 0.001,-0.003 0.027,-0.025l0.094 -0.061c0.055,0.037 0.012,0.028 0.086,0.034l0 0.052c0.073,0.006 0.048,0.008 0.09,0.049l0.032 0.028c0.002,0.001 0.007,0.003 0.009,0.003l0.024 0.006c-0.023,0.049 -0.012,0.05 0,0.104l0.054 0.011c0.055,0.023 0.014,0.05 0.101,0.058 -0.001,-0.005 -0.005,-0.015 -0.005,-0.013 -0.001,0.003 -0.005,-0.009 -0.006,-0.012 -0.02,-0.062 0.004,-0.023 0.011,-0.113 -0.057,-0.031 -0.048,-0.013 -0.086,-0.069 0.066,0.007 0.033,0.009 0.051,0.018l0.052 0.033c-0.009,-0.041 -0.018,-0.069 -0.034,-0.103 0.051,-0.013 0.028,-0.007 0.069,-0.034 -0.001,0.049 -0.01,0.064 -0.003,0.081 0.013,0.03 -0.001,0.005 0.021,0.022 0.03,0.021 0.063,0.032 0.075,0.059l0.028 0.079 0.051 0c0.007,-0.08 -0.018,-0.03 0.035,-0.069 0.031,0.047 0.032,0.063 0.103,0.069 -0.01,0.119 -0.007,-0.012 -0.024,0.052 -0.006,0.026 0.021,0.064 0.024,0.068 0.018,-0.066 0.023,-0.067 0.104,-0.068l0 0.086c-0.049,0.005 -0.022,0.003 -0.041,0.011l-0.034 0.017c-0.041,0.029 -0.032,0.016 -0.046,0.075 0.068,0.094 0.051,0.017 0.121,0.017 0.046,0 0.033,0.011 0.085,0.035 0.062,0.028 0.052,0.002 0.07,0.069 0.045,-0.03 0.035,-0.009 0.051,-0.069 0.071,0.016 0.132,0.004 0.155,0.069 0.04,-0.027 0.077,-0.081 0.104,-0.121 -0.02,-0.084 -0.049,-0.135 0.069,-0.138 -0.049,-0.066 -0.031,-0.024 -0.121,-0.017l0 -0.121c0.056,0.012 0.089,0 0.161,0.011 0.175,0.027 0.033,0.045 0.149,0.076 -0.033,0.05 -0.035,0.023 -0.051,0.086l0.051 0 0 -0.052c0.071,0.006 0.039,0.017 0.104,0.017 0.059,0 0.024,-0.03 0.103,-0.051 -0.008,-0.091 -0.032,-0.056 -0.013,-0.133 0.017,-0.067 0.014,-0.099 0.013,-0.178 -0.003,-0.241 0.118,-0.395 -0.009,-0.386l-0.094 0.025 0 -0.104 -0.052 0c-0.021,0.057 0.022,0.013 -0.052,0.052 0,-0.095 0.004,-0.127 0.035,-0.19 0.065,0.015 0.165,0.04 0.229,0.064 0.237,0.089 0.305,0.033 0.529,0.022 0.204,-0.009 0.412,-0.095 0.6,-0.175 0.213,-0.09 0.409,-0.222 0.599,-0.349l0.307 -0.244c0.151,-0.137 0.206,-0.149 0.302,-0.353l0.189 -0.5c0.015,-0.062 0.019,-0.069 0.037,-0.119l0.12 -0.844c0,-0.185 -0.035,-0.321 -0.051,-0.483 -0.028,-0.273 -0.165,-0.543 -0.317,-0.769l-0.05 -0.071c-0.141,-0.179 -0.218,-0.288 -0.452,-0.151l-0.073 0.049c-0.083,0.065 -0.284,0.287 -0.384,0.287 -0.04,0 -0.101,-0.12 -0.175,-0.169 -0.081,-0.055 -0.151,-0.079 -0.252,-0.092 -0.137,-0.018 -0.437,-0.056 -0.521,-0.169 0.019,-0.069 0.064,-0.079 0.104,-0.138 0.066,0.035 0.056,0.083 0.206,0.086 0.018,-0.043 -0.002,-0.005 0.023,-0.029l0.086 -0.07c0.127,-0.097 0.244,-0.199 0.35,-0.321l0.017 -0.018c0.002,-0.003 0.006,-0.006 0.008,-0.009 0.115,-0.119 0.22,-0.256 0.312,-0.395l0.297 -0.582c0.033,-0.098 0.079,-0.208 0.094,-0.319 0.036,-0.263 0.039,-0.437 0.008,-0.692 -0.018,-0.139 -0.052,-0.247 -0.1,-0.382 -0.153,-0.429 -0.567,-0.943 -0.994,-1.127l-0.245 -0.082c-0.274,-0.063 -2.1,-0.075 -2.544,-0.075 -0.281,0 -0.498,0.034 -0.775,0.034zm1.913 2.24c0,0.439 -0.018,0.82 -0.018,1.258l0.059 -0.044c0.082,-0.075 0.066,-0.101 0.139,-0.1 0.146,0.004 0.183,-0.001 0.276,-0.071 0.065,-0.049 0.127,-0.136 0.176,-0.186 0.018,-0.018 0.026,-0.025 0.044,-0.042 0.115,-0.104 0.268,-0.107 0.409,-0.039 0.006,-0.075 0.16,-0.278 0.212,-0.357 0.002,-0.004 0.004,-0.008 0.006,-0.011 0.002,-0.003 0.005,-0.007 0.007,-0.01 0.067,-0.102 0.179,-0.238 0.122,-0.382l-0.045 -0.076c-0.033,-0.049 -0.068,-0.082 -0.112,-0.112 -0.089,0.021 -0.053,0.045 -0.138,0.052 -0.015,-0.055 -0.017,-0.037 -0.053,-0.068 -0.029,-0.024 -0.043,-0.038 -0.075,-0.063 -0.073,-0.055 -0.081,-0.06 -0.11,-0.149 -0.033,-0.105 -0.068,-0.158 -0.13,-0.248l-0.233 -0.353c-0.159,-0.164 -0.324,-0.188 -0.536,-0.188l0 1.189zm0.12 3.774c-0.037,-0.025 -0.05,-0.039 -0.103,-0.052 -0.027,0.038 -0.003,0.022 -0.052,0.035 0,0.051 0.002,0.105 0,0.156 -0.002,0.055 -0.015,0.294 0.017,0.326 0.078,0.037 0.212,0.04 0.301,0.008l0.234 -0.128c-0.016,-0.066 -0.039,-0.16 -0.079,-0.197l-0.02 -0.015c-0.039,-0.033 -0.043,-0.039 -0.057,-0.098 -0.037,0.02 -0.041,0.022 -0.068,0.051 -0.026,-0.119 0.028,-0.002 0.001,-0.067l-0.156 -0.095c-0.049,0.001 -0.022,0.03 -0.018,0.076zm0.621 -1.309c-0.075,0 -0.124,-0.017 -0.177,-0.032 -0.16,-0.044 -0.143,-0.064 -0.113,0.134 -0.055,0.015 -0.113,0.072 -0.296,0.087 -0.015,-0.055 -0.061,-0.126 -0.104,-0.155 -0.247,0.369 -0.069,0.308 -0.069,0.414l-0.017 0.792c0.031,-0.007 0.052,-0.01 0.085,-0.019 0.032,-0.009 0.022,-0.006 0.039,-0.012 0.039,-0.015 0,-0.06 0.115,0.016 0.115,0.076 0.142,0.053 0.235,0.127 0.058,0.047 0.062,0.065 0.078,0.146 0.02,0.109 0.051,0.121 0.051,0.19 0,0.027 -0.04,0.03 -0.069,0.069 0.112,0.009 0.151,-0.004 0.246,-0.168 0.014,-0.025 0.023,-0.038 0.04,-0.063 0.041,-0.063 0.032,-0.064 0.093,-0.096 -0.029,0.08 -0.008,-0.016 -0.043,0.077 -0.017,0.048 -0.003,0.048 -0.026,0.095 0.125,-0.033 0.114,-0.102 0.256,-0.085 0.06,0.007 0.034,-0.004 0.089,-0.018 -0.045,0.085 -0.004,0.012 -0.159,0.117 -0.213,0.144 -0.178,0.085 -0.36,0.191 -0.017,0.01 -0.03,0.015 -0.045,0.024 -0.003,0.002 -0.008,0.004 -0.011,0.006 -0.003,0.002 -0.007,0.005 -0.01,0.007 -0.102,0.074 -0.003,0.057 -0.104,0.068l0.086 0.035c-0.012,0.053 -0.026,0.093 -0.091,0.097 -0.117,0.008 -0.064,-0.119 -0.265,0.064 -0.027,0.025 -0.009,0 -0.025,0.026 -0.024,0.04 -0.015,0.028 -0.015,0.088 0.066,0.008 0.033,0.009 0.05,0.019l0.053 0.033c0.026,-0.071 0.264,-0.101 0.274,-0.1 0.09,0.003 0.285,0.024 0.334,0.028 0.19,0.014 0.212,0.015 0.324,-0.065l0.185 -0.211c0.176,-0.322 0.154,-0.618 0.215,-0.973 0.01,-0.055 0.008,-0.103 0.013,-0.177 0.007,-0.095 0.089,-0.168 -0.057,-0.393l-0.249 -0.285c-0.004,-0.004 -0.013,-0.014 -0.016,-0.018l-0.08 -0.127c-0.013,-0.034 -0.027,-0.105 -0.03,-0.143 -0.035,0.013 -0.017,0.007 -0.043,0.025 -0.102,0.073 -0.17,0.165 -0.387,0.165z"/>
  </g>
 </g>
</svg>
