<?xml version="1.0" encoding="UTF-8"?>
<!DOCTYPE svg PUBLIC "-//W3C//DTD SVG 1.1//EN" "http://www.w3.org/Graphics/SVG/1.1/DTD/svg11.dtd">
<!-- Creator: CorelDRAW 2021 (64-Bit) -->
<svg xmlns="http://www.w3.org/2000/svg" xml:space="preserve" width="87px" height="117px" version="1.1" style="shape-rendering:geometricPrecision; text-rendering:geometricPrecision; image-rendering:optimizeQuality; fill-rule:evenodd; clip-rule:evenodd"
viewBox="0 0 7.17 9.665"
 xmlns:xlink="http://www.w3.org/1999/xlink"
 xmlns:xodm="http://www.corel.com/coreldraw/odm/2003">
 <defs>
  <style type="text/css">
   <![CDATA[
    .fil0 {fill:#A36700;fill-rule:nonzero}
   ]]>
  </style>
 </defs>
 <g id="Layer_x0020_1">
  <metadata id="CorelCorpID_0Corel-Layer"/>
  <path class="fil0" d="M3.584 1.375c1.135,0 2.055,0.92 2.055,2.054 0,1.135 -0.92,2.055 -2.055,2.055 -1.134,0 -2.054,-0.92 -2.054,-2.055 0,-1.134 0.92,-2.054 2.054,-2.054zm-0.982 5.754c-0.072,0 -0.143,-0.011 -0.209,-0.033 -0.359,-0.116 -0.495,-0.466 -0.605,-0.75 -0.031,-0.08 -0.087,-0.225 -0.124,-0.274 -0.022,-0.008 -0.059,-0.014 -0.101,-0.019l-0.765 3.166 1.122 -0.594 0.728 1.04 0.684 -2.833c-0.009,0.007 -0.019,0.013 -0.028,0.019 -0.205,0.13 -0.436,0.278 -0.702,0.278zm2.903 -1.057c-0.037,0.049 -0.092,0.193 -0.123,0.273 -0.11,0.284 -0.247,0.636 -0.606,0.751 -0.067,0.022 -0.137,0.033 -0.209,0.033 -0.195,0 -0.371,-0.079 -0.531,-0.173l0.654 2.709 0.728 -1.04 1.122 0.594 -0.768 -3.18c-0.089,0.005 -0.216,0.015 -0.267,0.033zm1.053 -2.255c-0.165,0.135 -0.336,0.274 -0.394,0.451 -0.06,0.184 -0.002,0.403 0.054,0.618 0.048,0.186 0.103,0.395 0.038,0.484 -0.066,0.091 -0.286,0.104 -0.479,0.115 -0.045,0.003 -0.09,0.006 -0.136,0.009 -0.042,0.003 -0.082,0.007 -0.123,0.013 -0.004,0 -0.008,0.002 -0.012,0.002 -0.036,0.005 -0.07,0.011 -0.105,0.019 -0.004,0.001 -0.008,0.002 -0.013,0.003 -0.034,0.009 -0.067,0.02 -0.099,0.033 -0.007,0.003 -0.014,0.006 -0.021,0.009 -0.031,0.014 -0.062,0.03 -0.09,0.051 -0.153,0.111 -0.234,0.32 -0.313,0.524 -0.07,0.181 -0.15,0.387 -0.26,0.423 -0.011,0.004 -0.024,0.005 -0.038,0.004 -0.005,0 -0.011,-0.001 -0.016,-0.002 -0.01,-0.001 -0.02,-0.002 -0.031,-0.005 -0.006,-0.001 -0.013,-0.003 -0.019,-0.005 -0.011,-0.003 -0.022,-0.007 -0.033,-0.011 -0.007,-0.002 -0.014,-0.005 -0.021,-0.009 -0.012,-0.004 -0.024,-0.009 -0.036,-0.015 -0.007,-0.003 -0.015,-0.007 -0.022,-0.011 -0.013,-0.006 -0.025,-0.012 -0.038,-0.019 -0.007,-0.004 -0.014,-0.007 -0.021,-0.011 -0.013,-0.008 -0.027,-0.016 -0.04,-0.024 -0.006,-0.003 -0.012,-0.007 -0.018,-0.01 -0.015,-0.01 -0.03,-0.019 -0.045,-0.028 -0.004,-0.002 -0.008,-0.004 -0.011,-0.006 -0.018,-0.012 -0.036,-0.023 -0.054,-0.034 -0.1,-0.065 -0.202,-0.13 -0.307,-0.176 0,-0.001 0,-0.001 0,-0.001 -0.089,-0.04 -0.179,-0.066 -0.27,-0.066 -0.199,0 -0.392,0.123 -0.579,0.243 -0.141,0.09 -0.346,0.216 -0.442,0.186 -0.111,-0.036 -0.19,-0.243 -0.261,-0.426 -0.078,-0.201 -0.158,-0.409 -0.312,-0.521 -0.156,-0.113 -0.381,-0.126 -0.598,-0.139 -0.194,-0.011 -0.413,-0.023 -0.48,-0.115 -0.065,-0.089 -0.01,-0.299 0.039,-0.486 0.055,-0.212 0.113,-0.431 0.053,-0.616 -0.058,-0.176 -0.227,-0.315 -0.395,-0.452 -0.153,-0.125 -0.327,-0.266 -0.327,-0.387 0,-0.12 0.173,-0.262 0.327,-0.387 0.166,-0.135 0.337,-0.274 0.395,-0.451 0.06,-0.185 0.002,-0.404 -0.053,-0.616 -0.048,-0.186 -0.104,-0.398 -0.039,-0.487 0.066,-0.091 0.285,-0.104 0.48,-0.115 0.217,-0.012 0.442,-0.025 0.598,-0.138 0.154,-0.112 0.234,-0.321 0.312,-0.523 0.071,-0.182 0.151,-0.389 0.261,-0.424 0.094,-0.032 0.301,0.095 0.442,0.186 0.187,0.119 0.38,0.243 0.579,0.243 0.199,0 0.391,-0.124 0.577,-0.243 0.142,-0.091 0.348,-0.217 0.444,-0.186 0.109,0.035 0.189,0.243 0.26,0.425 0.078,0.202 0.159,0.41 0.312,0.522 0.156,0.113 0.381,0.126 0.601,0.138 0.193,0.011 0.411,0.024 0.477,0.115 0.065,0.09 0.01,0.3 -0.039,0.487 -0.055,0.212 -0.113,0.431 -0.053,0.616 0.058,0.177 0.229,0.317 0.398,0.453 0.152,0.125 0.325,0.266 0.325,0.385 0,0.12 -0.173,0.261 -0.329,0.388zm0.18 -0.994c-0.128,-0.104 -0.273,-0.221 -0.305,-0.32 -0.034,-0.106 0.015,-0.293 0.058,-0.459 0.068,-0.258 0.138,-0.525 -0.006,-0.722 -0.145,-0.2 -0.436,-0.217 -0.697,-0.231 -0.167,-0.01 -0.356,-0.021 -0.444,-0.084 -0.086,-0.063 -0.154,-0.24 -0.214,-0.396 -0.098,-0.253 -0.2,-0.515 -0.438,-0.592 -0.226,-0.071 -0.46,0.075 -0.683,0.218 -0.152,0.097 -0.309,0.198 -0.424,0.198 -0.116,0 -0.28,-0.106 -0.429,-0.201 -0.221,-0.142 -0.453,-0.287 -0.679,-0.215 -0.238,0.077 -0.34,0.338 -0.438,0.592 -0.06,0.156 -0.129,0.333 -0.214,0.396 -0.088,0.063 -0.269,0.073 -0.448,0.084 -0.257,0.014 -0.547,0.031 -0.692,0.23 -0.144,0.198 -0.074,0.466 -0.006,0.725 0.042,0.164 0.091,0.351 0.057,0.457 -0.032,0.099 -0.176,0.216 -0.305,0.321 -0.212,0.173 -0.431,0.351 -0.431,0.605 0,0.255 0.219,0.433 0.432,0.607 0.128,0.103 0.272,0.221 0.304,0.319 0.034,0.106 -0.015,0.293 -0.057,0.458 -0.065,0.246 -0.138,0.525 0.006,0.724 0.144,0.199 0.422,0.215 0.692,0.231 0.168,0.009 0.359,0.02 0.448,0.084 0.086,0.063 0.154,0.24 0.215,0.398 0.098,0.252 0.2,0.512 0.437,0.589 0.04,0.014 0.082,0.02 0.125,0.02 0.187,0 0.374,-0.119 0.557,-0.236 0.146,-0.093 0.31,-0.199 0.426,-0.199 0.099,0 0.229,0.075 0.361,0.158 0.022,0.013 0.043,0.027 0.064,0.041 0.181,0.116 0.369,0.236 0.557,0.236 0.043,0 0.085,-0.006 0.125,-0.02 0.237,-0.076 0.339,-0.337 0.438,-0.591 0.06,-0.156 0.127,-0.333 0.214,-0.396 0.017,-0.012 0.039,-0.022 0.062,-0.03 0.004,-0.002 0.008,-0.003 0.012,-0.005 0.024,-0.008 0.049,-0.014 0.078,-0.02 0.004,-0.001 0.009,-0.002 0.014,-0.002 0.061,-0.011 0.13,-0.018 0.198,-0.022 0.029,-0.002 0.057,-0.004 0.086,-0.005 0.268,-0.016 0.546,-0.032 0.691,-0.231 0.143,-0.198 0.074,-0.464 0.005,-0.724 -0.042,-0.165 -0.091,-0.351 -0.057,-0.458 0.032,-0.098 0.177,-0.216 0.306,-0.321 0.211,-0.173 0.431,-0.351 0.431,-0.605 0,-0.254 -0.219,-0.432 -0.432,-0.606zm-3.324 1.463c0.026,0 0.035,-0.013 0.03,-0.036l-0.355 -1.648c-0.005,-0.021 -0.017,-0.03 -0.037,-0.03l-0.297 0c-0.019,0 -0.032,0.009 -0.036,0.03l-0.356 1.648c-0.006,0.023 0.004,0.036 0.028,0.036l0.229 0c0.019,0 0.03,-0.011 0.034,-0.03l0.058 -0.313 0.381 0 0.06 0.313c0.004,0.019 0.015,0.03 0.034,0.03l0.227 0zm-0.374 -0.591l-0.274 0 0.136 -0.748 0.138 0.748zm1.768 -0.347c0,-0.028 -0.015,-0.043 -0.043,-0.043l-0.452 0 0 -0.452c0,-0.028 -0.015,-0.043 -0.043,-0.043l-0.202 0c-0.027,0 -0.042,0.015 -0.042,0.043l0 0.452 -0.452 0c-0.028,0 -0.043,0.015 -0.043,0.043l0 0.201c0,0.028 0.015,0.043 0.043,0.043l0.452 0 0 0.452c0,0.028 0.015,0.043 0.042,0.043l0.202 0c0.028,0 0.043,-0.015 0.043,-0.043l0 -0.452 0.452 0c0.028,0 0.043,-0.015 0.043,-0.043l0 -0.201z"/>
 </g>
</svg>
