<svg width="39" height="31" viewBox="0 0 39 31" fill="none" xmlns="http://www.w3.org/2000/svg">
<g clip-path="url(#clip0_122_853)">
<path d="M36.5473 22.1889H2.44987V2.50595H36.5473V22.1889ZM24.5417 26.6855H14.4554C14.3894 26.6855 14.3177 26.743 14.2546 26.8609L12.8948 29.2587C12.5965 29.7906 12.5707 30.8745 12.869 30.8745H26.131C26.4265 30.8745 26.4035 29.7906 26.1023 29.2587L24.7454 26.8609C24.6794 26.743 24.6077 26.6855 24.5417 26.6855ZM1.09584 0.125366C0.490548 0.125366 0 0.619883 0 1.2179V25.0985C0 25.6994 0.490548 26.191 1.09584 26.191H37.9042C38.5095 26.191 39 25.6994 39 25.0985V1.2179C39 0.619883 38.5095 0.125366 37.9042 0.125366H1.09584V0.125366Z" fill="#FEFEFE"/>
</g>
<defs>
<clipPath id="clip0_122_853">
<rect width="39" height="31" fill="white"/>
</clipPath>
</defs>
</svg>
