<?xml version="1.0" encoding="UTF-8"?>
<!DOCTYPE svg PUBLIC "-//W3C//DTD SVG 1.1//EN" "http://www.w3.org/Graphics/SVG/1.1/DTD/svg11.dtd">
<!-- Creator: CorelDRAW 2021 (64-Bit) -->
<svg xmlns="http://www.w3.org/2000/svg" xml:space="preserve" width="132px" height="96px" version="1.1" style="shape-rendering:geometricPrecision; text-rendering:geometricPrecision; image-rendering:optimizeQuality; fill-rule:evenodd; clip-rule:evenodd"
viewBox="0 0 15.949 11.509"
 xmlns:xlink="http://www.w3.org/1999/xlink"
 xmlns:xodm="http://www.corel.com/coreldraw/odm/2003">
 <defs>
  <style type="text/css">
   <![CDATA[
    .fil0 {fill:#A36700;fill-rule:nonzero}
   ]]>
  </style>
 </defs>
 <g id="Layer_x0020_1">
  <metadata id="CorelCorpID_0Corel-Layer"/>
  <g id="_2247213891264">
   <path class="fil0" d="M14.264 8.962l-4.442 0 0 -3.898 4.442 0 0 3.898zm-8.108 0l-4.441 0 0 -3.898 4.441 0 0 3.898zm-5.021 -4.177l0 5.815 5.675 0 0 -5.536 2.359 0 0 5.536 5.675 0 0 -5.811c-0.333,-0.045 -0.612,-0.264 -0.743,-0.561 -0.148,0.335 -0.483,0.57 -0.873,0.57 -0.389,0 -0.725,-0.235 -0.872,-0.57 -0.147,0.335 -0.483,0.57 -0.873,0.57 -0.389,0 -0.724,-0.235 -0.872,-0.57 -0.147,0.335 -0.483,0.57 -0.872,0.57 -0.408,0 -0.756,-0.257 -0.892,-0.618 -0.136,0.361 -0.484,0.618 -0.892,0.618 -0.389,0 -0.725,-0.235 -0.872,-0.57 -0.148,0.335 -0.483,0.57 -0.873,0.57 -0.389,0 -0.725,-0.235 -0.872,-0.57 -0.147,0.335 -0.483,0.57 -0.872,0.57 -0.39,0 -0.725,-0.235 -0.873,-0.57 -0.147,0.335 -0.483,0.57 -0.872,0.57 -0.39,0 -0.725,-0.235 -0.873,-0.57 -0.127,0.289 -0.393,0.503 -0.713,0.557z"/>
   <path class="fil0" d="M0.187 3.926c0.041,0.399 0.379,0.712 0.789,0.712 0.41,0 0.748,-0.313 0.788,-0.712l-1.577 0zm0.789 0.872c-0.525,0 -0.953,-0.427 -0.953,-0.952 0,-0.044 0.036,-0.08 0.08,-0.08l1.745 0c0.045,0 0.08,0.036 0.08,0.08 0,0.525 -0.427,0.952 -0.952,0.952z"/>
   <path class="fil0" d="M1.932 3.926c0.041,0.399 0.379,0.712 0.789,0.712 0.41,0 0.748,-0.313 0.788,-0.712l-1.577 0zm0.789 0.872c-0.525,0 -0.953,-0.427 -0.953,-0.952 0,-0.044 0.036,-0.08 0.08,-0.08l1.745 0c0.044,0 0.08,0.036 0.08,0.08 0,0.525 -0.427,0.952 -0.952,0.952z"/>
   <path class="fil0" d="M5.422 3.926c0.04,0.399 0.378,0.712 0.788,0.712 0.41,0 0.749,-0.313 0.789,-0.712l-1.577 0zm0.788 0.872c-0.525,0 -0.952,-0.427 -0.952,-0.952 0,-0.044 0.036,-0.08 0.08,-0.08l1.745 0c0.044,0 0.08,0.036 0.08,0.08 0,0.525 -0.428,0.952 -0.953,0.952z"/>
   <path class="fil0" d="M7.167 3.926c0.04,0.399 0.378,0.712 0.788,0.712 0.41,0 0.748,-0.313 0.789,-0.712l-1.577 0zm0.788 0.872c-0.525,0 -0.952,-0.427 -0.952,-0.952 0,-0.044 0.036,-0.08 0.08,-0.08l1.745 0c0.044,0 0.08,0.036 0.08,0.08 0,0.525 -0.428,0.952 -0.953,0.952z"/>
   <path class="fil0" d="M3.677 3.926c0.04,0.399 0.379,0.712 0.789,0.712 0.409,0 0.748,-0.313 0.788,-0.712l-1.577 0zm0.789 0.872c-0.526,0 -0.953,-0.427 -0.953,-0.952 0,-0.044 0.036,-0.08 0.08,-0.08l1.745 0c0.044,0 0.08,0.036 0.08,0.08 0,0.525 -0.427,0.952 -0.952,0.952z"/>
   <path class="fil0" d="M1.946 3.766l1.575 0 0.396 -3.606 -1.241 0 -0.73 3.606zm1.647 0.16l-1.745 0c-0.024,0 -0.046,-0.011 -0.061,-0.03 -0.016,-0.018 -0.022,-0.043 -0.017,-0.066l0.762 -3.766c0.007,-0.037 0.04,-0.064 0.078,-0.064l1.396 0c0.023,0 0.044,0.01 0.059,0.027 0.015,0.017 0.023,0.039 0.02,0.062l-0.412 3.766c-0.005,0.04 -0.039,0.071 -0.08,0.071z"/>
   <path class="fil0" d="M5.419 3.766l1.588 0 0.115 -3.606 -1.499 0 -0.204 3.606zm1.664 0.16l-1.745 0c-0.021,0 -0.042,-0.009 -0.057,-0.024 -0.015,-0.015 -0.023,-0.036 -0.023,-0.057l0.206 -3.766c0,-0.044 0.036,-0.079 0.08,-0.079l1.663 0c0.022,0 0.043,0.009 0.058,0.025 0.015,0.016 0.023,0.037 0.022,0.059l-0.124 3.766c-0.003,0.043 -0.038,0.076 -0.08,0.076z"/>
   <path class="fil0" d="M3.682 3.766l1.58 0 0.175 -3.606 -1.359 0 -0.396 3.606zm1.656 0.16l-1.745 0c-0.023,0 -0.044,-0.01 -0.06,-0.027 -0.015,-0.017 -0.022,-0.039 -0.019,-0.062l0.412 -3.766c0.005,-0.04 0.039,-0.071 0.08,-0.071l1.515 0c0.022,0 0.043,0.009 0.058,0.025 0.015,0.016 0.023,0.037 0.022,0.059l-0.183 3.766c-0.002,0.042 -0.037,0.076 -0.08,0.076z"/>
   <path class="fil0" d="M0.186 3.766l1.597 0 0.729 -3.606 -1.296 0 -1.03 3.606zm1.662 0.16l-1.768 0c-0.025,0 -0.049,-0.012 -0.064,-0.032 -0.015,-0.02 -0.02,-0.046 -0.013,-0.07l1.075 -3.766c0.01,-0.034 0.041,-0.058 0.077,-0.058l1.455 0c0.024,0 0.047,0.011 0.062,0.029 0.015,0.019 0.021,0.043 0.017,0.067l-0.762 3.766c-0.008,0.037 -0.04,0.064 -0.079,0.064z"/>
   <path class="fil0" d="M14.185 3.926c0.04,0.399 0.378,0.712 0.788,0.712 0.41,0 0.748,-0.313 0.789,-0.712l-1.577 0zm0.788 0.872c-0.525,0 -0.952,-0.427 -0.952,-0.952 0,-0.044 0.036,-0.08 0.08,-0.08l1.745 0c0.044,0 0.08,0.036 0.08,0.08 0,0.525 -0.428,0.952 -0.953,0.952z"/>
   <path class="fil0" d="M12.44 3.926c0.04,0.399 0.378,0.712 0.788,0.712 0.41,0 0.748,-0.313 0.789,-0.712l-1.577 0zm0.788 0.872c-0.525,0 -0.952,-0.427 -0.952,-0.952 0,-0.044 0.036,-0.08 0.08,-0.08l1.745 0c0.044,0 0.08,0.036 0.08,0.08 0,0.525 -0.428,0.952 -0.953,0.952z"/>
   <path class="fil0" d="M8.95 3.926c0.041,0.399 0.379,0.712 0.789,0.712 0.41,0 0.748,-0.313 0.788,-0.712l-1.577 0zm0.789 0.872c-0.525,0 -0.953,-0.427 -0.953,-0.952 0,-0.044 0.036,-0.08 0.08,-0.08l1.745 0c0.044,0 0.08,0.036 0.08,0.08 0,0.525 -0.427,0.952 -0.952,0.952z"/>
   <path class="fil0" d="M10.695 3.926c0.04,0.399 0.379,0.712 0.788,0.712 0.41,0 0.749,-0.313 0.789,-0.712l-1.577 0zm0.788 0.872c-0.525,0 -0.952,-0.427 -0.952,-0.952 0,-0.044 0.036,-0.08 0.08,-0.08l1.745 0c0.044,0 0.08,0.036 0.08,0.08 0,0.525 -0.427,0.952 -0.953,0.952z"/>
   <path class="fil0" d="M12.428 3.766l1.575 0 -0.73 -3.606 -1.241 0 0.396 3.606zm1.673 0.16l-1.745 0c-0.041,0 -0.075,-0.031 -0.08,-0.071l-0.412 -3.766c-0.003,-0.023 0.004,-0.045 0.02,-0.062 0.015,-0.017 0.036,-0.027 0.059,-0.027l1.396 0c0.038,0 0.071,0.027 0.078,0.064l0.762 3.766c0.005,0.023 -0.001,0.048 -0.016,0.066 -0.016,0.019 -0.038,0.03 -0.062,0.03z"/>
   <path class="fil0" d="M8.942 3.766l1.588 0 -0.204 -3.606 -1.499 0 0.115 3.606zm1.669 0.16l-1.745 0c-0.042,0 -0.077,-0.033 -0.08,-0.076l-0.123 -3.766c-0.002,-0.022 0.006,-0.043 0.022,-0.059 0.015,-0.016 0.036,-0.025 0.058,-0.025l1.663 0c0.043,0 0.079,0.035 0.08,0.079l0.205 3.766c0.001,0.021 -0.008,0.042 -0.023,0.057 -0.015,0.015 -0.035,0.024 -0.057,0.024z"/>
   <path class="fil0" d="M10.688 3.766l1.579 0 -0.396 -3.606 -1.359 0 0.176 3.606zm1.668 0.16l-1.745 0c-0.042,0 -0.078,-0.034 -0.08,-0.076l-0.182 -3.766c-0.001,-0.022 0.006,-0.043 0.022,-0.059 0.015,-0.016 0.036,-0.025 0.058,-0.025l1.514 0c0.041,0 0.075,0.031 0.08,0.071l0.413 3.766c0.002,0.023 -0.005,0.045 -0.02,0.062 -0.016,0.017 -0.037,0.027 -0.06,0.027z"/>
   <path class="fil0" d="M14.166 3.766l1.597 0 -1.029 -3.606 -1.297 0 0.729 3.606zm1.703 0.16l-1.768 0c-0.038,0 -0.071,-0.027 -0.079,-0.064l-0.762 -3.766c-0.004,-0.024 0.002,-0.048 0.017,-0.067 0.015,-0.018 0.038,-0.029 0.062,-0.029l1.455 0c0.036,0 0.067,0.024 0.077,0.058l1.075 3.766c0.007,0.024 0.002,0.05 -0.013,0.07 -0.015,0.02 -0.039,0.032 -0.064,0.032z"/>
   <path class="fil0" d="M7.165 3.766l1.58 0 -0.104 -3.606 -1.372 0 -0.104 3.606zm1.664 0.16c0,0 -0.001,0 -0.001,0l-1.745 0c-0.022,0 -0.043,-0.009 -0.058,-0.024 -0.015,-0.016 -0.023,-0.037 -0.022,-0.058l0.108 -3.766c0.001,-0.044 0.037,-0.078 0.08,-0.078l1.528 0c0.043,0 0.079,0.034 0.08,0.078l0.108 3.75c0.001,0.005 0.002,0.012 0.002,0.018 0,0.044 -0.036,0.08 -0.08,0.08z"/>
   <path class="fil0" d="M0.644 11.349l14.662 0 0 -0.589 -14.662 0 0 0.589zm14.742 0.16l-14.822 0c-0.045,0 -0.08,-0.035 -0.08,-0.08l0 -0.749c0,-0.044 0.035,-0.08 0.08,-0.08l14.822 0c0.044,0 0.08,0.036 0.08,0.08l0 0.749c0,0.045 -0.036,0.08 -0.08,0.08z"/>
   <path class="fil0" d="M8.663 7.775c-0.044,0 -0.079,0.035 -0.079,0.078 0,0.044 0.035,0.079 0.079,0.079 0.043,0 0.078,-0.035 0.078,-0.079 0,-0.043 -0.035,-0.078 -0.078,-0.078zm0 0.317c-0.132,0 -0.239,-0.107 -0.239,-0.239 0,-0.131 0.107,-0.238 0.239,-0.238 0.131,0 0.238,0.107 0.238,0.238 0,0.132 -0.107,0.239 -0.238,0.239z"/>
   <path class="fil0" d="M2.655 8.21l2.492 0 0 -0.931 -2.492 0 0 0.931zm1.818 -0.582l-0.04 -0.075 -0.003 0 0.007 0.075 0 0.343 -0.058 0 0 -0.532 0.033 0 0.251 0.35 0.039 0.072 0.004 0 -0.009 -0.072 0 -0.342 0.059 0 0 0.533 -0.033 0 -0.25 -0.352zm-0.496 -0.181l0.286 0 0 0.055 -0.224 0 0 0.172 0.205 0 0 0.055 -0.205 0 0 0.187 0.227 0 0 0.055 -0.289 0 0 -0.524zm-0.29 0.048c-0.014,0 -0.026,0 -0.038,0.001 -0.012,0 -0.021,0.001 -0.028,0.003l0 0.218c0.002,0.001 0.006,0.001 0.012,0.002 0.005,0 0.011,0 0.017,0 0.006,0.001 0.012,0.001 0.017,0.001 0.006,0 0.01,0 0.012,0 0.017,0 0.034,-0.002 0.051,-0.005 0.016,-0.003 0.031,-0.009 0.045,-0.018 0.013,-0.008 0.024,-0.02 0.032,-0.036 0.009,-0.015 0.013,-0.035 0.013,-0.059 0,-0.02 -0.004,-0.037 -0.012,-0.051 -0.008,-0.014 -0.018,-0.025 -0.031,-0.033 -0.012,-0.008 -0.027,-0.014 -0.043,-0.018 -0.016,-0.003 -0.032,-0.005 -0.047,-0.005zm-0.129 -0.043c0.019,-0.004 0.04,-0.007 0.062,-0.009 0.022,-0.001 0.043,-0.002 0.065,-0.002 0.023,0 0.046,0.002 0.07,0.007 0.024,0.004 0.045,0.012 0.065,0.024 0.019,0.012 0.035,0.029 0.047,0.05 0.013,0.021 0.019,0.048 0.019,0.08 0,0.032 -0.006,0.059 -0.017,0.081 -0.012,0.022 -0.027,0.04 -0.046,0.054 -0.019,0.013 -0.041,0.023 -0.065,0.029 -0.025,0.006 -0.05,0.009 -0.076,0.009 -0.002,0 -0.007,0 -0.012,0 -0.006,0 -0.012,0 -0.018,0 -0.007,0 -0.013,-0.001 -0.019,-0.001 -0.006,-0.001 -0.01,-0.001 -0.012,-0.002l0 0.199 -0.063 0 0 -0.519zm-0.468 0.257c0,0.029 0.003,0.057 0.009,0.083 0.005,0.026 0.014,0.048 0.026,0.068 0.012,0.02 0.028,0.036 0.046,0.047 0.019,0.012 0.041,0.018 0.067,0.018 0.046,0 0.083,-0.018 0.109,-0.053 0.026,-0.035 0.04,-0.089 0.04,-0.163 0,-0.028 -0.003,-0.056 -0.009,-0.082 -0.006,-0.026 -0.015,-0.049 -0.027,-0.069 -0.012,-0.02 -0.028,-0.035 -0.046,-0.047 -0.019,-0.012 -0.041,-0.018 -0.067,-0.018 -0.046,0 -0.082,0.018 -0.109,0.053 -0.026,0.035 -0.039,0.09 -0.039,0.163zm-0.066 0c0,-0.087 0.019,-0.154 0.056,-0.201 0.036,-0.047 0.089,-0.07 0.158,-0.07 0.037,0 0.069,0.006 0.096,0.019 0.027,0.013 0.049,0.032 0.067,0.056 0.017,0.023 0.03,0.052 0.039,0.085 0.008,0.033 0.013,0.07 0.013,0.111 0,0.088 -0.019,0.155 -0.056,0.201 -0.037,0.047 -0.09,0.07 -0.159,0.07 -0.037,0 -0.068,-0.006 -0.095,-0.019 -0.027,-0.013 -0.049,-0.031 -0.067,-0.055 -0.018,-0.024 -0.031,-0.052 -0.039,-0.086 -0.009,-0.033 -0.013,-0.07 -0.013,-0.111zm1.041 -1.124c0,0.046 -0.018,0.086 -0.047,0.116l0.249 0.479 0.898 0c0.045,0 0.081,0.036 0.081,0.081l0 0.968c0,0.044 -0.036,0.081 -0.081,0.081l-2.529 0c-0.044,0 -0.081,-0.037 -0.081,-0.081l0 -0.968c0,-0.045 0.037,-0.081 0.081,-0.081l0.899 0 0.249 -0.479c-0.03,-0.029 -0.048,-0.07 -0.048,-0.116 0,-0.091 0.074,-0.164 0.165,-0.164 0.091,0 0.164,0.073 0.164,0.164zm-0.135 0.162c-0.009,0.002 -0.019,0.003 -0.029,0.003 -0.01,0 -0.02,-0.001 -0.03,-0.003l-0.225 0.433 0.509 0 -0.225 -0.433z"/>
   <path class="fil0" d="M12.9 5.594l0 0 -0.282 0.55 -0.028 -0.023 -0.111 -0.092 -0.089 0.166 -0.275 -0.13 0 0 0 0 -0.014 0.006 -0.262 0.124 -0.089 -0.166 -0.053 0.044 -0.086 0.071 -0.282 -0.55 0 0 0 0 -0.237 0.471 0 0.2 0 0 0 0.267 0.1 0.099 -0.1 -0.022 0 0.182 2.045 0 0 -0.182 -0.099 0.022 0.099 -0.099 0 -0.267 0 0 0 -0.2 -0.237 -0.471zm0.26 1.409l-0.09 0c0.006,0.018 0.012,0.036 0.017,0.054l0 0 0.002 0.006c0.002,0.009 0.004,0.018 0.006,0.028 0.002,0.008 0.004,0.016 0.006,0.025 0.001,0.005 0.002,0.011 0.003,0.016 0.001,0.009 0.003,0.018 0.004,0.027 0.002,0.011 0.004,0.022 0.005,0.034 0.002,0.011 0.003,0.023 0.004,0.035 0.037,0.43 -0.178,0.88 -0.19,0.906l0 0.001c-0.001,0 -0.001,0 -0.001,0l0.136 0 0 0 0.129 0c0,0 -0.015,0.041 -0.049,0.106l0 0c-0.002,0.004 -0.004,0.007 -0.006,0.011l0 0c-0.003,0.004 -0.005,0.008 -0.007,0.012 -0.104,0.185 -0.349,0.519 -0.826,0.673l0 -0.67 0.044 -0.21 -0.103 -0.191 0.02 -0.149 0.004 -0.032 0.011 -0.079 0.464 0 0.079 -0.236 -0.6 0.073 -0.043 0.423 -0.009 0.084 -0.13 0 0 0 -0.008 -0.084 0 0 0 0 -0.044 -0.423 -0.599 -0.073 0.078 0.236 0.464 0 0.01 0.072 0.005 0.039 0.021 0.149 -0.104 0.191 0.045 0.21 0 0.67c-0.456,-0.147 -0.701,-0.459 -0.812,-0.647l0 0c-0.002,-0.004 -0.005,-0.009 -0.007,-0.013l0 0c-0.003,-0.004 -0.005,-0.008 -0.007,-0.012l-0.001 -0.001c-0.002,-0.004 -0.004,-0.008 -0.006,-0.012 -0.039,-0.071 -0.056,-0.117 -0.056,-0.117l0.129 0 0 0 0.136 0c0,0 0,0 0,0l-0.001 -0.001c-0.012,-0.026 -0.227,-0.476 -0.189,-0.906 0.001,-0.012 0.002,-0.024 0.003,-0.035 0.002,-0.012 0.003,-0.023 0.005,-0.034 0.001,-0.009 0.003,-0.018 0.004,-0.027 0.001,-0.005 0.003,-0.011 0.004,-0.016 0.001,-0.009 0.003,-0.017 0.005,-0.025 0.002,-0.01 0.004,-0.019 0.007,-0.028l0.001 -0.006 0 0c0.005,-0.018 0.011,-0.036 0.017,-0.054l-0.072 0c-0.022,0 -0.039,-0.017 -0.039,-0.039l0 -0.001 0 -0.042 0 -0.065 2.17 0 0 0.065 0 0.042 0 0.001c0,0.022 -0.018,0.039 -0.039,0.039l0 0zm-1.785 -0.372c-0.102,0 -0.183,-0.082 -0.183,-0.183 0,-0.101 0.081,-0.183 0.183,-0.183 0.101,0 0.183,0.082 0.183,0.183 0,0.101 -0.082,0.183 -0.183,0.183zm1.479 0c-0.101,0 -0.183,-0.082 -0.183,-0.183 0,-0.101 0.082,-0.183 0.183,-0.183 0.101,0 0.184,0.082 0.184,0.183 0,0.101 -0.083,0.183 -0.184,0.183zm0.114 -0.183c0,-0.063 -0.051,-0.114 -0.114,-0.114 -0.062,0 -0.113,0.051 -0.113,0.114 0,0.063 0.051,0.113 0.113,0.113 0.063,0 0.114,-0.05 0.114,-0.113zm-0.854 0.254c-0.101,0 -0.183,-0.082 -0.183,-0.183 0,-0.101 0.082,-0.183 0.183,-0.183 0.102,0 0.184,0.082 0.184,0.183 0,0.101 -0.082,0.183 -0.184,0.183zm0.114 -0.183c0,-0.063 -0.051,-0.114 -0.114,-0.114 -0.062,0 -0.113,0.051 -0.113,0.114 0,0.063 0.051,0.113 0.113,0.113 0.063,0 0.114,-0.05 0.114,-0.113zm-0.74 -0.071c0,-0.063 -0.051,-0.114 -0.113,-0.114 -0.063,0 -0.114,0.051 -0.114,0.114 0,0.063 0.051,0.113 0.114,0.113 0.062,0 0.113,-0.05 0.113,-0.113z"/>
  </g>
 </g>
</svg>
