<svg width="131" height="112" viewBox="0 0 131 112" fill="none" xmlns="http://www.w3.org/2000/svg">
<path d="M42.3927 34.3068L39.7692 25.1865C38.582 25.955 37.5096 26.6334 36.577 27.2213L35.8794 34.3068H28.8676L32.248 0H39.2598L37.3487 19.3928C38.8896 18.355 40.7133 17.0146 42.8203 15.3717L44.335 0H51.2568L49.4708 18.1258C48.4891 18.9677 47.4155 19.8256 46.2499 20.7083L49.9362 34.3068H42.3927Z" fill="#A36700"/>
<path d="M67.3102 4.789L63.7778 4.64156L61.3472 29.3053L64.8879 29.371L64.4015 34.3068H51.3009L49.6559 29.8529L54.2901 29.5178L56.7411 4.64156L54.2122 4.76475L52.5953 0.0248929L67.7819 0L67.3102 4.789Z" fill="#A36700"/>
<path d="M84.3428 20.9451L83.8603 34.3068H67.3926L70.7731 0H77.7855L74.9259 29.0193H74.9744L78.0364 28.7985L78.6938 21.3785L84.3428 20.9451Z" fill="#A36700"/>
<path d="M102.135 20.9451L101.652 34.3068H85.1841L88.5646 0H95.577L92.7174 29.0193H92.7659L95.8279 28.7985L96.486 21.3785L102.135 20.9451Z" fill="#A36700"/>
<path d="M33.157 40.8804L32.2844 49.7403L28.9978 51.9685L28.4929 57.0939H25.1635L25.6684 51.9685L22.8215 49.7403L23.6941 40.8804H27.0235L26.315 48.0757L27.6178 49.0835L29.1184 48.0757L29.8276 40.8804H33.157Z" fill="#A36700"/>
<path d="M43.0756 43.3135C43.0961 43.4182 43.1082 43.5688 43.1165 43.7578C43.1248 43.9512 43.1248 44.1095 43.1127 44.2288L42.182 53.676C42.115 54.3557 41.8954 54.9736 41.5246 55.5257C41.1531 56.0823 40.6533 56.5265 40.0303 56.8546C39.4028 57.1865 38.6681 57.3531 37.8217 57.3531H36.7021C35.8679 57.3531 35.1657 57.1865 34.6034 56.8546C34.0372 56.5265 33.6293 56.0823 33.3708 55.5257C33.1123 54.9736 33.0153 54.3557 33.0823 53.676L34.0066 44.2946C34.073 43.6186 34.2925 43.0008 34.6596 42.4486C35.0272 41.8921 35.5226 41.4478 36.1545 41.1159C36.7819 40.784 37.5166 40.6174 38.3509 40.6174H39.4711C40.5218 40.6174 41.3541 40.8689 41.9695 41.3706C42.5803 41.8729 42.9524 42.5221 43.0756 43.3135ZM39.6007 46.083C39.6703 45.3758 39.7054 44.8237 39.7092 44.4337C39.7092 44.0399 39.632 43.7654 39.4775 43.611C39.3224 43.4565 39.0441 43.3793 38.6464 43.3793C38.2449 43.3793 37.9513 43.4565 37.7624 43.611C37.5734 43.7654 37.4419 44.0399 37.3647 44.4337C37.2875 44.8237 37.2179 45.3758 37.1477 46.083L36.5758 51.8875C36.5062 52.5986 36.4673 53.1468 36.4673 53.5407C36.4673 53.9345 36.5445 54.2051 36.6996 54.3596C36.8541 54.5179 37.1317 54.5951 37.5415 54.5951C37.9468 54.5951 38.2443 54.5179 38.43 54.3596C38.6151 54.2051 38.7422 53.9345 38.8156 53.5407C38.889 53.1468 38.9586 52.5986 39.0288 51.8875L39.6007 46.083Z" fill="#A36700"/>
<path d="M51.1598 40.8804H54.4739L52.8762 57.0939H47.411C46.5729 57.0939 45.8746 56.928 45.3084 56.5961C44.7461 56.2635 44.3344 55.8193 44.0765 55.2595C43.8186 54.7036 43.7248 54.0857 43.7918 53.4053L45.0263 40.8804H48.3404L47.1863 52.5909C47.104 53.4289 47.2112 53.9421 47.51 54.1278C47.7832 54.2938 48.3308 54.3787 49.1613 54.3787C49.3202 54.3787 49.49 54.3749 49.6725 54.3672H49.8308L51.1598 40.8804Z" fill="#A36700"/>
<path d="M60.068 57.129L59.3684 52.8609C58.9503 53.1468 58.5495 53.4136 58.171 53.653L57.8314 57.0939H54.5058L56.1035 40.8804H60.924C61.7697 40.8804 62.4719 41.0463 63.0298 41.3789C63.5883 41.7108 64 42.155 64.2623 42.711C64.524 43.2714 64.6211 43.8892 64.554 44.569L64.0804 49.3771C63.5947 49.7984 63.0495 50.2388 62.4451 50.6901L63.5098 57.129H60.068ZM59.1597 43.6186L58.5297 50.0109C59.3946 49.5048 60.2608 48.8633 61.1295 48.0872L61.3012 46.3453C61.3663 45.6815 61.4059 45.1639 61.4148 44.793C61.4244 44.426 61.3657 44.1554 61.2361 43.9856C61.1021 43.8158 60.8736 43.7073 60.5455 43.6614C60.2704 43.6339 59.9046 43.6186 59.4412 43.6186H59.1597Z" fill="#A36700"/>
<path d="M82.6264 40.8804H85.952L84.6677 53.9153L80.9215 57.3646L79.0513 55.3291L78.9134 56.7307L75.5233 57.3875L75.7257 55.3291L73.4552 57.3646L70.3882 53.9153L71.6731 40.8804H74.9987L73.7718 53.3243L76.1565 50.9607L76.9225 43.1858L76.1419 40.8804H80.4753L79.4821 50.9607L81.4002 53.3243L82.6264 40.8804Z" fill="#A36700"/>
<path d="M91.6336 40.8804H97.0994L95.5017 57.0939H92.1761L92.6632 52.1505L89.8846 51.9685H89.8731L89.3682 57.0939H86.0426L86.5175 52.2743L85.5696 49.4665H86.7939L87.2765 44.569C87.3435 43.8892 87.5631 43.2714 87.9346 42.711C88.3061 42.155 88.802 41.7108 89.4295 41.3789C90.0531 41.0463 90.7878 40.8804 91.6336 40.8804ZM90.1195 49.4665H92.9281L93.5038 43.6186H93.4923C93.177 43.6033 92.8878 43.5956 92.6331 43.5956C91.9227 43.5956 91.4331 43.6614 91.1644 43.8005C90.8229 43.9741 90.6123 44.4681 90.5312 45.2909L90.1195 49.4665Z" fill="#A36700"/>
<path d="M108.177 40.8804L107.303 49.7403L104.017 51.9685L103.512 57.0939H100.187L100.692 51.9685L97.8443 49.7403L98.7175 40.8804H102.043L101.334 48.0757L102.641 49.0835L104.142 48.0757L104.851 40.8804H108.177Z" fill="#A36700"/>
<path d="M65.3647 64.7483L65.1783 66.6408L63.4076 66.4582L62.4974 75.6941H60.2525L61.1665 66.4193L59.244 66.6408L59.4303 64.7483H65.3647Z" fill="#A36700"/>
<path d="M71.7248 66.3905C71.7388 66.4614 71.7471 66.5629 71.7529 66.6905C71.758 66.8207 71.758 66.928 71.7497 67.009L71.1216 73.3867C71.0763 73.8456 70.9282 74.2624 70.678 74.6358C70.4271 75.0111 70.0894 75.3111 69.6688 75.5326C69.2449 75.7566 68.749 75.869 68.1783 75.869H67.4219C66.8583 75.869 66.3847 75.7566 66.0049 75.5326C65.6226 75.3111 65.3474 75.0111 65.1732 74.6358C64.9989 74.2624 64.9325 73.8456 64.9779 73.3867L65.6021 67.0531C65.6468 66.5967 65.7949 66.1793 66.0432 65.8065C66.2915 65.4312 66.626 65.1312 67.0524 64.9072C67.4756 64.6825 67.9715 64.5708 68.5352 64.5708H69.2915C70.0007 64.5708 70.5631 64.7399 70.978 65.0789C71.3903 65.4178 71.6418 65.8563 71.7248 66.3905ZM69.379 68.26C69.4256 67.7833 69.4498 67.4099 69.4524 67.1469C69.4524 66.8807 69.4001 66.6956 69.2954 66.5916C69.1913 66.4869 69.003 66.4352 68.7349 66.4352C68.4637 66.4352 68.2652 66.4869 68.1381 66.5916C68.0105 66.6956 67.9217 66.8807 67.8694 67.1469C67.8171 67.4099 67.7698 67.7833 67.7232 68.26L67.337 72.1791C67.2898 72.6591 67.2636 73.0293 67.2636 73.2954C67.2636 73.5616 67.316 73.7435 67.42 73.8482C67.5241 73.9548 67.7124 74.0071 67.9888 74.0071C68.2626 74.0071 68.463 73.9548 68.5881 73.8482C68.7132 73.7435 68.7994 73.5616 68.8486 73.2954C68.8984 73.0293 68.9456 72.6591 68.9928 72.1791L69.379 68.26Z" fill="#A36700"/>
<path d="M13.5559 81.9651H19.4845L17.131 105.851L8.09003 112L0.267584 105.851L2.12889 86.9641L0.43865 81.9651H8.54962L6.48661 102.904L8.81132 104.681L11.4928 102.904L13.5559 81.9651Z" fill="#A36700"/>
<path d="M32.9278 86.0003L29.9514 85.8765L27.9037 106.657L30.8865 106.712L30.4767 110.871H19.4391L18.0527 107.118L21.9573 106.836L24.0228 85.8765L21.8915 85.9792L20.5294 81.9855L33.3255 81.9651L32.9278 86.0003Z" fill="#A36700"/>
<path d="M41.1352 86.4203H41.1148L39.4967 102.842C39.3492 104.336 39.5343 105.252 40.0533 105.583C40.4931 105.865 41.4154 106.01 42.8133 106.01C43.1369 106.01 43.4886 106.003 43.8691 105.989H46.8295L46.3489 110.871H39.8969C38.4026 110.871 37.1509 110.575 36.1487 109.982C35.1466 109.39 34.4119 108.599 33.953 107.6C33.4927 106.608 33.3191 105.507 33.4385 104.295L35.6387 81.9651H49.197L48.7042 86.9641L41.1352 86.4203Z" fill="#A36700"/>
<path d="M65.3168 81.9651L64.824 86.9641L60.1478 86.4822L57.7446 110.871H51.816L54.2294 86.3788L49.1517 86.9641L49.6445 81.9651H65.3168Z" fill="#A36700"/>
<path d="M82.1107 86.3029C82.1477 86.4893 82.1694 86.7574 82.1841 87.095C82.1987 87.4391 82.1981 87.7218 82.177 87.935L80.5174 104.777C80.3981 105.989 80.0074 107.09 79.3455 108.075C78.683 109.066 77.7925 109.859 76.6819 110.444C75.5629 111.036 74.2525 111.332 72.7448 111.332H70.7482C69.2603 111.332 68.0092 111.036 67.007 110.444C65.9972 109.859 65.2696 109.066 64.81 108.075C64.3485 107.09 64.1749 105.989 64.2942 104.777L65.9423 88.0518C66.0611 86.8474 66.4524 85.7451 67.1073 84.7608C67.7622 83.769 68.6462 82.9775 69.7722 82.3852C70.8905 81.7928 72.2003 81.4973 73.6876 81.4973H75.6848C77.5576 81.4973 79.0423 81.9447 80.1383 82.8396C81.2279 83.7351 81.8917 84.8917 82.1107 86.3029ZM75.9159 91.24C76.0397 89.98 76.1029 88.9952 76.1093 88.3001C76.1093 87.5973 75.9721 87.1091 75.6957 86.8333C75.4199 86.5576 74.924 86.4204 74.2148 86.4204C73.4986 86.4204 72.9752 86.5576 72.6388 86.8333C72.3018 87.1091 72.0675 87.5973 71.9297 88.3001C71.7924 88.9952 71.6673 89.98 71.5435 91.24L70.5235 101.589C70.399 102.856 70.3301 103.834 70.3294 104.536C70.3294 105.238 70.4673 105.721 70.7437 105.996C71.0188 106.278 71.5148 106.416 72.2444 106.416C72.9676 106.416 73.4973 106.278 73.8286 105.996C74.1586 105.721 74.3852 105.238 74.5161 104.536C74.6476 103.834 74.7714 102.856 74.8959 101.589L75.9159 91.24Z" fill="#A36700"/>
<path d="M92.6772 110.933L91.4299 103.324C90.6844 103.834 89.9695 104.309 89.2942 104.736L88.6897 110.871H82.7611L85.6092 81.9651H94.2027C95.7111 81.9651 96.9621 82.2612 97.9579 82.8536C98.953 83.4459 99.6871 84.2374 100.154 85.2292C100.62 86.2275 100.794 87.3292 100.675 88.5406L99.8301 97.1134C98.9645 97.864 97.9917 98.6491 96.9136 99.4546L98.8126 110.933H92.6772ZM91.0572 86.8473L89.9338 98.2425C91.4759 97.3406 93.0206 96.1974 94.5685 94.8136L94.8749 91.7084C94.9917 90.5238 95.0619 89.6014 95.0785 88.9402C95.0951 88.286 94.9911 87.8041 94.7593 87.5009C94.5206 87.1983 94.1121 87.0056 93.5281 86.9226C93.0372 86.8747 92.3861 86.8473 91.5595 86.8473H91.0572Z" fill="#A36700"/>
<path d="M120.968 81.9651L119.412 97.7606L113.553 101.734L112.652 110.871H106.724L107.624 101.734L102.548 97.7606L104.105 81.9651H110.033L108.77 94.7932L111.099 96.59L113.775 94.7932L115.04 81.9651H120.968Z" fill="#A36700"/>
<path d="M128.394 102.057H123.168L124.804 81.9651H130.732L128.394 102.057ZM125.605 103.951L128.95 107.662L124.871 111.394L121.507 107.662L125.605 103.951Z" fill="#A36700"/>
</svg>
