<svg width="250" height="60" viewBox="0 0 250 60" fill="none" xmlns="http://www.w3.org/2000/svg">
<path d="M25.7202 0H250L224.062 60H0L25.7202 0Z" fill="#A36700"/>
<path d="M79.3251 33.7113L78.2916 31.3489L83.6259 31.3363V39.3395H78.4083C77.5289 39.3395 76.7746 39.1639 76.1537 38.8126C75.5327 38.4614 75.0535 37.9931 74.7201 37.4035C74.3867 36.8139 74.22 36.1616 74.22 35.4466V26.118C74.22 25.3988 74.3867 24.7465 74.7201 24.1569C75.0535 23.5673 75.5327 23.099 76.1537 22.7478C76.7746 22.3965 77.5289 22.2251 78.4083 22.2251H83.6259L83.2091 28.886L80.4211 28.6853V25.1855H80.1836C79.6251 25.1855 79.1751 25.2064 78.825 25.2566C78.4791 25.3068 78.2207 25.3988 78.0582 25.5367C77.8957 25.6747 77.7998 25.8754 77.7665 26.143C77.7331 26.4023 77.7165 26.7493 77.7165 27.18V33.979C77.7248 35.0076 77.9082 35.6766 78.2666 35.9944C78.6166 36.2996 79.2167 36.4501 80.0669 36.4501H80.1336V33.6779L79.3251 33.7113Z" fill="black"/>
<path d="M91.8399 22.2251H95.3239V39.3395H89.577C88.6935 39.3395 87.9433 39.1639 87.3099 38.8126C86.6848 38.4614 86.2055 37.9931 85.8763 37.4035C85.5471 36.8139 85.3845 36.1616 85.3845 35.4466V22.2251H88.8727V34.5852C88.8727 35.4717 89.0394 36.0111 89.3728 36.2076C89.677 36.3832 90.2604 36.4752 91.1356 36.4752C91.3023 36.4752 91.4815 36.4711 91.6732 36.4627H91.8399V22.2251Z" fill="black"/>
<path d="M105.888 25.1855L100.537 24.8594V31.2861H105.888V34.2507L100.537 33.9288V36.6885L105.888 36.3665V39.3269H100.537L97.0534 39.3395V34.2507L95.7532 31.2861H97.0534V22.2251H105.888V25.1855Z" fill="black"/>
<path d="M113.277 39.3771L112.102 34.8696C111.689 35.1748 111.298 35.455 110.923 35.7059V39.3395H107.422V22.2251H112.494C113.386 22.2251 114.14 22.3965 114.761 22.7478C115.382 23.099 115.865 23.5673 116.199 24.1569C116.528 24.7465 116.695 25.3988 116.695 26.118V31.1942C116.228 31.6374 115.703 32.1015 115.111 32.5782L116.899 39.3771H113.277ZM110.923 25.1144V31.8632C111.781 31.328 112.623 30.6506 113.456 29.831V27.9912C113.456 27.2929 113.444 26.7452 113.419 26.3521C113.39 25.9674 113.298 25.6789 113.144 25.5033C112.986 25.3235 112.735 25.2064 112.385 25.1604C112.094 25.1312 111.706 25.1144 111.219 25.1144H110.923Z" fill="black"/>
<path d="M128.122 26.118V35.4466C128.122 36.1616 127.959 36.8139 127.626 37.4035C127.292 37.9931 126.813 38.4614 126.184 38.8126C125.555 39.1639 124.804 39.3395 123.921 39.3395H118.374V22.2251H123.921C124.804 22.2251 125.555 22.3965 126.184 22.7478C126.813 23.099 127.292 23.5673 127.626 24.1569C127.959 24.7465 128.122 25.3988 128.122 26.118ZM121.875 36.4501C122.096 36.4585 122.3 36.4627 122.483 36.4627C123.308 36.4627 123.858 36.3749 124.138 36.2076C124.463 36.0153 124.625 35.501 124.625 34.648V26.9166C124.625 26.0636 124.463 25.5409 124.138 25.3528C123.858 25.1855 123.308 25.1019 122.483 25.1019C122.3 25.1019 122.096 25.1061 121.875 25.1144V36.4501Z" fill="black"/>
<path d="M138.849 24.7923C138.882 24.9011 138.907 25.06 138.936 25.2607C138.965 25.4655 138.982 25.6328 138.982 25.7582V35.7308C138.982 36.45 138.815 37.1023 138.482 37.6835C138.149 38.2731 137.669 38.7414 137.048 39.0885C136.423 39.4355 135.665 39.6111 134.777 39.6111H133.598C132.718 39.6111 131.964 39.4355 131.339 39.0885C130.71 38.7414 130.235 38.2731 129.905 37.6835C129.576 37.1023 129.409 36.45 129.409 35.7308V25.8293C129.409 25.1143 129.576 24.462 129.905 23.8766C130.235 23.2912 130.71 22.8229 131.339 22.4717C131.964 22.1204 132.718 21.9448 133.598 21.9448H134.777C135.881 21.9448 136.782 22.2124 137.482 22.7393C138.178 23.2703 138.636 23.9561 138.849 24.7923ZM135.477 27.7151C135.477 26.9708 135.461 26.3854 135.423 25.9757C135.381 25.5575 135.273 25.269 135.094 25.1059C134.915 24.9429 134.615 24.8592 134.194 24.8592C133.773 24.8592 133.473 24.9429 133.289 25.1059C133.106 25.269 132.998 25.5575 132.956 25.9757C132.914 26.3854 132.898 26.9708 132.898 27.7151V33.845C132.898 34.5935 132.914 35.1747 132.956 35.5887C132.998 36.0026 133.106 36.2911 133.285 36.4542C133.464 36.6215 133.764 36.7009 134.194 36.7009C134.623 36.7009 134.927 36.6215 135.106 36.4542C135.286 36.2911 135.39 36.0026 135.427 35.5887C135.465 35.1747 135.477 34.5935 135.477 33.845V27.7151Z" fill="black"/>
<path d="M146.6 22.225H150.088V39.3394H146.6V30.7049L144.079 27.3472V39.3394H140.636V22.2L144.004 22.2125L144.091 22.3045L146.6 25.6412V22.225Z" fill="black"/>
<path d="M163.77 22.2251H167.271V36.3665L162.29 40.0085L157.319 36.3665V25.1855L156.031 22.2251H160.815V34.6229L162.29 35.6724L163.77 34.6229V22.2251Z" fill="black"/>
<path d="M175.439 24.6127L173.672 24.5374V36.8432L175.439 36.8766V39.3395H168.925L167.887 37.1192L170.175 36.9519V24.5374L168.925 24.6001L167.887 22.2376L175.439 22.2251V24.6127Z" fill="black"/>
<path d="M180.306 24.8594H180.294V34.5852C180.294 35.4717 180.456 36.0111 180.781 36.2076C181.056 36.3749 181.611 36.4627 182.436 36.4627C182.628 36.4627 182.832 36.4585 183.057 36.4501H184.803V39.3395H180.998C180.115 39.3395 179.36 39.1639 178.731 38.8126C178.106 38.4614 177.627 37.9931 177.297 37.4035C176.968 36.8139 176.802 36.1616 176.802 35.4466V22.2251H184.803V25.1855L180.306 24.8594Z" fill="black"/>
<path d="M194.317 22.2251V25.1855L191.529 24.897V39.3395H188.029V24.8385L185.07 25.1855V22.2251H194.317Z" fill="black"/>
<path d="M204.482 24.7923C204.515 24.9011 204.54 25.06 204.569 25.2607C204.598 25.4655 204.615 25.6328 204.615 25.7582V35.7308C204.615 36.45 204.448 37.1023 204.115 37.6835C203.782 38.2731 203.302 38.7414 202.681 39.0885C202.056 39.4355 201.298 39.6111 200.41 39.6111H199.231C198.351 39.6111 197.597 39.4355 196.972 39.0885C196.343 38.7414 195.868 38.2731 195.538 37.6835C195.209 37.1023 195.042 36.45 195.042 35.7308V25.8293C195.042 25.1143 195.209 24.462 195.538 23.8766C195.868 23.2912 196.343 22.8229 196.972 22.4717C197.597 22.1204 198.351 21.9448 199.231 21.9448H200.41C201.514 21.9448 202.415 22.2124 203.115 22.7393C203.811 23.2703 204.269 23.9561 204.482 24.7923ZM201.11 27.7151C201.11 26.9708 201.089 26.3854 201.056 25.9757C201.014 25.5575 200.906 25.269 200.727 25.1059C200.548 24.9429 200.248 24.8592 199.827 24.8592C199.406 24.8592 199.106 24.9429 198.922 25.1059C198.739 25.269 198.631 25.5575 198.589 25.9757C198.547 26.3854 198.531 26.9708 198.531 27.7151V33.845C198.531 34.5935 198.547 35.1747 198.589 35.5887C198.631 36.0026 198.739 36.2911 198.918 36.4542C199.097 36.6215 199.397 36.7009 199.827 36.7009C200.256 36.7009 200.56 36.6215 200.739 36.4542C200.919 36.2911 201.023 36.0026 201.06 35.5887C201.094 35.1747 201.11 34.5935 201.11 33.845V27.7151Z" fill="black"/>
<path d="M212.15 39.3771L210.97 34.8696C210.558 35.1748 210.166 35.455 209.791 35.7059V39.3395H206.294V22.2251H211.366C212.254 22.2251 213.012 22.3965 213.633 22.7478C214.254 23.099 214.734 23.5673 215.067 24.1569C215.4 24.7465 215.567 25.3988 215.567 26.118V31.1942C215.1 31.6374 214.571 32.1015 213.983 32.5782L215.771 39.3771H212.15ZM209.791 25.1144V31.8632C210.649 31.328 211.495 30.6506 212.329 29.831V27.9912C212.329 27.2929 212.316 26.7452 212.287 26.3521C212.258 25.9674 212.171 25.6789 212.016 25.5033C211.858 25.3235 211.604 25.2064 211.254 25.1604C210.962 25.1312 210.574 25.1144 210.087 25.1144H209.791Z" fill="black"/>
<path d="M59.2255 8L55.4415 15.401L55.0747 15.0958L53.5786 13.8497L52.3909 16.091L48.6944 14.339L48.5069 14.4268L44.9979 16.091L43.8102 13.8497L43.0892 14.4519L41.9431 15.401L38.1633 8H38.1591L34.9793 14.339V17.0276V20.6319L36.3129 21.9574L34.9793 21.6689V24.1067H62.4094V21.6689L61.0759 21.9574L62.4094 20.6319V17.0276V14.339L59.2255 8V8ZM62.7095 26.9709H61.5134C61.5968 27.2093 61.6718 27.4476 61.7385 27.6901H61.7343L61.7593 27.7696C61.7885 27.8908 61.8218 28.0204 61.8468 28.1459C61.8718 28.2588 61.8968 28.3717 61.9219 28.4804C61.9344 28.5557 61.951 28.6309 61.9635 28.702C61.9844 28.8233 62.0052 28.9403 62.0219 29.0616C62.0469 29.2163 62.0677 29.3668 62.0844 29.5216C62.1094 29.6763 62.1219 29.831 62.1344 29.9899C62.6387 35.7769 59.7589 41.8441 59.5923 42.1911L59.5881 42.1995C59.5839 42.1995 59.5839 42.2037 59.5839 42.2037H61.4051H63.1346C63.1346 42.2037 62.9345 42.7556 62.472 43.6254C62.4469 43.6755 62.4178 43.7299 62.3886 43.7801C62.3594 43.8344 62.3303 43.8888 62.2969 43.9431C60.9092 46.4269 57.6169 50.9219 51.2157 53V43.9808L51.8075 41.15L50.4239 38.5868L50.6948 36.5797L50.7573 36.1449L50.899 35.0786H57.121L58.1795 31.9008L50.1405 32.8917L49.5529 38.5868L49.4404 39.7158H47.6942L47.5817 38.5868L46.9941 32.8917L38.9551 31.9008L40.0136 35.0786H46.2314L46.3648 36.0487L46.4398 36.5797L46.7107 38.5868L45.3229 41.15L45.9189 43.9808V53C39.8052 51.0138 36.5255 46.8241 35.0335 44.286C34.996 44.2275 34.9627 44.1689 34.9335 44.1146L34.9293 44.1104C34.9002 44.056 34.8668 43.9975 34.8377 43.9431H34.8335C34.8043 43.8888 34.7751 43.8344 34.746 43.7801C34.225 42.8225 34 42.2037 34 42.2037H35.7253H35.7295H37.5507C37.5507 42.2037 37.5507 42.1995 37.5465 42.1995L37.5423 42.1911C37.3756 41.8441 34.4959 35.7769 35.0002 29.9899C35.0127 29.831 35.0252 29.6763 35.046 29.5216C35.0669 29.3668 35.0877 29.2163 35.1127 29.0616C35.1294 28.9403 35.1502 28.8233 35.1711 28.702C35.1836 28.6309 35.2002 28.5557 35.2127 28.4804C35.2377 28.3717 35.2627 28.2588 35.2877 28.1459C35.3127 28.0204 35.3461 27.8908 35.3753 27.7696L35.4003 27.6901H35.3961C35.4628 27.4476 35.5378 27.2093 35.6211 26.9709H34.6585C34.3667 26.9709 34.1292 26.7326 34.1292 26.4399V26.4273V25.8629V24.9848H63.2388V25.8629V26.4273V26.4399C63.2388 26.7326 63.0012 26.9709 62.7095 26.9709ZM38.7676 21.9574C37.4131 21.9574 36.3129 20.8577 36.3129 19.4946C36.3129 18.1315 37.4131 17.0276 38.7676 17.0276C40.1261 17.0276 41.2263 18.1315 41.2263 19.4946C41.2263 20.8577 40.1261 21.9574 38.7676 21.9574ZM58.6171 21.9574C57.2585 21.9574 56.1583 20.8577 56.1583 19.4946C56.1583 18.1315 57.2585 17.0276 58.6171 17.0276C59.9715 17.0276 61.0759 18.1315 61.0759 19.4946C61.0759 20.8577 59.9715 21.9574 58.6171 21.9574ZM60.1382 19.4946C60.1382 18.65 59.4547 17.9684 58.6171 17.9684C57.7752 17.9684 57.096 18.65 57.096 19.4946C57.096 20.3392 57.7752 21.0208 58.6171 21.0208C59.4547 21.0208 60.1382 20.3392 60.1382 19.4946ZM48.6902 22.915C47.3316 22.915 46.2356 21.8111 46.2356 20.448C46.2356 19.089 47.3316 17.981 48.6902 17.981C50.0488 17.981 51.149 19.089 51.149 20.448C51.149 21.8111 50.0488 22.915 48.6902 22.915ZM50.2113 20.448C50.2113 19.6075 49.5321 18.9218 48.6902 18.9218C47.8526 18.9218 47.1691 19.6075 47.1691 20.448C47.1691 21.2926 47.8526 21.9783 48.6902 21.9783C49.5321 21.9783 50.2113 21.2926 50.2113 20.448ZM40.2928 19.4946C40.2928 18.65 39.6094 17.9684 38.7717 17.9684C37.9299 17.9684 37.2464 18.65 37.2464 19.4946C37.2464 20.3392 37.9299 21.0208 38.7717 21.0208C39.6094 21.0208 40.2928 20.3392 40.2928 19.4946Z" fill="black"/>
</svg>
