<?xml version="1.0" encoding="UTF-8"?>
<!DOCTYPE svg PUBLIC "-//W3C//DTD SVG 1.1//EN" "http://www.w3.org/Graphics/SVG/1.1/DTD/svg11.dtd">
<!-- Creator: CorelDRAW 2021 (64-Bit) -->
<svg xmlns="http://www.w3.org/2000/svg" xml:space="preserve" width="143px" height="143px" version="1.1" style="shape-rendering:geometricPrecision; text-rendering:geometricPrecision; image-rendering:optimizeQuality; fill-rule:evenodd; clip-rule:evenodd"
viewBox="0 0 152.075 152.075"
 xmlns:xlink="http://www.w3.org/1999/xlink"
 xmlns:xodm="http://www.corel.com/coreldraw/odm/2003">
 <defs>
  <style type="text/css">
   <![CDATA[
    .fil0 {fill:#FEFEFE;fill-rule:nonzero}
   ]]>
  </style>
 </defs>
 <g id="Layer_x0020_1">
  <metadata id="CorelCorpID_0Corel-Layer"/>
  <path class="fil0" d="M76.038 0c20.997,0 40.006,8.511 53.766,22.271 13.76,13.76 22.271,32.77 22.271,53.767 0,20.996 -8.511,40.007 -22.271,53.766 -13.759,13.76 -32.769,22.271 -53.766,22.271 -20.997,0 -40.007,-8.511 -53.767,-22.271 -13.76,-13.759 -22.271,-32.77 -22.271,-53.766 0,-20.997 8.511,-40.007 22.271,-53.767 13.76,-13.76 32.77,-22.271 53.767,-22.271zm0 27.906c13.29,0 25.324,5.388 34.033,14.098 8.71,8.71 14.098,20.743 14.098,34.034 0,13.29 -5.388,25.324 -14.098,34.033 -8.709,8.71 -20.743,14.098 -34.033,14.098 -13.291,0 -25.324,-5.388 -34.034,-14.098 -8.71,-8.709 -14.098,-20.743 -14.098,-34.033 0,-13.291 5.388,-25.324 14.098,-34.034 8.71,-8.71 20.743,-14.098 34.034,-14.098zm32.944 15.186c-8.43,-8.43 -20.079,-13.645 -32.944,-13.645 -12.866,0 -24.514,5.215 -32.945,13.645 -8.431,8.432 -13.646,20.08 -13.646,32.946 0,12.865 5.215,24.514 13.646,32.944 8.431,8.431 20.079,13.646 32.945,13.646 12.865,0 24.514,-5.215 32.944,-13.646 8.431,-8.43 13.646,-20.079 13.646,-32.944 0,-12.866 -5.215,-24.514 -13.646,-32.946zm-35.163 88.23l-1.731 -1.303 0.035 -1.365c0.011,-0.43 0.161,-0.795 0.449,-1.095 0.289,-0.301 0.69,-0.468 1.205,-0.501l-0.011 -0.369 0.741 0.019 -0.03 0.362 1.612 0.041 -0.066 2.574 -1.18 -0.116 -0.115 -1.273c-0.12,-0.003 -0.232,-0.008 -0.331,-0.013l-0.026 -0.001 -0.124 1.504 1.74 1.345 -0.039 1.55c-0.011,0.43 -0.16,0.797 -0.447,1.095 -0.289,0.301 -0.69,0.467 -1.206,0.497l0.012 0.344 -0.741 -0.018 0.029 -0.334 -1.553 -0.039 0.249 -2.805 1.18 0.114 -0.038 1.506 0.253 0.006 0.133 -1.725zm0.753 1.179c0.005,-0.043 0.008,-0.097 0.011,-0.162 0.004,-0.064 0.005,-0.127 0.007,-0.192 0.001,-0.066 0.003,-0.122 0.004,-0.169l0.007 -0.067 -0.395 -0.297 0.045 1.409c0.108,-0.029 0.185,-0.082 0.228,-0.161 0.045,-0.081 0.076,-0.2 0.093,-0.361zm-1.091 -3.299l0.361 0.276 -0.03 -1.184c-0.13,0.018 -0.215,0.089 -0.259,0.21 -0.039,0.112 -0.062,0.294 -0.068,0.541l-0.004 0.157zm-5.709 4.53l-1.47 -0.187 0.753 -5.919 2.284 -1.258 1.895 1.789 -0.595 4.681 0.383 1.307 -2.01 -0.256 0.66 -5.188 -0.564 -0.519 -0.677 0.361 -0.659 5.189zm-5.332 -2.052l0.72 0.197 1.168 -5.058 -0.724 -0.181 0.233 -1.012 2.687 0.62 0.216 1.012 -0.959 -0.149 -1.178 5.102 0.522 0.094 0.203 1.071 -3.115 -0.715 0.227 -0.981zm-2.261 -0.713l0.005 0.001 1.12 -3.947c0.103,-0.359 0.099,-0.597 -0.011,-0.715 -0.094,-0.099 -0.308,-0.198 -0.644,-0.293 -0.078,-0.022 -0.163,-0.045 -0.255,-0.067l-0.712 -0.202 0.333 -1.173 1.551 0.44c0.359,0.102 0.646,0.26 0.861,0.475 0.214,0.215 0.356,0.46 0.422,0.738 0.066,0.276 0.059,0.561 -0.024,0.852l-1.524 5.366 -3.258 -0.925 0.341 -1.202 1.795 0.652zm-6.572 -1.121l0.457 -1.162 1.055 0.545 2.234 -5.668 1.378 0.543 -2.245 5.692 1.221 0.323 -0.458 1.162 -3.642 -1.435zm-0.813 -5.932l-0.591 1.153 -1.59 -0.939 -1.172 -0.476 0.591 -1.152 1.136 0.875 1.626 0.539zm-8.566 -2.606l-0.708 -2.047 0.792 -1.113c0.249,-0.351 0.577,-0.569 0.984,-0.657 0.407,-0.089 0.834,-0.003 1.279,0.257l0.197 -0.312 0.604 0.43 -0.227 0.284 1.314 0.934 -1.492 2.098 -0.915 -0.756 0.616 -1.119c-0.098,-0.07 -0.188,-0.136 -0.267,-0.197l-0.021 -0.015 -0.944 1.179 0.692 2.087 -0.899 1.264c-0.249,0.351 -0.577,0.571 -0.983,0.658 -0.407,0.089 -0.832,0.002 -1.276,-0.262l-0.183 0.293 -0.604 -0.429 0.21 -0.261 -1.265 -0.9 1.773 -2.188 0.915 0.755 -0.873 1.228 0.206 0.146 1.075 -1.357zm-0.034 1.399c0.027,-0.033 0.059,-0.076 0.099,-0.128 0.038,-0.051 0.075,-0.103 0.113,-0.156 0.038,-0.054 0.071,-0.1 0.098,-0.137l0.043 -0.052 -0.162 -0.467 -0.75 1.193c0.106,0.037 0.199,0.036 0.28,-0.006 0.082,-0.041 0.173,-0.123 0.279,-0.247zm0.937 -3.346l0.146 0.431 0.636 -0.999c-0.118,-0.057 -0.227,-0.046 -0.331,0.029 -0.095,0.072 -0.217,0.21 -0.36,0.411l-0.091 0.128zm-7.301 0.676l-1.12 -0.97 3.907 -4.51 2.598 0.218 0.586 2.54 -3.089 3.566 -0.406 1.301 -1.531 -1.327 3.424 -3.953 -0.181 -0.745 -0.764 -0.074 -3.424 3.954zm-3.334 -4.584l0.493 0.562 3.757 -3.583 -0.505 -0.55 0.751 -0.717 1.904 1.995 -0.376 0.965 -0.72 -0.652 -3.789 3.613 0.385 0.366 -0.42 1.006 -2.209 -2.309 0.729 -0.696zm-1.508 -1.811l0.003 0.004 3.101 -2.686c0.282,-0.245 0.41,-0.446 0.383,-0.604 -0.024,-0.135 -0.15,-0.335 -0.378,-0.599 -0.053,-0.062 -0.112,-0.127 -0.177,-0.196l-0.484 -0.559 0.922 -0.799 1.055 1.219c0.245,0.282 0.398,0.572 0.46,0.869 0.061,0.297 0.045,0.58 -0.053,0.849 -0.095,0.267 -0.257,0.501 -0.486,0.699l-4.216 3.652 -2.218 -2.56 0.944 -0.817 1.144 1.528zm-4.911 -4.49l1.018 -0.724 0.586 1.032 4.965 -3.531 0.857 1.207 -4.985 3.545 0.845 0.938 -1.017 0.723 -2.269 -3.19zm2.526 -5.392l-1.123 0.646 -0.824 -1.654 -0.723 -1.037 1.123 -0.645 0.476 1.353 1.071 1.337zm-5.813 -6.834l0.525 -2.102 1.271 -0.501c0.4,-0.158 0.794,-0.161 1.183,-0.013 0.389,0.148 0.7,0.453 0.931,0.914l0.335 -0.154 0.272 0.69 -0.345 0.113 0.591 1.5 -2.395 0.944 -0.354 -1.132 1.127 -0.602c-0.044,-0.112 -0.083,-0.217 -0.116,-0.31l-0.01 -0.025 -1.433 0.472 -0.56 2.127 -1.443 0.569c-0.4,0.158 -0.795,0.164 -1.183,0.016 -0.389,-0.148 -0.699,-0.454 -0.927,-0.916l-0.313 0.145 -0.271 -0.69 0.318 -0.103 -0.57 -1.445 2.68 -0.866 0.356 1.132 -1.402 0.552 0.092 0.236 1.641 -0.551zm-0.791 1.153c0.041,-0.012 0.091,-0.03 0.153,-0.052 0.06,-0.022 0.119,-0.045 0.18,-0.069 0.061,-0.024 0.114,-0.046 0.156,-0.062l0.065 -0.02 0.12 -0.48 -1.28 0.591c0.068,0.088 0.147,0.138 0.237,0.147 0.092,0.011 0.213,-0.008 0.369,-0.055zm2.611 -2.291l-0.113 0.44 1.079 -0.49c-0.068,-0.112 -0.166,-0.162 -0.295,-0.156 -0.118,0.008 -0.295,0.057 -0.525,0.148l-0.146 0.058zm-6.526 -3.429l-0.405 -1.425 5.74 -1.629 2.053 1.607 -0.903 2.445 -4.538 1.289 -1.052 0.865 -0.553 -1.949 5.031 -1.429 0.256 -0.722 -0.598 -0.481 -5.031 1.429zm-0.298 -5.367l0.137 0.735 5.058 -1.167 -0.154 -0.731 1.012 -0.234 0.62 2.687 -0.814 0.638 -0.287 -0.928 -5.102 1.178 0.145 0.51 -0.874 0.652 -0.723 -3.113 0.982 -0.227zm-0.319 -2.665l0.001 0.005 4.07 -0.517c0.37,-0.047 0.589,-0.144 0.653,-0.291 0.055,-0.125 0.062,-0.362 0.018,-0.708 -0.011,-0.08 -0.023,-0.167 -0.039,-0.261l-0.093 -0.733 1.21 -0.154 0.203 1.599c0.047,0.37 0.014,0.697 -0.099,0.978 -0.114,0.282 -0.284,0.508 -0.514,0.677 -0.228,0.17 -0.493,0.275 -0.793,0.313l-5.533 0.704 -0.427 -3.36 1.239 -0.158 0.104 1.906zm-1.706 -6.124l1.246 -0.095 -0.031 1.186 6.075 -0.462 0.112 1.476 -6.1 0.464 0.241 1.24 -1.245 0.094 -0.298 -3.903zm5.021 -3.442l-1.291 -0.099 0.25 -1.83 -0.015 -1.264 1.292 0.099 -0.368 1.387 0.132 1.707zm-1.16 -8.752l1.548 -1.515 1.345 0.24c0.423,0.076 0.761,0.279 1.015,0.61 0.254,0.33 0.358,0.752 0.314,1.266l0.366 0.045 -0.131 0.729 -0.353 -0.083 -0.283 1.586 -2.535 -0.452 0.292 -1.15 1.276 0.079c0.02,-0.119 0.042,-0.228 0.063,-0.326l0.005 -0.026 -1.469 -0.349 -1.591 1.518 -1.527 -0.273c-0.424,-0.076 -0.763,-0.278 -1.016,-0.607 -0.253,-0.331 -0.357,-0.752 -0.308,-1.266l-0.343 -0.04 0.13 -0.731 0.326 0.08 0.273 -1.53 2.735 0.669 -0.291 1.15 -1.483 -0.265 -0.045 0.249 1.687 0.392zm-1.279 0.567c0.041,0.01 0.094,0.022 0.158,0.035 0.062,0.013 0.124,0.024 0.189,0.035 0.065,0.012 0.121,0.022 0.166,0.03l0.065 0.017 0.354 -0.346 -1.4 -0.168c0.012,0.111 0.053,0.195 0.125,0.25 0.073,0.056 0.186,0.105 0.343,0.147zm3.425 -0.582l-0.327 0.315 1.176 0.149c0,-0.131 -0.057,-0.225 -0.169,-0.287 -0.106,-0.056 -0.282,-0.106 -0.526,-0.15l-0.154 -0.027zm-3.669 -6.331l0.404 -1.425 5.74 1.63 0.902 2.447 -2.053 1.606 -4.538 -1.289 -1.35 0.183 0.553 -1.949 5.032 1.429 0.597 -0.479 -0.256 -0.724 -5.031 -1.429zm2.785 -4.968l-0.303 0.683 4.83 1.904 0.286 -0.69 0.967 0.381 -1.011 2.565 -1.033 0.064 0.289 -0.927 -4.871 -1.919 -0.17 0.502 -1.089 0.042 1.167 -2.975 0.938 0.37zm1.024 -2.133l-0.003 0.005 3.739 1.69c0.34,0.153 0.577,0.185 0.709,0.093 0.112,-0.077 0.241,-0.275 0.385,-0.593 0.033,-0.074 0.068,-0.155 0.104,-0.242l0.304 -0.674 1.111 0.502 -0.664 1.469c-0.153,0.34 -0.352,0.601 -0.596,0.782 -0.244,0.18 -0.508,0.283 -0.793,0.308 -0.283,0.024 -0.563,-0.025 -0.838,-0.149l-5.083 -2.298 1.395 -3.086 1.138 0.514 -0.908 1.679zm2.044 -6.339l1.083 0.623 -0.693 0.962 5.282 3.037 -0.738 1.284 -5.304 -3.049 -0.499 1.16 -1.082 -0.623 1.951 -3.394zm5.968 0.052l-1.056 -0.75 1.158 -1.439 0.64 -1.091 1.056 0.751 -1.031 0.998 -0.767 1.531zm3.79 -8.113l2.128 -0.408 0.988 0.943c0.311,0.297 0.48,0.653 0.509,1.068 0.03,0.416 -0.117,0.826 -0.438,1.23l0.281 0.239 -0.512 0.536 -0.248 -0.265 -1.113 1.166 -1.863 -1.777 0.879 -0.797 1.02 0.771c0.083,-0.088 0.161,-0.167 0.233,-0.237l0.018 -0.019 -1.031 -1.103 -2.166 0.387 -1.122 -1.071c-0.312,-0.297 -0.483,-0.653 -0.511,-1.067 -0.029,-0.415 0.118,-0.824 0.442,-1.226l-0.263 -0.222 0.511 -0.537 0.228 0.245 1.072 -1.123 1.911 2.068 -0.877 0.798 -1.091 -1.04 -0.174 0.183 1.189 1.258zm-1.379 -0.234c0.029,0.031 0.066,0.069 0.112,0.116 0.045,0.046 0.091,0.089 0.138,0.134 0.047,0.046 0.089,0.085 0.122,0.117l0.045 0.05 0.486 -0.093 -1.074 -0.913c-0.051,0.099 -0.064,0.191 -0.034,0.277 0.029,0.087 0.097,0.19 0.205,0.312zm3.177 1.406l-0.447 0.083 0.898 0.773c0.072,-0.109 0.077,-0.219 0.017,-0.333 -0.057,-0.104 -0.176,-0.244 -0.355,-0.415l-0.113 -0.108zm0.363 -7.332l1.12 -0.97 3.906 4.51 -0.587 2.541 -2.597 0.217 -3.089 -3.566 -1.229 -0.587 1.531 -1.326 3.424 3.953 0.763 -0.073 0.183 -0.746 -3.425 -3.953zm5.007 -2.656l-0.627 0.407 3.008 4.231 0.617 -0.421 0.602 0.846 -2.247 1.598 -0.9 -0.51 0.748 -0.619 -3.034 -4.267 -0.417 0.328 -0.936 -0.559 2.602 -1.856 0.584 0.822zm2.005 -1.24l-0.004 0.002 2.214 3.454c0.202,0.315 0.383,0.47 0.544,0.465 0.136,-0.004 0.352,-0.1 0.646,-0.288 0.068,-0.044 0.141,-0.092 0.219,-0.146l0.622 -0.399 0.659 1.026 -1.357 0.87c-0.314,0.201 -0.624,0.312 -0.926,0.33 -0.303,0.019 -0.581,-0.038 -0.833,-0.173 -0.25,-0.134 -0.459,-0.327 -0.622,-0.582l-3.01 -4.696 2.851 -1.828 0.674 1.052 -1.677 0.913zm5.148 -4.231l0.569 1.112 -1.106 0.43 2.778 5.423 -1.318 0.675 -2.789 -5.445 -1.049 0.701 -0.57 -1.111 3.485 -1.785zm4.967 3.26l-0.475 -1.204 1.756 -0.574 1.131 -0.565 0.475 1.205 -1.408 0.274 -1.479 0.864zm7.609 -4.786l2.001 0.83 0.307 1.33c0.097,0.419 0.042,0.81 -0.162,1.173 -0.204,0.363 -0.552,0.625 -1.042,0.786l0.103 0.354 -0.723 0.166 -0.061 -0.358 -1.57 0.363 -0.58 -2.509 1.173 -0.182 0.428 1.203c0.118,-0.027 0.227,-0.05 0.324,-0.069l0.026 -0.006 -0.255 -1.488 -2.021 -0.868 -0.349 -1.511c-0.096,-0.419 -0.044,-0.811 0.161,-1.172 0.203,-0.363 0.551,-0.624 1.043,-0.781l-0.098 -0.331 0.723 -0.167 0.054 0.33 1.514 -0.349 0.459 2.779 -1.171 0.183 -0.34 -1.468 -0.246 0.057 0.302 1.705zm-1.024 -0.954c0.007,0.043 0.017,0.095 0.03,0.159 0.013,0.063 0.027,0.124 0.042,0.188 0.014,0.064 0.027,0.119 0.038,0.165l0.009 0.066 0.458 0.189 -0.395 -1.353c-0.098,0.055 -0.159,0.125 -0.181,0.213 -0.024,0.089 -0.024,0.212 -0.001,0.373zm1.88 2.922l-0.418 -0.177 0.325 1.139c0.12,-0.05 0.184,-0.14 0.197,-0.268 0.01,-0.118 -0.013,-0.301 -0.068,-0.542l-0.036 -0.152zm4.363 -5.981l1.47 -0.186 0.752 5.919 -1.897 1.789 -2.282 -1.258 -0.595 -4.68 -0.698 -1.17 2.01 -0.256 0.659 5.189 0.676 0.362 0.565 -0.52 -0.66 -5.189zm5.352 0.489l-0.746 0.026 0.394 5.175 0.745 -0.042 0.079 1.036 -2.749 0.209 -0.509 -0.902 0.961 -0.144 -0.398 -5.22 -0.526 0.065 -0.513 -0.961 3.186 -0.247 0.076 1.005zm2.687 0.031l-0.006 0 -0.103 4.101c-0.01,0.374 0.054,0.604 0.189,0.69 0.115,0.073 0.348,0.116 0.697,0.124 0.081,0.002 0.168,0.003 0.264,0.002l0.739 0.018 -0.031 1.219 -1.611 -0.04c-0.373,-0.01 -0.692,-0.092 -0.953,-0.246 -0.26,-0.155 -0.458,-0.358 -0.591,-0.61 -0.133,-0.251 -0.197,-0.529 -0.189,-0.831l0.141 -5.577 3.385 0.086 -0.031 1.249 -1.9 -0.185zm6.315 -0.793l-0.095 1.245 -1.168 -0.21 -0.462 6.075 -1.476 -0.112 0.464 -6.101 -1.261 0.051 0.094 -1.245 3.904 0.297zm2.528 5.476l0.227 -1.276 1.796 0.433 1.259 0.112 -0.228 1.276 -1.342 -0.506 -1.712 -0.039zm8.959 0.044l1.267 1.758 -0.438 1.294c-0.138,0.407 -0.39,0.711 -0.754,0.912 -0.364,0.202 -0.797,0.242 -1.299,0.122l-0.099 0.354 -0.702 -0.237 0.136 -0.337 -1.526 -0.516 0.825 -2.44 1.093 0.461 -0.269 1.249c0.115,0.039 0.22,0.076 0.313,0.112l0.025 0.008 0.565 -1.399 -1.263 -1.801 0.497 -1.469c0.138,-0.408 0.388,-0.713 0.752,-0.913 0.364,-0.202 0.797,-0.241 1.298,-0.117l0.091 -0.333 0.702 0.238 -0.127 0.31 1.472 0.498 -1.069 2.605 -1.094 -0.459 0.483 -1.427 -0.239 -0.081 -0.64 1.608zm-0.369 -1.349c-0.017,0.04 -0.036,0.09 -0.059,0.151 -0.022,0.06 -0.042,0.12 -0.063,0.182 -0.021,0.062 -0.039,0.116 -0.054,0.16l-0.026 0.062 0.289 0.401 0.374 -1.359c-0.111,-0.005 -0.2,0.023 -0.265,0.086 -0.067,0.064 -0.131,0.168 -0.196,0.317zm0.065 3.474l-0.264 -0.37 -0.322 1.14c0.129,0.02 0.23,-0.022 0.309,-0.124 0.07,-0.096 0.147,-0.263 0.226,-0.498l0.051 -0.148zm6.809 -2.724l1.349 0.611 -2.458 5.436 -2.553 0.532 -1.285 -2.267 1.943 -4.299 0.018 -1.362 1.846 0.834 -2.155 4.766 0.386 0.662 0.754 -0.147 2.155 -4.766zm4.508 3.457l-0.632 -0.399 -2.588 4.5 0.641 0.384 -0.518 0.901 -2.391 -1.374 0.088 -1.032 0.874 0.422 2.61 -4.539 -0.472 -0.242 0.117 -1.083 2.773 1.588 -0.502 0.874zm1.961 1.312l-0.004 -0.004 -2.214 3.454c-0.202,0.314 -0.267,0.545 -0.196,0.688 0.061,0.122 0.238,0.279 0.532,0.467 0.068,0.044 0.143,0.09 0.224,0.138l0.623 0.399 -0.658 1.027 -1.357 -0.87c-0.314,-0.201 -0.544,-0.436 -0.687,-0.703 -0.143,-0.268 -0.207,-0.544 -0.19,-0.829 0.016,-0.284 0.106,-0.554 0.269,-0.808l3.01 -4.697 2.852 1.828 -0.674 1.052 -1.53 -1.142zm5.982 2.92l-0.772 0.982 -0.854 -0.825 -3.764 4.791 -1.164 -0.915 3.78 -4.81 -1.076 -0.661 0.771 -0.981 3.079 2.419zm-0.9 5.885l0.894 -0.938 1.258 1.353 0.987 0.789 -0.894 0.937 -0.84 -1.162 -1.405 -0.979zm7.502 4.895l0.099 2.164 -1.073 0.844c-0.339,0.266 -0.715,0.382 -1.13,0.352 -0.416,-0.031 -0.8,-0.233 -1.155,-0.609l-0.276 0.244 -0.459 -0.583 0.299 -0.208 -0.996 -1.267 2.024 -1.592 0.663 0.984 -0.907 0.899c0.075,0.095 0.142,0.184 0.201,0.265l0.016 0.02 1.238 -0.863 -0.074 -2.198 1.22 -0.959c0.338,-0.266 0.715,-0.384 1.129,-0.353 0.415,0.03 0.799,0.234 1.151,0.611l0.258 -0.228 0.457 0.583 -0.274 0.19 0.959 1.221 -2.32 1.597 -0.664 -0.982 1.184 -0.931 -0.156 -0.199 -1.414 0.998zm0.427 -1.332c-0.035,0.024 -0.078,0.056 -0.131,0.095 -0.051,0.038 -0.101,0.077 -0.152,0.118 -0.052,0.04 -0.096,0.075 -0.132,0.103l-0.057 0.038 0.023 0.494 1.057 -0.933c-0.091,-0.065 -0.181,-0.09 -0.27,-0.073 -0.09,0.016 -0.201,0.069 -0.338,0.158zm-1.844 2.944l-0.018 -0.454 -0.893 0.779c0.097,0.087 0.205,0.107 0.326,0.065 0.112,-0.042 0.267,-0.14 0.461,-0.293l0.124 -0.097zm7.217 1.403l0.799 1.247 -5.023 3.22 -2.43 -0.945 0.157 -2.601 3.971 -2.547 0.758 -1.132 1.093 1.705 -4.403 2.823 -0.037 0.766 0.712 0.287 4.403 -2.823zm1.827 5.046l-0.345 -0.663 -4.5 2.588 0.36 0.654 -0.901 0.518 -1.374 -2.391 0.594 -0.847 0.544 0.804 4.539 -2.609 -0.286 -0.447 0.646 -0.877 1.597 2.767 -0.874 0.503zm1.046 2.453l-0.002 -0.005 -3.738 1.69c-0.341,0.154 -0.521,0.311 -0.539,0.471 -0.016,0.135 0.047,0.363 0.191,0.681 0.033,0.074 0.071,0.153 0.113,0.238l0.305 0.674 -1.111 0.502 -0.664 -1.469c-0.154,-0.34 -0.218,-0.661 -0.193,-0.964 0.026,-0.302 0.122,-0.568 0.293,-0.798 0.167,-0.229 0.389,-0.407 0.665,-0.532l5.083 -2.297 1.395 3.086 -1.138 0.514 -0.66 -1.791zm3.459 5.711l-1.183 0.4 -0.265 -1.157 -5.77 1.953 -0.475 -1.402 5.795 -1.961 -0.541 -1.141 1.183 -0.401 1.256 3.709zm-3.927 4.432l1.262 -0.291 0.308 1.821 0.39 1.202 -1.262 0.291 -0.062 -1.433 -0.636 -1.59zm3.659 8.236l-1.121 1.853 -1.362 0.104c-0.429,0.032 -0.807,-0.08 -1.135,-0.336 -0.328,-0.257 -0.535,-0.64 -0.62,-1.149l-0.366 0.049 -0.056 -0.74 0.364 -0.007 -0.123 -1.606 2.567 -0.196 0.005 1.187 -1.255 0.242c0.009,0.12 0.016,0.231 0.02,0.331l0.002 0.026 1.509 -0.029 1.162 -1.867 1.547 -0.118c0.429,-0.032 0.808,0.079 1.134,0.335 0.329,0.256 0.534,0.639 0.616,1.148l0.341 -0.046 0.057 0.739 -0.335 0.005 0.118 1.549 -2.816 0.036 -0.006 -1.186 1.503 -0.114 -0.02 -0.252 -1.73 0.042zm1.096 -0.869c-0.042,0 -0.096,0.002 -0.161,0.006 -0.064,0.003 -0.127,0.008 -0.192,0.013 -0.065,0.005 -0.122,0.009 -0.168,0.012l-0.068 0 -0.256 0.424 1.397 -0.188c-0.039,-0.104 -0.099,-0.175 -0.183,-0.211 -0.084,-0.036 -0.206,-0.055 -0.369,-0.056zm-3.171 1.419l0.238 -0.387 -1.175 0.151c0.032,0.126 0.111,0.203 0.235,0.235 0.116,0.027 0.299,0.032 0.546,0.014l0.156 -0.013zm5.305 4.853l0.037 1.48 -5.964 0.151 -1.589 -2.068 1.482 -2.144 4.717 -0.118 1.234 -0.577 0.052 2.025 -5.229 0.133 -0.428 0.635 0.46 0.615 5.228 -0.132zm-1.253 5.585l0.087 -0.742 -5.176 -0.394 -0.071 0.743 -1.035 -0.079 0.209 -2.749 0.968 -0.366 -0.004 0.971 5.221 0.397 0.015 -0.53 1.028 -0.362 -0.238 3.187 -1.004 -0.076zm-0.376 2.345l0 -0.005 -4.069 -0.518c-0.371,-0.047 -0.606,-0.007 -0.706,0.119 -0.084,0.107 -0.15,0.334 -0.194,0.681 -0.01,0.08 -0.019,0.167 -0.028,0.261l-0.093 0.734 -1.21 -0.154 0.203 -1.599c0.048,-0.37 0.161,-0.678 0.341,-0.922 0.181,-0.244 0.403,-0.42 0.667,-0.527 0.264,-0.107 0.546,-0.142 0.846,-0.104l5.533 0.703 -0.427 3.36 -1.239 -0.158 0.376 -1.871zm-0.142 6.674l-1.217 -0.281 0.383 -1.123 -5.936 -1.37 0.333 -1.443 5.961 1.377 0.14 -1.255 1.216 0.281 -0.88 3.814zm-5.749 1.685l1.227 0.416 -0.696 1.71 -0.299 1.229 -1.228 -0.415 0.701 -1.253 0.295 -1.687zm-1.326 8.865l-1.925 0.995 -1.215 -0.623c-0.383,-0.196 -0.647,-0.488 -0.793,-0.879 -0.146,-0.39 -0.122,-0.824 0.071,-1.303l-0.337 -0.149 0.338 -0.66 0.313 0.184 0.735 -1.435 2.292 1.174 -0.616 1.014 -1.196 -0.449c-0.055,0.108 -0.108,0.206 -0.157,0.293l-0.011 0.024 1.302 0.763 1.965 -0.985 1.381 0.706c0.383,0.196 0.649,0.489 0.793,0.878 0.147,0.39 0.122,0.824 -0.074,1.301l0.315 0.139 -0.338 0.66 -0.288 -0.171 -0.708 1.382 -2.421 -1.439 0.615 -1.014 1.341 0.686 0.115 -0.224 -1.497 -0.868zm1.388 -0.169c-0.036,-0.022 -0.083,-0.048 -0.141,-0.079 -0.055,-0.031 -0.112,-0.059 -0.17,-0.089 -0.059,-0.03 -0.109,-0.056 -0.15,-0.077l-0.058 -0.035 -0.439 0.227 1.289 0.569c0.021,-0.109 0.007,-0.201 -0.046,-0.275 -0.053,-0.075 -0.147,-0.154 -0.285,-0.241zm-3.445 -0.444l0.404 -0.206 -1.08 -0.486c-0.039,0.125 -0.012,0.231 0.077,0.323 0.085,0.085 0.239,0.185 0.459,0.297l0.14 0.072zm1.724 7.137l-0.799 1.247 -5.024 -3.22 -0.155 -2.603 2.429 -0.943 3.972 2.546 1.345 0.215 -1.093 1.705 -4.403 -2.822 -0.711 0.286 0.035 0.766 4.404 2.823zm-4.053 3.965l0.487 -0.567 -4.082 -3.208 -0.472 0.578 -0.817 -0.642 1.704 -2.168 1.007 0.235 -0.543 0.805 4.117 3.236 0.308 -0.433 1.055 0.272 -1.971 2.515 -0.793 -0.623zm-1.571 1.756l0.003 -0.004 -3.101 -2.686c-0.282,-0.244 -0.5,-0.342 -0.653,-0.292 -0.129,0.042 -0.31,0.195 -0.538,0.459 -0.053,0.061 -0.11,0.129 -0.169,0.203l-0.484 0.559 -0.922 -0.799 1.055 -1.218c0.245,-0.282 0.51,-0.476 0.796,-0.579 0.284,-0.103 0.567,-0.127 0.847,-0.069 0.278,0.057 0.532,0.184 0.761,0.381l4.216 3.652 -2.217 2.561 -0.944 -0.818 1.35 -1.35zm-3.732 5.508l-0.862 -0.904 0.937 -0.727 -4.204 -4.409 1.071 -1.022 4.223 4.427 0.806 -0.971 0.862 0.904 -2.833 2.702zm-5.689 -1.721l0.8 1.019 -1.518 1.052 -0.921 0.865 -0.801 -1.019 1.271 -0.665 1.169 -1.252zm-5.91 6.745l-2.156 -0.212 -0.681 -1.185c-0.214,-0.373 -0.275,-0.762 -0.186,-1.168 0.09,-0.407 0.346,-0.759 0.768,-1.055l-0.201 -0.309 0.643 -0.369 0.163 0.324 1.397 -0.803 1.284 2.232 -1.069 0.515 -0.76 -1.027c-0.104,0.06 -0.202,0.114 -0.29,0.161l-0.023 0.013 0.677 1.349 2.186 0.243 0.773 1.345c0.214,0.373 0.278,0.763 0.188,1.168 -0.09,0.407 -0.347,0.757 -0.771,1.051l0.189 0.288 -0.643 0.37 -0.149 -0.301 -1.346 0.775 -1.247 -2.525 1.067 -0.517 0.751 1.306 0.22 -0.126 -0.784 -1.543zm1.256 0.615c-0.018,-0.039 -0.044,-0.086 -0.075,-0.144 -0.03,-0.055 -0.061,-0.111 -0.094,-0.167 -0.033,-0.057 -0.061,-0.106 -0.084,-0.147l-0.029 -0.06 -0.492 -0.049 0.771 1.18c0.078,-0.08 0.115,-0.166 0.111,-0.256 -0.003,-0.092 -0.039,-0.21 -0.108,-0.357zm-2.648 -2.249l0.452 0.047 -0.642 -0.996c-0.101,0.084 -0.136,0.188 -0.111,0.314 0.025,0.117 0.099,0.284 0.223,0.499l0.078 0.136zm-2.427 6.957l-1.35 0.61 -2.458 -5.437 1.287 -2.268 2.551 0.533 1.944 4.299 1.011 0.913 -1.846 0.834 -2.155 -4.765 -0.752 -0.148 -0.387 0.663 2.155 4.766zm-5.26 1.085l0.707 -0.245 -1.905 -4.83 -0.699 0.261 -0.381 -0.966 2.565 -1.012 0.752 0.712 -0.876 0.42 1.92 4.872 0.484 -0.219 0.774 0.768 -2.971 1.176 -0.37 -0.937zm-2.581 0.7l0.005 -0.002 -1.12 -3.946c-0.103,-0.359 -0.232,-0.561 -0.387,-0.602 -0.131,-0.036 -0.366,-0.007 -0.702,0.088 -0.077,0.022 -0.162,0.048 -0.252,0.077l-0.711 0.202 -0.333 -1.173 1.55 -0.44c0.359,-0.102 0.687,-0.119 0.982,-0.049 0.296,0.071 0.545,0.205 0.747,0.407 0.201,0.2 0.345,0.446 0.428,0.737l1.523 5.366 -3.258 0.925 -0.341 -1.201 1.869 -0.389zm-5.797 2.597l-0.281 -1.217 1.177 -0.148 -1.37 -5.936 1.443 -0.333 1.375 5.961 1.189 -0.425 0.281 1.217 -3.814 0.881zm-4.162 -4.492l0.098 1.292 -1.847 0.03 -1.247 0.205 -0.098 -1.291 1.426 0.154 1.668 -0.39zm10.54 -88.945l-6.087 11.872 -0.591 -0.488 -2.411 -1.998 -1.91 3.59 -5.951 -2.81 -0.297 0.14 -5.652 2.67 -1.91 -3.59 -1.158 0.959 -1.845 1.526 -6.087 -11.871 0 0.002 -0.001 -0.002 -5.123 10.166 0 4.317 0.003 -0.004 0 5.78 2.146 2.13 -2.146 -0.467 0 3.914 44.141 0 0 -3.914 -2.146 0.467 2.146 -2.13 0 -5.779 0.002 0.003 0 -4.317 -5.123 -10.166zm5.607 30.429l-1.925 0c0.132,0.381 0.251,0.766 0.358,1.155l-0.001 0 0.035 0.125c0.051,0.197 0.102,0.399 0.147,0.603 0.039,0.18 0.078,0.36 0.118,0.54 0.023,0.119 0.045,0.237 0.068,0.355 0.033,0.192 0.067,0.383 0.095,0.575 0.04,0.248 0.074,0.49 0.102,0.738 0.034,0.248 0.056,0.496 0.079,0.75 0.812,9.281 -3.826,19.012 -4.091,19.57l-0.012 0.011c-0.005,0.006 -0.005,0.011 -0.005,0.011l2.935 0 0.001 -0.001 2.78 0c0,0 -0.321,0.886 -1.065,2.278l-0.001 0.002c-0.043,0.081 -0.088,0.165 -0.135,0.249l-0.001 0.002c-0.046,0.085 -0.094,0.171 -0.143,0.258 -2.237,3.985 -7.536,11.192 -17.839,14.529l0 -14.471 0.958 -4.536 -2.231 -4.113 0.439 -3.218 0.096 -0.694 0.234 -1.714 10.011 0 1.701 -5.098 -12.937 1.589 -0.942 9.135 -0.185 1.814 -2.807 0 0 -0.002 -0.186 -1.812 0 -0.003 0 0 -0.941 -9.132 -12.938 -1.589 1.701 5.098 10.011 0 0.213 1.558 0.117 0.85 0.44 3.218 -2.232 4.113 0.958 4.536 0 14.471c-9.843,-3.188 -15.119,-9.909 -17.52,-13.976l-0.001 -0.003c-0.056,-0.093 -0.11,-0.186 -0.162,-0.277l-0.002 -0.002c-0.052,-0.091 -0.103,-0.181 -0.152,-0.268l-0.001 -0.003c-0.05,-0.087 -0.097,-0.173 -0.143,-0.258 -0.843,-1.536 -1.202,-2.531 -1.202,-2.531l2.78 0 0.001 0.001 2.935 0c0,0 0,-0.005 -0.007,-0.011l-0.01 -0.011c-0.265,-0.558 -4.903,-10.289 -4.091,-19.57 0.023,-0.254 0.045,-0.502 0.078,-0.75 0.029,-0.248 0.063,-0.49 0.102,-0.738 0.028,-0.192 0.062,-0.383 0.096,-0.575 0.023,-0.118 0.045,-0.236 0.068,-0.355 0.039,-0.18 0.078,-0.36 0.118,-0.54 0.045,-0.204 0.096,-0.406 0.146,-0.603l0.035 -0.125 -0.001 0c0.107,-0.389 0.226,-0.774 0.358,-1.155l-1.548 0c-0.471,0 -0.852,-0.381 -0.852,-0.851l0 -0.023 0 -0.901 0 -1.41 46.847 0 0 1.41 0 0.901 0 0.023c0,0.47 -0.382,0.851 -0.852,0.851zm-38.529 -8.04c-2.184,0 -3.952,-1.768 -3.952,-3.952 0,-2.184 1.768,-3.957 3.952,-3.957 2.185,0 3.958,1.773 3.958,3.957 0,2.184 -1.773,3.952 -3.958,3.952zm31.939 0c-2.184,0 -3.952,-1.768 -3.952,-3.952 0,-2.184 1.768,-3.957 3.952,-3.957 2.185,0 3.957,1.773 3.957,3.957 0,2.184 -1.772,3.952 -3.957,3.952zm2.451 -3.952c0,-1.352 -1.096,-2.449 -2.449,-2.449 -1.353,0 -2.448,1.097 -2.448,2.449 0,1.352 1.095,2.449 2.448,2.449 1.353,0 2.449,-1.097 2.449,-2.449zm-18.423 5.484c-2.184,0 -3.952,-1.768 -3.952,-3.953 0,-2.184 1.768,-3.957 3.952,-3.957 2.185,0 3.957,1.773 3.957,3.957 0,2.185 -1.772,3.953 -3.957,3.953zm2.451 -3.953c0,-1.352 -1.096,-2.449 -2.449,-2.449 -1.352,0 -2.449,1.097 -2.449,2.449 0,1.353 1.097,2.449 2.449,2.449 1.353,0 2.449,-1.096 2.449,-2.449zm-15.967 -1.531c0,-1.352 -1.096,-2.449 -2.448,-2.449 -1.353,0 -2.45,1.097 -2.45,2.449 0,1.352 1.097,2.449 2.45,2.449 1.352,0 2.448,-1.097 2.448,-2.449zm13.403 -46.387c17.683,0 33.694,7.168 45.282,18.757 11.589,11.588 18.757,27.599 18.757,45.283 0,17.683 -7.168,33.694 -18.757,45.282 -11.588,11.589 -27.599,18.757 -45.282,18.757 -17.684,0 -33.695,-7.168 -45.283,-18.757 -11.589,-11.588 -18.757,-27.599 -18.757,-45.282 0,-17.684 7.168,-33.695 18.757,-45.283 11.588,-11.589 27.599,-18.757 45.283,-18.757zm43.649 20.391c-11.171,-11.171 -26.603,-18.08 -43.649,-18.08 -17.046,0 -32.479,6.909 -43.649,18.08 -11.171,11.17 -18.08,26.603 -18.08,43.649 0,17.046 6.909,32.478 18.08,43.648 11.17,11.171 26.603,18.08 43.649,18.08 17.046,0 32.478,-6.909 43.649,-18.08 11.17,-11.17 18.079,-26.602 18.079,-43.648 0,-17.046 -6.909,-32.479 -18.079,-43.649zm-50.93 -25.538c-1.277,0.132 -2.571,0.297 -3.839,0.508l0.126 0.759c1.255,-0.206 2.531,-0.37 3.796,-0.501l-0.083 -0.766zm7.281 -0.377c-1.144,0.004 -2.278,0.029 -3.42,0.083l0.04 0.769c2.403,-0.116 4.806,-0.107 7.209,0.024l0.039 -0.77c-1.291,-0.07 -2.575,-0.102 -3.868,-0.106zm-14.925 1.605c-1.252,0.277 -2.525,0.578 -3.757,0.933l0.21 0.74c1.233,-0.342 2.467,-0.644 3.716,-0.921l-0.169 -0.752zm-7.458 2.075c-1.219,0.416 -2.435,0.862 -3.629,1.347l0.291 0.713c1.186,-0.478 2.38,-0.919 3.59,-1.332l-0.252 -0.728zm-7.178 2.895c-1.169,0.551 -2.319,1.131 -3.456,1.745l0.368 0.677c1.125,-0.607 2.261,-1.181 3.418,-1.726l-0.33 -0.696zm-6.81 3.679c-1.1,0.676 -2.181,1.384 -3.243,2.119l0.443 0.631c1.03,-0.731 2.128,-1.433 3.204,-2.094l-0.404 -0.656zm-6.361 4.414c-1.017,0.794 -2.013,1.615 -2.986,2.464l0.509 0.579c0.964,-0.84 1.945,-1.65 2.953,-2.437l-0.476 -0.606zm-5.831 5.089c-0.925,0.888 -1.829,1.836 -2.698,2.78l0.57 0.518c0.853,-0.933 1.755,-1.872 2.666,-2.747l-0.538 -0.551zm-5.235 5.703c-0.82,1.002 -1.605,2.017 -2.372,3.059l0.622 0.454c0.758,-1.031 1.536,-2.036 2.347,-3.027l-0.597 -0.486zm-4.572 6.246c-0.692,1.099 -1.374,2.175 -2.019,3.305l0.669 0.38c0.649,-1.115 1.31,-2.176 1.996,-3.266l-0.646 -0.419zm-3.85 6.716c-0.579,1.155 -1.125,2.323 -1.639,3.508l0.708 0.304c0.51,-1.172 1.047,-2.325 1.621,-3.469l-0.69 -0.343zm-3.078 7.102c-0.447,1.214 -0.854,2.434 -1.236,3.67l0.737 0.224c0.376,-1.221 0.781,-2.43 1.222,-3.629l-0.723 -0.265zm-2.264 7.403c-0.308,1.256 -0.577,2.515 -0.817,3.786l0.757 0.139c0.238,-1.256 0.504,-2.501 0.809,-3.742l-0.749 -0.183zm-1.421 7.61c-0.165,1.284 -0.293,2.562 -0.391,3.852l0.768 0.055c0.093,-1.274 0.225,-2.543 0.387,-3.81l-0.764 -0.097zm-0.569 7.721c-0.02,1.293 -0.012,2.578 0.036,3.87l0.769 -0.029c-0.044,-1.281 -0.054,-2.55 -0.035,-3.831l-0.77 -0.01zm0.282 7.734c0.117,1.28 0.264,2.576 0.46,3.846l0.762 -0.116c-0.192,-1.258 -0.339,-2.536 -0.455,-3.802l-0.767 0.072zm1.134 7.659c0.261,1.257 0.548,2.531 0.886,3.769l0.743 -0.201c-0.325,-1.237 -0.615,-2.474 -0.875,-3.727l-0.754 0.159zm1.982 7.483c0.402,1.227 0.832,2.444 1.302,3.646l0.717 -0.282c-0.469,-1.183 -0.892,-2.398 -1.288,-3.606l-0.731 0.242zm2.807 7.214c0.534,1.175 1.102,2.334 1.702,3.478l0.681 -0.36c-0.593,-1.133 -1.153,-2.276 -1.683,-3.439l-0.7 0.321zm3.594 6.855c0.655,1.099 1.354,2.214 2.079,3.269l0.636 -0.435c-0.71,-1.065 -1.398,-2.13 -2.054,-3.23l-0.661 0.396zm4.336 6.414c0.783,1.029 1.59,2.031 2.427,3.017l0.585 -0.502c-0.828,-0.972 -1.627,-1.967 -2.401,-2.984l-0.611 0.469zm5.017 5.893c0.885,0.937 1.809,1.848 2.746,2.732l0.525 -0.564c-0.926,-0.869 -1.842,-1.776 -2.714,-2.699l-0.557 0.531zm5.639 5.305c0.988,0.832 1.997,1.632 3.03,2.409l0.461 -0.616c-1.022,-0.769 -2.02,-1.562 -2.997,-2.385l-0.494 0.592zm6.189 4.648c1.078,0.712 2.165,1.405 3.28,2.06l0.388 -0.666c-1.102,-0.645 -2.176,-1.331 -3.241,-2.035l-0.427 0.641zm6.668 3.933c1.15,0.592 2.308,1.151 3.488,1.681l0.313 -0.704c-1.167,-0.522 -2.313,-1.078 -3.449,-1.663l-0.352 0.686zm7.064 3.164c1.207,0.463 2.424,0.885 3.654,1.282l0.234 -0.734c-1.217,-0.392 -2.421,-0.81 -3.614,-1.267l-0.274 0.719zm7.374 2.356c1.251,0.324 2.508,0.608 3.775,0.864l0.149 -0.756c-1.252,-0.253 -2.495,-0.533 -3.732,-0.854l-0.192 0.746zm7.592 1.515c1.279,0.181 2.56,0.327 3.847,0.438l0.064 -0.767c-1.275,-0.113 -2.537,-0.255 -3.805,-0.434l-0.106 0.763zm7.713 0.663c1.294,0.035 2.577,0.042 3.87,0.012l-0.019 -0.771c-1.281,0.03 -2.551,0.024 -3.831,-0.011l-0.02 0.77zm7.738 -0.188c1.288,-0.102 2.57,-0.241 3.85,-0.413l-0.106 -0.763c-1.262,0.175 -2.538,0.308 -3.808,0.408l0.064 0.768zm7.671 -1.04c1.26,-0.245 2.539,-0.516 3.781,-0.839l-0.192 -0.746c-1.237,0.314 -2.486,0.586 -3.738,0.83l0.149 0.755zm7.508 -1.889c1.229,-0.386 2.457,-0.8 3.662,-1.258l-0.274 -0.719c-1.189,0.453 -2.408,0.862 -3.622,1.243l0.234 0.734zm7.248 -2.718c1.183,-0.521 2.346,-1.073 3.498,-1.658l-0.351 -0.686c-1.138,0.58 -2.292,1.126 -3.461,1.64l0.314 0.704zm6.898 -3.509c1.118,-0.644 2.213,-1.332 3.292,-2.038l-0.423 -0.643c-1.068,0.698 -2.151,1.379 -3.257,2.015l0.388 0.666zm6.467 -4.257c1.039,-0.77 2.05,-1.565 3.047,-2.39l-0.495 -0.591c-0.98,0.817 -1.988,1.605 -3.013,2.364l0.461 0.617zm5.955 -4.944c0.936,-0.872 1.886,-1.784 2.764,-2.714l-0.557 -0.531c-0.861,0.918 -1.81,1.823 -2.732,2.681l0.525 0.564zm5.372 -5.574c0.844,-0.98 1.657,-1.977 2.447,-3l-0.611 -0.469c-0.782,1.012 -1.586,1.998 -2.42,2.968l0.584 0.501zm4.723 -6.132c0.733,-1.058 1.433,-2.155 2.101,-3.255l-0.661 -0.395c-0.661,1.086 -1.352,2.169 -2.076,3.215l0.636 0.435zm4.015 -6.619c0.607,-1.143 1.179,-2.294 1.725,-3.467l-0.7 -0.321c-0.537,1.159 -1.107,2.299 -1.706,3.428l0.681 0.36zm3.253 -7.025c0.476,-1.202 0.913,-2.412 1.326,-3.637l-0.731 -0.243c-0.407,1.212 -0.841,2.409 -1.312,3.598l0.717 0.282zm2.445 -7.344c0.339,-1.247 0.641,-2.5 0.911,-3.763l-0.753 -0.159c-0.269,1.249 -0.566,2.488 -0.901,3.721l0.743 0.201zm1.61 -7.572c0.195,-1.278 0.358,-2.556 0.485,-3.843l-0.767 -0.072c-0.128,1.274 -0.286,2.533 -0.48,3.799l0.762 0.116zm0.757 -7.705c0.051,-1.293 0.072,-2.576 0.058,-3.869l-0.77 0.009c0.014,1.28 -0.006,2.552 -0.058,3.831l0.77 0.029zm-0.095 -7.739c-0.084,-1.284 -0.205,-2.578 -0.366,-3.855l-0.764 0.097c0.157,1.265 0.278,2.54 0.362,3.812l0.768 -0.054zm-0.946 -7.684c-0.23,-1.269 -0.49,-2.535 -0.792,-3.79l-0.748 0.182c0.301,1.237 0.557,2.496 0.783,3.748l0.757 -0.14zm-1.795 -7.53c-0.371,-1.233 -0.769,-2.469 -1.212,-3.677l-0.723 0.264c0.437,1.198 0.831,2.416 1.198,3.637l0.737 -0.224zm-2.628 -7.281c-0.506,-1.188 -1.043,-2.361 -1.615,-3.519l-0.69 0.343c0.566,1.143 1.098,2.307 1.598,3.48l0.707 -0.304zm-3.424 -6.942c-0.632,-1.125 -1.303,-2.229 -1.998,-3.317l-0.647 0.416c0.686,1.077 1.35,2.168 1.975,3.281l0.67 -0.38zm-4.177 -6.519c-0.757,-1.046 -1.539,-2.072 -2.352,-3.074l-0.598 0.486c0.805,0.995 1.578,2.006 2.328,3.042l0.622 -0.454zm-4.871 -6.014c-0.87,-0.961 -1.763,-1.881 -2.68,-2.798l-0.538 0.552c0.906,0.905 1.788,1.814 2.647,2.764l0.571 -0.518zm-5.508 -5.44c-0.97,-0.855 -1.956,-1.681 -2.97,-2.484l-0.476 0.607c1.003,0.79 1.98,1.612 2.938,2.456l0.508 -0.579zm-6.073 -4.798c-1.064,-0.746 -2.133,-1.444 -3.229,-2.14l-0.405 0.655c1.084,0.673 2.147,1.383 3.191,2.116l0.443 -0.631zm-6.57 -4.096c-1.133,-0.62 -2.28,-1.21 -3.445,-1.767l-0.331 0.696c1.153,0.554 2.286,1.134 3.408,1.748l0.368 -0.677zm-6.984 -3.339c-1.195,-0.491 -2.402,-0.945 -3.621,-1.37l-0.251 0.728c1.206,0.42 2.4,0.87 3.581,1.356l0.291 -0.714zm-7.313 -2.536c-1.243,-0.357 -2.493,-0.669 -3.752,-0.958l-0.169 0.752c1.245,0.283 2.484,0.595 3.71,0.946l0.211 -0.74zm-7.552 -1.703c-1.277,-0.211 -2.549,-0.387 -3.835,-0.532l-0.084 0.765c1.27,0.142 2.532,0.318 3.793,0.527l0.126 -0.76zm41.114 15.929c-13.481,-13.481 -32.105,-21.82 -52.677,-21.82 -20.572,0 -39.197,8.339 -52.678,21.82 -13.481,13.481 -21.82,32.106 -21.82,52.678 0,20.572 8.339,39.196 21.82,52.677 13.481,13.481 32.106,21.819 52.678,21.819 20.572,0 39.196,-8.338 52.677,-21.819 13.481,-13.481 21.82,-32.105 21.82,-52.677 0,-20.572 -8.339,-39.197 -21.82,-52.678z"/>
 </g>
</svg>
