<svg width="1280" height="85" viewBox="0 0 1280 85" fill="none" xmlns="http://www.w3.org/2000/svg">
<path d="M1062.5 80.7599H286.95L286.76 80.5699L266 60.3499L287 39.9399H1062.5L1062.7 40.1299L1083.45 60.3499L1062.5 80.7599Z" fill="black"/>
<path d="M1066.3 83.7H282.79L282.59 83.48L259 60.35L282.79 37H1066.3L1066.5 37.21L1090.09 60.35L1066.3 83.7Z" stroke="url(#paint0_radial_121_114)" stroke-miterlimit="10"/>
<path d="M1090 60L1280 60" stroke="#A36700" stroke-miterlimit="10"/>
<path d="M0 60L259 60" stroke="#A36700" stroke-miterlimit="10"/>
<path style="mix-blend-mode:screen" d="M541 36.56H738.79C739.79 36.37 740.31 36.17 740.31 35.98C740.31 34.13 695.31 32.63 639.88 32.63C584.45 32.63 539.45 34.13 539.45 36C539.45 36.17 540 36.37 541 36.56Z" fill="url(#paint1_radial_121_114)"/>
<path style="mix-blend-mode:screen" d="M674.67 36.87C674.67 38.87 659.09 40.48 639.88 40.48C620.67 40.48 605.09 38.87 605.09 36.87C605.09 34.87 620.67 33.27 639.88 33.27C659.09 33.27 674.67 34.88 674.67 36.87Z" fill="url(#paint2_radial_121_114)"/>
<path style="mix-blend-mode:screen" d="M707.81 36.87C707.81 46.3 685.46 53.9501 657.88 53.9501C630.3 53.9501 607.94 46.3 607.94 36.87C607.94 27.44 630.3 19.8 657.88 19.8C685.46 19.8 707.81 27.44 707.81 36.87Z" fill="url(#paint3_radial_121_114)"/>
<path style="mix-blend-mode:screen" d="M657.88 72C656.3 72 655 55.88 655 36C655 16.12 656.29 0 657.87 0C659.45 0 660.74 16.12 660.74 36C660.74 55.88 659.46 72 657.88 72Z" fill="url(#paint4_radial_121_114)"/>
<path style="mix-blend-mode:screen" d="M675.68 53.8C674.89 54.58 666.29 47.25 656.46 37.42C646.63 27.59 639.3 19 640.08 18.2C640.86 17.4 649.47 24.75 659.3 34.58C669.13 44.41 676.46 53 675.68 53.8Z" fill="url(#paint5_radial_121_114)"/>
<path style="mix-blend-mode:screen" d="M640.057 53.8C639.277 53.01 646.607 44.41 656.437 34.58C666.267 24.75 674.867 17.42 675.657 18.2C676.447 18.98 669.107 27.59 659.277 37.42C649.447 47.25 640.847 54.58 640.057 53.8Z" fill="url(#paint6_radial_121_114)"/>
<path d="M495.531 56.6328L491.766 67H490.227L494.562 55.625H495.555L495.531 56.6328ZM498.688 67L494.914 56.6328L494.891 55.625H495.883L500.234 67H498.688ZM498.492 62.7891V64.0234H492.102V62.7891H498.492ZM508.891 65.9688C509.234 65.9688 509.552 65.8984 509.844 65.7578C510.135 65.6172 510.375 65.4245 510.562 65.1797C510.75 64.9297 510.857 64.6458 510.883 64.3281H512.258C512.232 64.8281 512.062 65.2943 511.75 65.7266C511.443 66.1536 511.039 66.5 510.539 66.7656C510.039 67.026 509.49 67.1562 508.891 67.1562C508.255 67.1562 507.701 67.0443 507.227 66.8203C506.758 66.5964 506.367 66.2891 506.055 65.8984C505.747 65.5078 505.516 65.0599 505.359 64.5547C505.208 64.0443 505.133 63.5052 505.133 62.9375V62.6094C505.133 62.0417 505.208 61.5052 505.359 61C505.516 60.4896 505.747 60.0391 506.055 59.6484C506.367 59.2578 506.758 58.9505 507.227 58.7266C507.701 58.5026 508.255 58.3906 508.891 58.3906C509.552 58.3906 510.13 58.526 510.625 58.7969C511.12 59.0625 511.508 59.4271 511.789 59.8906C512.076 60.349 512.232 60.8698 512.258 61.4531H510.883C510.857 61.1042 510.758 60.7891 510.586 60.5078C510.419 60.2266 510.19 60.0026 509.898 59.8359C509.612 59.6641 509.276 59.5781 508.891 59.5781C508.448 59.5781 508.076 59.6667 507.773 59.8438C507.477 60.0156 507.24 60.25 507.062 60.5469C506.891 60.8385 506.766 61.1641 506.688 61.5234C506.615 61.8776 506.578 62.2396 506.578 62.6094V62.9375C506.578 63.3073 506.615 63.6719 506.688 64.0312C506.76 64.3906 506.883 64.7161 507.055 65.0078C507.232 65.2995 507.469 65.5339 507.766 65.7109C508.068 65.8828 508.443 65.9688 508.891 65.9688ZM513.5 62.8672V62.6875C513.5 62.0781 513.589 61.513 513.766 60.9922C513.943 60.4661 514.198 60.0104 514.531 59.625C514.865 59.2344 515.268 58.9323 515.742 58.7188C516.216 58.5 516.747 58.3906 517.336 58.3906C517.93 58.3906 518.464 58.5 518.938 58.7188C519.417 58.9323 519.823 59.2344 520.156 59.625C520.495 60.0104 520.753 60.4661 520.93 60.9922C521.107 61.513 521.195 62.0781 521.195 62.6875V62.8672C521.195 63.4766 521.107 64.0417 520.93 64.5625C520.753 65.0833 520.495 65.5391 520.156 65.9297C519.823 66.3151 519.419 66.6172 518.945 66.8359C518.477 67.0495 517.945 67.1562 517.352 67.1562C516.758 67.1562 516.224 67.0495 515.75 66.8359C515.276 66.6172 514.87 66.3151 514.531 65.9297C514.198 65.5391 513.943 65.0833 513.766 64.5625C513.589 64.0417 513.5 63.4766 513.5 62.8672ZM514.945 62.6875V62.8672C514.945 63.2891 514.995 63.6875 515.094 64.0625C515.193 64.4323 515.341 64.7604 515.539 65.0469C515.742 65.3333 515.995 65.5599 516.297 65.7266C516.599 65.888 516.951 65.9688 517.352 65.9688C517.747 65.9688 518.094 65.888 518.391 65.7266C518.693 65.5599 518.943 65.3333 519.141 65.0469C519.339 64.7604 519.487 64.4323 519.586 64.0625C519.69 63.6875 519.742 63.2891 519.742 62.8672V62.6875C519.742 62.2708 519.69 61.8776 519.586 61.5078C519.487 61.1328 519.336 60.8021 519.133 60.5156C518.935 60.224 518.685 59.9948 518.383 59.8281C518.086 59.6615 517.737 59.5781 517.336 59.5781C516.94 59.5781 516.591 59.6615 516.289 59.8281C515.992 59.9948 515.742 60.224 515.539 60.5156C515.341 60.8021 515.193 61.1328 515.094 61.5078C514.995 61.8776 514.945 62.2708 514.945 62.6875ZM524.578 55V67H523.125V55H524.578ZM528.469 55V67H527.016V55H528.469ZM534.297 67.1562C533.708 67.1562 533.174 67.0573 532.695 66.8594C532.221 66.6562 531.812 66.3724 531.469 66.0078C531.13 65.6432 530.87 65.2109 530.688 64.7109C530.505 64.2109 530.414 63.6641 530.414 63.0703V62.7422C530.414 62.0547 530.516 61.4427 530.719 60.9062C530.922 60.3646 531.198 59.9062 531.547 59.5312C531.896 59.1562 532.292 58.8724 532.734 58.6797C533.177 58.487 533.635 58.3906 534.109 58.3906C534.714 58.3906 535.234 58.4948 535.672 58.7031C536.115 58.9115 536.477 59.2031 536.758 59.5781C537.039 59.9479 537.247 60.3854 537.383 60.8906C537.518 61.3906 537.586 61.9375 537.586 62.5312V63.1797H531.273V62H536.141V61.8906C536.12 61.5156 536.042 61.151 535.906 60.7969C535.776 60.4427 535.568 60.151 535.281 59.9219C534.995 59.6927 534.604 59.5781 534.109 59.5781C533.781 59.5781 533.479 59.6484 533.203 59.7891C532.927 59.9245 532.69 60.1276 532.492 60.3984C532.294 60.6693 532.141 61 532.031 61.3906C531.922 61.7812 531.867 62.2318 531.867 62.7422V63.0703C531.867 63.4714 531.922 63.849 532.031 64.2031C532.146 64.5521 532.31 64.8594 532.523 65.125C532.742 65.3906 533.005 65.599 533.312 65.75C533.625 65.901 533.979 65.9766 534.375 65.9766C534.885 65.9766 535.318 65.8724 535.672 65.6641C536.026 65.4557 536.336 65.1771 536.602 64.8281L537.477 65.5234C537.294 65.7995 537.062 66.0625 536.781 66.3125C536.5 66.5625 536.154 66.7656 535.742 66.9219C535.336 67.0781 534.854 67.1562 534.297 67.1562ZM542.656 65.9688C543 65.9688 543.318 65.8984 543.609 65.7578C543.901 65.6172 544.141 65.4245 544.328 65.1797C544.516 64.9297 544.622 64.6458 544.648 64.3281H546.023C545.997 64.8281 545.828 65.2943 545.516 65.7266C545.208 66.1536 544.805 66.5 544.305 66.7656C543.805 67.026 543.255 67.1562 542.656 67.1562C542.021 67.1562 541.466 67.0443 540.992 66.8203C540.523 66.5964 540.133 66.2891 539.82 65.8984C539.513 65.5078 539.281 65.0599 539.125 64.5547C538.974 64.0443 538.898 63.5052 538.898 62.9375V62.6094C538.898 62.0417 538.974 61.5052 539.125 61C539.281 60.4896 539.513 60.0391 539.82 59.6484C540.133 59.2578 540.523 58.9505 540.992 58.7266C541.466 58.5026 542.021 58.3906 542.656 58.3906C543.318 58.3906 543.896 58.526 544.391 58.7969C544.885 59.0625 545.273 59.4271 545.555 59.8906C545.841 60.349 545.997 60.8698 546.023 61.4531H544.648C544.622 61.1042 544.523 60.7891 544.352 60.5078C544.185 60.2266 543.956 60.0026 543.664 59.8359C543.378 59.6641 543.042 59.5781 542.656 59.5781C542.214 59.5781 541.841 59.6667 541.539 59.8438C541.242 60.0156 541.005 60.25 540.828 60.5469C540.656 60.8385 540.531 61.1641 540.453 61.5234C540.38 61.8776 540.344 62.2396 540.344 62.6094V62.9375C540.344 63.3073 540.38 63.6719 540.453 64.0312C540.526 64.3906 540.648 64.7161 540.82 65.0078C540.997 65.2995 541.234 65.5339 541.531 65.7109C541.833 65.8828 542.208 65.9688 542.656 65.9688ZM551.188 58.5469V59.6562H546.617V58.5469H551.188ZM548.164 56.4922H549.609V64.9062C549.609 65.1927 549.654 65.4089 549.742 65.5547C549.831 65.7005 549.945 65.7969 550.086 65.8438C550.227 65.8906 550.378 65.9141 550.539 65.9141C550.659 65.9141 550.784 65.9036 550.914 65.8828C551.049 65.8568 551.151 65.8359 551.219 65.8203L551.227 67C551.112 67.0365 550.961 67.0703 550.773 67.1016C550.591 67.138 550.37 67.1562 550.109 67.1562C549.755 67.1562 549.43 67.0859 549.133 66.9453C548.836 66.8047 548.599 66.5703 548.422 66.2422C548.25 65.9089 548.164 65.4609 548.164 64.8984V56.4922ZM554.453 58.5469V67H553V58.5469H554.453ZM552.891 56.3047C552.891 56.0703 552.961 55.8724 553.102 55.7109C553.247 55.5495 553.461 55.4688 553.742 55.4688C554.018 55.4688 554.229 55.5495 554.375 55.7109C554.526 55.8724 554.602 56.0703 554.602 56.3047C554.602 56.5286 554.526 56.7214 554.375 56.8828C554.229 57.0391 554.018 57.1172 553.742 57.1172C553.461 57.1172 553.247 57.0391 553.102 56.8828C552.961 56.7214 552.891 56.5286 552.891 56.3047ZM556.391 62.8672V62.6875C556.391 62.0781 556.479 61.513 556.656 60.9922C556.833 60.4661 557.089 60.0104 557.422 59.625C557.755 59.2344 558.159 58.9323 558.633 58.7188C559.107 58.5 559.638 58.3906 560.227 58.3906C560.82 58.3906 561.354 58.5 561.828 58.7188C562.307 58.9323 562.714 59.2344 563.047 59.625C563.385 60.0104 563.643 60.4661 563.82 60.9922C563.997 61.513 564.086 62.0781 564.086 62.6875V62.8672C564.086 63.4766 563.997 64.0417 563.82 64.5625C563.643 65.0833 563.385 65.5391 563.047 65.9297C562.714 66.3151 562.31 66.6172 561.836 66.8359C561.367 67.0495 560.836 67.1562 560.242 67.1562C559.648 67.1562 559.115 67.0495 558.641 66.8359C558.167 66.6172 557.76 66.3151 557.422 65.9297C557.089 65.5391 556.833 65.0833 556.656 64.5625C556.479 64.0417 556.391 63.4766 556.391 62.8672ZM557.836 62.6875V62.8672C557.836 63.2891 557.885 63.6875 557.984 64.0625C558.083 64.4323 558.232 64.7604 558.43 65.0469C558.633 65.3333 558.885 65.5599 559.188 65.7266C559.49 65.888 559.841 65.9688 560.242 65.9688C560.638 65.9688 560.984 65.888 561.281 65.7266C561.583 65.5599 561.833 65.3333 562.031 65.0469C562.229 64.7604 562.378 64.4323 562.477 64.0625C562.581 63.6875 562.633 63.2891 562.633 62.8672V62.6875C562.633 62.2708 562.581 61.8776 562.477 61.5078C562.378 61.1328 562.227 60.8021 562.023 60.5156C561.826 60.224 561.576 59.9948 561.273 59.8281C560.977 59.6615 560.628 59.5781 560.227 59.5781C559.831 59.5781 559.482 59.6615 559.18 59.8281C558.883 59.9948 558.633 60.224 558.43 60.5156C558.232 60.8021 558.083 61.1328 557.984 61.5078C557.885 61.8776 557.836 62.2708 557.836 62.6875ZM567.344 60.3516V67H565.898V58.5469H567.266L567.344 60.3516ZM567 62.4531L566.398 62.4297C566.404 61.8516 566.49 61.3177 566.656 60.8281C566.823 60.3333 567.057 59.9036 567.359 59.5391C567.661 59.1745 568.021 58.8932 568.438 58.6953C568.859 58.4922 569.326 58.3906 569.836 58.3906C570.253 58.3906 570.628 58.4479 570.961 58.5625C571.294 58.6719 571.578 58.849 571.812 59.0938C572.052 59.3385 572.234 59.6562 572.359 60.0469C572.484 60.4323 572.547 60.9036 572.547 61.4609V67H571.094V61.4453C571.094 61.0026 571.029 60.6484 570.898 60.3828C570.768 60.112 570.578 59.9167 570.328 59.7969C570.078 59.6719 569.771 59.6094 569.406 59.6094C569.047 59.6094 568.719 59.6849 568.422 59.8359C568.13 59.987 567.878 60.1953 567.664 60.4609C567.456 60.7266 567.292 61.0312 567.172 61.375C567.057 61.7135 567 62.0729 567 62.4531ZM578.328 62.8672V62.6875C578.328 62.0781 578.417 61.513 578.594 60.9922C578.771 60.4661 579.026 60.0104 579.359 59.625C579.693 59.2344 580.096 58.9323 580.57 58.7188C581.044 58.5 581.576 58.3906 582.164 58.3906C582.758 58.3906 583.292 58.5 583.766 58.7188C584.245 58.9323 584.651 59.2344 584.984 59.625C585.323 60.0104 585.581 60.4661 585.758 60.9922C585.935 61.513 586.023 62.0781 586.023 62.6875V62.8672C586.023 63.4766 585.935 64.0417 585.758 64.5625C585.581 65.0833 585.323 65.5391 584.984 65.9297C584.651 66.3151 584.247 66.6172 583.773 66.8359C583.305 67.0495 582.773 67.1562 582.18 67.1562C581.586 67.1562 581.052 67.0495 580.578 66.8359C580.104 66.6172 579.698 66.3151 579.359 65.9297C579.026 65.5391 578.771 65.0833 578.594 64.5625C578.417 64.0417 578.328 63.4766 578.328 62.8672ZM579.773 62.6875V62.8672C579.773 63.2891 579.823 63.6875 579.922 64.0625C580.021 64.4323 580.169 64.7604 580.367 65.0469C580.57 65.3333 580.823 65.5599 581.125 65.7266C581.427 65.888 581.779 65.9688 582.18 65.9688C582.576 65.9688 582.922 65.888 583.219 65.7266C583.521 65.5599 583.771 65.3333 583.969 65.0469C584.167 64.7604 584.315 64.4323 584.414 64.0625C584.518 63.6875 584.57 63.2891 584.57 62.8672V62.6875C584.57 62.2708 584.518 61.8776 584.414 61.5078C584.315 61.1328 584.164 60.8021 583.961 60.5156C583.763 60.224 583.513 59.9948 583.211 59.8281C582.914 59.6615 582.565 59.5781 582.164 59.5781C581.768 59.5781 581.419 59.6615 581.117 59.8281C580.82 59.9948 580.57 60.224 580.367 60.5156C580.169 60.8021 580.021 61.1328 579.922 61.5078C579.823 61.8776 579.773 62.2708 579.773 62.6875ZM589.992 67H588.547V57.6562C588.547 57.0469 588.656 56.5339 588.875 56.1172C589.099 55.6953 589.419 55.3776 589.836 55.1641C590.253 54.9453 590.747 54.8359 591.32 54.8359C591.487 54.8359 591.654 54.8464 591.82 54.8672C591.992 54.888 592.159 54.9193 592.32 54.9609L592.242 56.1406C592.133 56.1146 592.008 56.0964 591.867 56.0859C591.732 56.0755 591.596 56.0703 591.461 56.0703C591.154 56.0703 590.888 56.1328 590.664 56.2578C590.445 56.3776 590.279 56.5547 590.164 56.7891C590.049 57.0234 589.992 57.3125 589.992 57.6562V67ZM591.789 58.5469V59.6562H587.211V58.5469H591.789ZM600.906 58.5469V59.6562H596.336V58.5469H600.906ZM597.883 56.4922H599.328V64.9062C599.328 65.1927 599.372 65.4089 599.461 65.5547C599.549 65.7005 599.664 65.7969 599.805 65.8438C599.945 65.8906 600.096 65.9141 600.258 65.9141C600.378 65.9141 600.503 65.9036 600.633 65.8828C600.768 65.8568 600.87 65.8359 600.938 65.8203L600.945 67C600.831 67.0365 600.68 67.0703 600.492 67.1016C600.31 67.138 600.089 67.1562 599.828 67.1562C599.474 67.1562 599.148 67.0859 598.852 66.9453C598.555 66.8047 598.318 66.5703 598.141 66.2422C597.969 65.9089 597.883 65.4609 597.883 64.8984V56.4922ZM604.047 55V67H602.602V55H604.047ZM603.703 62.4531L603.102 62.4297C603.107 61.8516 603.193 61.3177 603.359 60.8281C603.526 60.3333 603.76 59.9036 604.062 59.5391C604.365 59.1745 604.724 58.8932 605.141 58.6953C605.562 58.4922 606.029 58.3906 606.539 58.3906C606.956 58.3906 607.331 58.4479 607.664 58.5625C607.997 58.6719 608.281 58.849 608.516 59.0938C608.755 59.3385 608.938 59.6562 609.062 60.0469C609.188 60.4323 609.25 60.9036 609.25 61.4609V67H607.797V61.4453C607.797 61.0026 607.732 60.6484 607.602 60.3828C607.471 60.112 607.281 59.9167 607.031 59.7969C606.781 59.6719 606.474 59.6094 606.109 59.6094C605.75 59.6094 605.422 59.6849 605.125 59.8359C604.833 59.987 604.581 60.1953 604.367 60.4609C604.159 60.7266 603.995 61.0312 603.875 61.375C603.76 61.7135 603.703 62.0729 603.703 62.4531ZM614.922 67.1562C614.333 67.1562 613.799 67.0573 613.32 66.8594C612.846 66.6562 612.438 66.3724 612.094 66.0078C611.755 65.6432 611.495 65.2109 611.312 64.7109C611.13 64.2109 611.039 63.6641 611.039 63.0703V62.7422C611.039 62.0547 611.141 61.4427 611.344 60.9062C611.547 60.3646 611.823 59.9062 612.172 59.5312C612.521 59.1562 612.917 58.8724 613.359 58.6797C613.802 58.487 614.26 58.3906 614.734 58.3906C615.339 58.3906 615.859 58.4948 616.297 58.7031C616.74 58.9115 617.102 59.2031 617.383 59.5781C617.664 59.9479 617.872 60.3854 618.008 60.8906C618.143 61.3906 618.211 61.9375 618.211 62.5312V63.1797H611.898V62H616.766V61.8906C616.745 61.5156 616.667 61.151 616.531 60.7969C616.401 60.4427 616.193 60.151 615.906 59.9219C615.62 59.6927 615.229 59.5781 614.734 59.5781C614.406 59.5781 614.104 59.6484 613.828 59.7891C613.552 59.9245 613.315 60.1276 613.117 60.3984C612.919 60.6693 612.766 61 612.656 61.3906C612.547 61.7812 612.492 62.2318 612.492 62.7422V63.0703C612.492 63.4714 612.547 63.849 612.656 64.2031C612.771 64.5521 612.935 64.8594 613.148 65.125C613.367 65.3906 613.63 65.599 613.938 65.75C614.25 65.901 614.604 65.9766 615 65.9766C615.51 65.9766 615.943 65.8724 616.297 65.6641C616.651 65.4557 616.961 65.1771 617.227 64.8281L618.102 65.5234C617.919 65.7995 617.688 66.0625 617.406 66.3125C617.125 66.5625 616.779 66.7656 616.367 66.9219C615.961 67.0781 615.479 67.1562 614.922 67.1562ZM625.305 60.2266V67H623.852V58.5469H625.227L625.305 60.2266ZM625.008 62.4531L624.336 62.4297C624.341 61.8516 624.417 61.3177 624.562 60.8281C624.708 60.3333 624.924 59.9036 625.211 59.5391C625.497 59.1745 625.854 58.8932 626.281 58.6953C626.708 58.4922 627.203 58.3906 627.766 58.3906C628.161 58.3906 628.526 58.4479 628.859 58.5625C629.193 58.6719 629.482 58.8464 629.727 59.0859C629.971 59.3255 630.161 59.6328 630.297 60.0078C630.432 60.3828 630.5 60.8359 630.5 61.3672V67H629.055V61.4375C629.055 60.9948 628.979 60.6406 628.828 60.375C628.682 60.1094 628.474 59.9167 628.203 59.7969C627.932 59.6719 627.615 59.6094 627.25 59.6094C626.823 59.6094 626.466 59.6849 626.18 59.8359C625.893 59.987 625.664 60.1953 625.492 60.4609C625.32 60.7266 625.195 61.0312 625.117 61.375C625.044 61.7135 625.008 62.0729 625.008 62.4531ZM630.484 61.6562L629.516 61.9531C629.521 61.4896 629.596 61.0443 629.742 60.6172C629.893 60.1901 630.109 59.8099 630.391 59.4766C630.677 59.1432 631.029 58.8802 631.445 58.6875C631.862 58.4896 632.339 58.3906 632.875 58.3906C633.328 58.3906 633.729 58.4505 634.078 58.5703C634.432 58.6901 634.729 58.875 634.969 59.125C635.214 59.3698 635.398 59.6849 635.523 60.0703C635.648 60.4557 635.711 60.9141 635.711 61.4453V67H634.258V61.4297C634.258 60.9557 634.182 60.5885 634.031 60.3281C633.885 60.0625 633.677 59.8776 633.406 59.7734C633.141 59.6641 632.823 59.6094 632.453 59.6094C632.135 59.6094 631.854 59.6641 631.609 59.7734C631.365 59.8828 631.159 60.0339 630.992 60.2266C630.826 60.4141 630.698 60.6302 630.609 60.875C630.526 61.1198 630.484 61.3802 630.484 61.6562ZM637.516 62.8672V62.6875C637.516 62.0781 637.604 61.513 637.781 60.9922C637.958 60.4661 638.214 60.0104 638.547 59.625C638.88 59.2344 639.284 58.9323 639.758 58.7188C640.232 58.5 640.763 58.3906 641.352 58.3906C641.945 58.3906 642.479 58.5 642.953 58.7188C643.432 58.9323 643.839 59.2344 644.172 59.625C644.51 60.0104 644.768 60.4661 644.945 60.9922C645.122 61.513 645.211 62.0781 645.211 62.6875V62.8672C645.211 63.4766 645.122 64.0417 644.945 64.5625C644.768 65.0833 644.51 65.5391 644.172 65.9297C643.839 66.3151 643.435 66.6172 642.961 66.8359C642.492 67.0495 641.961 67.1562 641.367 67.1562C640.773 67.1562 640.24 67.0495 639.766 66.8359C639.292 66.6172 638.885 66.3151 638.547 65.9297C638.214 65.5391 637.958 65.0833 637.781 64.5625C637.604 64.0417 637.516 63.4766 637.516 62.8672ZM638.961 62.6875V62.8672C638.961 63.2891 639.01 63.6875 639.109 64.0625C639.208 64.4323 639.357 64.7604 639.555 65.0469C639.758 65.3333 640.01 65.5599 640.312 65.7266C640.615 65.888 640.966 65.9688 641.367 65.9688C641.763 65.9688 642.109 65.888 642.406 65.7266C642.708 65.5599 642.958 65.3333 643.156 65.0469C643.354 64.7604 643.503 64.4323 643.602 64.0625C643.706 63.6875 643.758 63.2891 643.758 62.8672V62.6875C643.758 62.2708 643.706 61.8776 643.602 61.5078C643.503 61.1328 643.352 60.8021 643.148 60.5156C642.951 60.224 642.701 59.9948 642.398 59.8281C642.102 59.6615 641.753 59.5781 641.352 59.5781C640.956 59.5781 640.607 59.6615 640.305 59.8281C640.008 59.9948 639.758 60.224 639.555 60.5156C639.357 60.8021 639.208 61.1328 639.109 61.5078C639.01 61.8776 638.961 62.2708 638.961 62.6875ZM651.945 64.7578C651.945 64.5495 651.898 64.3568 651.805 64.1797C651.716 63.9974 651.531 63.8333 651.25 63.6875C650.974 63.5365 650.557 63.4062 650 63.2969C649.531 63.1979 649.107 63.0807 648.727 62.9453C648.352 62.8099 648.031 62.6458 647.766 62.4531C647.505 62.2604 647.305 62.0339 647.164 61.7734C647.023 61.513 646.953 61.2083 646.953 60.8594C646.953 60.526 647.026 60.2109 647.172 59.9141C647.323 59.6172 647.534 59.3542 647.805 59.125C648.081 58.8958 648.411 58.7161 648.797 58.5859C649.182 58.4557 649.612 58.3906 650.086 58.3906C650.763 58.3906 651.341 58.5104 651.82 58.75C652.299 58.9896 652.667 59.3099 652.922 59.7109C653.177 60.1068 653.305 60.5469 653.305 61.0312H651.859C651.859 60.7969 651.789 60.5703 651.648 60.3516C651.513 60.1276 651.312 59.9427 651.047 59.7969C650.786 59.651 650.466 59.5781 650.086 59.5781C649.685 59.5781 649.359 59.6406 649.109 59.7656C648.865 59.8854 648.685 60.0391 648.57 60.2266C648.461 60.4141 648.406 60.612 648.406 60.8203C648.406 60.9766 648.432 61.1172 648.484 61.2422C648.542 61.362 648.641 61.474 648.781 61.5781C648.922 61.6771 649.12 61.7708 649.375 61.8594C649.63 61.9479 649.956 62.0365 650.352 62.125C651.044 62.2812 651.615 62.4688 652.062 62.6875C652.51 62.9062 652.844 63.1745 653.062 63.4922C653.281 63.8099 653.391 64.1953 653.391 64.6484C653.391 65.0182 653.312 65.3568 653.156 65.6641C653.005 65.9714 652.784 66.237 652.492 66.4609C652.206 66.6797 651.862 66.8516 651.461 66.9766C651.065 67.0964 650.62 67.1562 650.125 67.1562C649.38 67.1562 648.75 67.0234 648.234 66.7578C647.719 66.4922 647.328 66.1484 647.062 65.7266C646.797 65.3047 646.664 64.8594 646.664 64.3906H648.117C648.138 64.7865 648.253 65.1016 648.461 65.3359C648.669 65.5651 648.924 65.7292 649.227 65.8281C649.529 65.9219 649.828 65.9688 650.125 65.9688C650.521 65.9688 650.852 65.9167 651.117 65.8125C651.388 65.7083 651.594 65.5651 651.734 65.3828C651.875 65.2005 651.945 64.9922 651.945 64.7578ZM658.828 58.5469V59.6562H654.258V58.5469H658.828ZM655.805 56.4922H657.25V64.9062C657.25 65.1927 657.294 65.4089 657.383 65.5547C657.471 65.7005 657.586 65.7969 657.727 65.8438C657.867 65.8906 658.018 65.9141 658.18 65.9141C658.299 65.9141 658.424 65.9036 658.555 65.8828C658.69 65.8568 658.792 65.8359 658.859 65.8203L658.867 67C658.753 67.0365 658.602 67.0703 658.414 67.1016C658.232 67.138 658.01 67.1562 657.75 67.1562C657.396 67.1562 657.07 67.0859 656.773 66.9453C656.477 66.8047 656.24 66.5703 656.062 66.2422C655.891 65.9089 655.805 65.4609 655.805 64.8984V56.4922ZM664.484 55H665.938V65.3594L665.812 67H664.484V55ZM671.648 62.7031V62.8672C671.648 63.4818 671.576 64.0521 671.43 64.5781C671.284 65.099 671.07 65.5521 670.789 65.9375C670.508 66.3229 670.164 66.6224 669.758 66.8359C669.352 67.0495 668.885 67.1562 668.359 67.1562C667.823 67.1562 667.352 67.0651 666.945 66.8828C666.544 66.6953 666.206 66.4271 665.93 66.0781C665.654 65.7292 665.432 65.3073 665.266 64.8125C665.104 64.3177 664.992 63.7604 664.93 63.1406V62.4219C664.992 61.7969 665.104 61.237 665.266 60.7422C665.432 60.2474 665.654 59.8255 665.93 59.4766C666.206 59.1224 666.544 58.8542 666.945 58.6719C667.346 58.4844 667.812 58.3906 668.344 58.3906C668.875 58.3906 669.346 58.4948 669.758 58.7031C670.169 58.9062 670.513 59.1979 670.789 59.5781C671.07 59.9583 671.284 60.4141 671.43 60.9453C671.576 61.4714 671.648 62.0573 671.648 62.7031ZM670.195 62.8672V62.7031C670.195 62.2812 670.156 61.8854 670.078 61.5156C670 61.1406 669.875 60.8125 669.703 60.5312C669.531 60.2448 669.305 60.0208 669.023 59.8594C668.742 59.6927 668.396 59.6094 667.984 59.6094C667.62 59.6094 667.302 59.6719 667.031 59.7969C666.766 59.9219 666.539 60.0911 666.352 60.3047C666.164 60.513 666.01 60.7526 665.891 61.0234C665.776 61.2891 665.69 61.5651 665.633 61.8516V63.7344C665.716 64.099 665.852 64.4505 666.039 64.7891C666.232 65.1224 666.487 65.3958 666.805 65.6094C667.128 65.8229 667.526 65.9297 668 65.9297C668.391 65.9297 668.724 65.8516 669 65.6953C669.281 65.5339 669.508 65.3125 669.68 65.0312C669.857 64.75 669.987 64.4245 670.07 64.0547C670.154 63.6849 670.195 63.2891 670.195 62.8672ZM678.461 65.5547V61.2031C678.461 60.8698 678.393 60.5807 678.258 60.3359C678.128 60.0859 677.93 59.8932 677.664 59.7578C677.398 59.6224 677.07 59.5547 676.68 59.5547C676.315 59.5547 675.995 59.6172 675.719 59.7422C675.448 59.8672 675.234 60.0312 675.078 60.2344C674.927 60.4375 674.852 60.6562 674.852 60.8906H673.406C673.406 60.5885 673.484 60.2891 673.641 59.9922C673.797 59.6953 674.021 59.4271 674.312 59.1875C674.609 58.9427 674.964 58.75 675.375 58.6094C675.792 58.4635 676.255 58.3906 676.766 58.3906C677.38 58.3906 677.922 58.4948 678.391 58.7031C678.865 58.9115 679.234 59.2266 679.5 59.6484C679.771 60.0651 679.906 60.5885 679.906 61.2188V65.1562C679.906 65.4375 679.93 65.737 679.977 66.0547C680.029 66.3724 680.104 66.6458 680.203 66.875V67H678.695C678.622 66.8333 678.565 66.612 678.523 66.3359C678.482 66.0547 678.461 65.7943 678.461 65.5547ZM678.711 61.875L678.727 62.8906H677.266C676.854 62.8906 676.487 62.9245 676.164 62.9922C675.841 63.0547 675.57 63.151 675.352 63.2812C675.133 63.4115 674.966 63.5755 674.852 63.7734C674.737 63.9661 674.68 64.1927 674.68 64.4531C674.68 64.7188 674.74 64.9609 674.859 65.1797C674.979 65.3984 675.159 65.5729 675.398 65.7031C675.643 65.8281 675.943 65.8906 676.297 65.8906C676.74 65.8906 677.13 65.7969 677.469 65.6094C677.807 65.4219 678.076 65.1927 678.273 64.9219C678.477 64.651 678.586 64.388 678.602 64.1328L679.219 64.8281C679.182 65.0469 679.083 65.2891 678.922 65.5547C678.76 65.8203 678.544 66.0755 678.273 66.3203C678.008 66.5599 677.69 66.7604 677.32 66.9219C676.956 67.0781 676.544 67.1562 676.086 67.1562C675.513 67.1562 675.01 67.0443 674.578 66.8203C674.151 66.5964 673.818 66.2969 673.578 65.9219C673.344 65.5417 673.227 65.1172 673.227 64.6484C673.227 64.1953 673.315 63.7969 673.492 63.4531C673.669 63.1042 673.924 62.8151 674.258 62.5859C674.591 62.3516 674.992 62.1745 675.461 62.0547C675.93 61.9349 676.453 61.875 677.031 61.875H678.711ZM685.719 58.5469V59.6562H681.148V58.5469H685.719ZM682.695 56.4922H684.141V64.9062C684.141 65.1927 684.185 65.4089 684.273 65.5547C684.362 65.7005 684.477 65.7969 684.617 65.8438C684.758 65.8906 684.909 65.9141 685.07 65.9141C685.19 65.9141 685.315 65.9036 685.445 65.8828C685.581 65.8568 685.682 65.8359 685.75 65.8203L685.758 67C685.643 67.0365 685.492 67.0703 685.305 67.1016C685.122 67.138 684.901 67.1562 684.641 67.1562C684.286 67.1562 683.961 67.0859 683.664 66.9453C683.367 66.8047 683.13 66.5703 682.953 66.2422C682.781 65.9089 682.695 65.4609 682.695 64.8984V56.4922ZM690.953 58.5469V59.6562H686.383V58.5469H690.953ZM687.93 56.4922H689.375V64.9062C689.375 65.1927 689.419 65.4089 689.508 65.5547C689.596 65.7005 689.711 65.7969 689.852 65.8438C689.992 65.8906 690.143 65.9141 690.305 65.9141C690.424 65.9141 690.549 65.9036 690.68 65.8828C690.815 65.8568 690.917 65.8359 690.984 65.8203L690.992 67C690.878 67.0365 690.727 67.0703 690.539 67.1016C690.357 67.138 690.135 67.1562 689.875 67.1562C689.521 67.1562 689.195 67.0859 688.898 66.9453C688.602 66.8047 688.365 66.5703 688.188 66.2422C688.016 65.9089 687.93 65.4609 687.93 64.8984V56.4922ZM694.219 55V67H692.766V55H694.219ZM700.047 67.1562C699.458 67.1562 698.924 67.0573 698.445 66.8594C697.971 66.6562 697.562 66.3724 697.219 66.0078C696.88 65.6432 696.62 65.2109 696.438 64.7109C696.255 64.2109 696.164 63.6641 696.164 63.0703V62.7422C696.164 62.0547 696.266 61.4427 696.469 60.9062C696.672 60.3646 696.948 59.9062 697.297 59.5312C697.646 59.1562 698.042 58.8724 698.484 58.6797C698.927 58.487 699.385 58.3906 699.859 58.3906C700.464 58.3906 700.984 58.4948 701.422 58.7031C701.865 58.9115 702.227 59.2031 702.508 59.5781C702.789 59.9479 702.997 60.3854 703.133 60.8906C703.268 61.3906 703.336 61.9375 703.336 62.5312V63.1797H697.023V62H701.891V61.8906C701.87 61.5156 701.792 61.151 701.656 60.7969C701.526 60.4427 701.318 60.151 701.031 59.9219C700.745 59.6927 700.354 59.5781 699.859 59.5781C699.531 59.5781 699.229 59.6484 698.953 59.7891C698.677 59.9245 698.44 60.1276 698.242 60.3984C698.044 60.6693 697.891 61 697.781 61.3906C697.672 61.7812 697.617 62.2318 697.617 62.7422V63.0703C697.617 63.4714 697.672 63.849 697.781 64.2031C697.896 64.5521 698.06 64.8594 698.273 65.125C698.492 65.3906 698.755 65.599 699.062 65.75C699.375 65.901 699.729 65.9766 700.125 65.9766C700.635 65.9766 701.068 65.8724 701.422 65.6641C701.776 65.4557 702.086 65.1771 702.352 64.8281L703.227 65.5234C703.044 65.7995 702.812 66.0625 702.531 66.3125C702.25 66.5625 701.904 66.7656 701.492 66.9219C701.086 67.0781 700.604 67.1562 700.047 67.1562ZM708.031 61.5703V62.7578H704.219V61.5703H708.031ZM710.891 55V67H709.445V55H710.891ZM710.547 62.4531L709.945 62.4297C709.951 61.8516 710.036 61.3177 710.203 60.8281C710.37 60.3333 710.604 59.9036 710.906 59.5391C711.208 59.1745 711.568 58.8932 711.984 58.6953C712.406 58.4922 712.872 58.3906 713.383 58.3906C713.799 58.3906 714.174 58.4479 714.508 58.5625C714.841 58.6719 715.125 58.849 715.359 59.0938C715.599 59.3385 715.781 59.6562 715.906 60.0469C716.031 60.4323 716.094 60.9036 716.094 61.4609V67H714.641V61.4453C714.641 61.0026 714.576 60.6484 714.445 60.3828C714.315 60.112 714.125 59.9167 713.875 59.7969C713.625 59.6719 713.318 59.6094 712.953 59.6094C712.594 59.6094 712.266 59.6849 711.969 59.8359C711.677 59.987 711.424 60.1953 711.211 60.4609C711.003 60.7266 710.839 61.0312 710.719 61.375C710.604 61.7135 710.547 62.0729 710.547 62.4531ZM723.242 65.5547V61.2031C723.242 60.8698 723.174 60.5807 723.039 60.3359C722.909 60.0859 722.711 59.8932 722.445 59.7578C722.18 59.6224 721.852 59.5547 721.461 59.5547C721.096 59.5547 720.776 59.6172 720.5 59.7422C720.229 59.8672 720.016 60.0312 719.859 60.2344C719.708 60.4375 719.633 60.6562 719.633 60.8906H718.188C718.188 60.5885 718.266 60.2891 718.422 59.9922C718.578 59.6953 718.802 59.4271 719.094 59.1875C719.391 58.9427 719.745 58.75 720.156 58.6094C720.573 58.4635 721.036 58.3906 721.547 58.3906C722.161 58.3906 722.703 58.4948 723.172 58.7031C723.646 58.9115 724.016 59.2266 724.281 59.6484C724.552 60.0651 724.688 60.5885 724.688 61.2188V65.1562C724.688 65.4375 724.711 65.737 724.758 66.0547C724.81 66.3724 724.885 66.6458 724.984 66.875V67H723.477C723.404 66.8333 723.346 66.612 723.305 66.3359C723.263 66.0547 723.242 65.7943 723.242 65.5547ZM723.492 61.875L723.508 62.8906H722.047C721.635 62.8906 721.268 62.9245 720.945 62.9922C720.622 63.0547 720.352 63.151 720.133 63.2812C719.914 63.4115 719.747 63.5755 719.633 63.7734C719.518 63.9661 719.461 64.1927 719.461 64.4531C719.461 64.7188 719.521 64.9609 719.641 65.1797C719.76 65.3984 719.94 65.5729 720.18 65.7031C720.424 65.8281 720.724 65.8906 721.078 65.8906C721.521 65.8906 721.911 65.7969 722.25 65.6094C722.589 65.4219 722.857 65.1927 723.055 64.9219C723.258 64.651 723.367 64.388 723.383 64.1328L724 64.8281C723.964 65.0469 723.865 65.2891 723.703 65.5547C723.542 65.8203 723.326 66.0755 723.055 66.3203C722.789 66.5599 722.471 66.7604 722.102 66.9219C721.737 67.0781 721.326 67.1562 720.867 67.1562C720.294 67.1562 719.792 67.0443 719.359 66.8203C718.932 66.5964 718.599 66.2969 718.359 65.9219C718.125 65.5417 718.008 65.1172 718.008 64.6484C718.008 64.1953 718.096 63.7969 718.273 63.4531C718.451 63.1042 718.706 62.8151 719.039 62.5859C719.372 62.3516 719.773 62.1745 720.242 62.0547C720.711 61.9349 721.234 61.875 721.812 61.875H723.492ZM728.406 59.875V67H726.961V58.5469H728.367L728.406 59.875ZM731.047 58.5L731.039 59.8438C730.919 59.8177 730.805 59.8021 730.695 59.7969C730.591 59.7865 730.471 59.7812 730.336 59.7812C730.003 59.7812 729.708 59.8333 729.453 59.9375C729.198 60.0417 728.982 60.1875 728.805 60.375C728.628 60.5625 728.487 60.7865 728.383 61.0469C728.284 61.3021 728.219 61.5833 728.188 61.8906L727.781 62.125C727.781 61.6146 727.831 61.1354 727.93 60.6875C728.034 60.2396 728.193 59.8438 728.406 59.5C728.62 59.151 728.891 58.8802 729.219 58.6875C729.552 58.4896 729.948 58.3906 730.406 58.3906C730.51 58.3906 730.63 58.4036 730.766 58.4297C730.901 58.4505 730.995 58.474 731.047 58.5ZM737.555 65.3594V55H739.008V67H737.68L737.555 65.3594ZM731.867 62.8672V62.7031C731.867 62.0573 731.945 61.4714 732.102 60.9453C732.263 60.4141 732.49 59.9583 732.781 59.5781C733.078 59.1979 733.43 58.9062 733.836 58.7031C734.247 58.4948 734.706 58.3906 735.211 58.3906C735.742 58.3906 736.206 58.4844 736.602 58.6719C737.003 58.8542 737.341 59.1224 737.617 59.4766C737.898 59.8255 738.12 60.2474 738.281 60.7422C738.443 61.237 738.555 61.7969 738.617 62.4219V63.1406C738.56 63.7604 738.448 64.3177 738.281 64.8125C738.12 65.3073 737.898 65.7292 737.617 66.0781C737.341 66.4271 737.003 66.6953 736.602 66.8828C736.201 67.0651 735.732 67.1562 735.195 67.1562C734.701 67.1562 734.247 67.0495 733.836 66.8359C733.43 66.6224 733.078 66.3229 732.781 65.9375C732.49 65.5521 732.263 65.099 732.102 64.5781C731.945 64.0521 731.867 63.4818 731.867 62.8672ZM733.32 62.7031V62.8672C733.32 63.2891 733.362 63.6849 733.445 64.0547C733.534 64.4245 733.669 64.75 733.852 65.0312C734.034 65.3125 734.266 65.5339 734.547 65.6953C734.828 65.8516 735.164 65.9297 735.555 65.9297C736.034 65.9297 736.427 65.8281 736.734 65.625C737.047 65.4219 737.297 65.1536 737.484 64.8203C737.672 64.487 737.818 64.125 737.922 63.7344V61.8516C737.859 61.5651 737.768 61.2891 737.648 61.0234C737.534 60.7526 737.383 60.513 737.195 60.3047C737.013 60.0911 736.786 59.9219 736.516 59.7969C736.25 59.6719 735.935 59.6094 735.57 59.6094C735.174 59.6094 734.833 59.6927 734.547 59.8594C734.266 60.0208 734.034 60.2448 733.852 60.5312C733.669 60.8125 733.534 61.1406 733.445 61.5156C733.362 61.8854 733.32 62.2812 733.32 62.7031ZM744.766 67.1562C744.177 67.1562 743.643 67.0573 743.164 66.8594C742.69 66.6562 742.281 66.3724 741.938 66.0078C741.599 65.6432 741.339 65.2109 741.156 64.7109C740.974 64.2109 740.883 63.6641 740.883 63.0703V62.7422C740.883 62.0547 740.984 61.4427 741.188 60.9062C741.391 60.3646 741.667 59.9062 742.016 59.5312C742.365 59.1562 742.76 58.8724 743.203 58.6797C743.646 58.487 744.104 58.3906 744.578 58.3906C745.182 58.3906 745.703 58.4948 746.141 58.7031C746.583 58.9115 746.945 59.2031 747.227 59.5781C747.508 59.9479 747.716 60.3854 747.852 60.8906C747.987 61.3906 748.055 61.9375 748.055 62.5312V63.1797H741.742V62H746.609V61.8906C746.589 61.5156 746.51 61.151 746.375 60.7969C746.245 60.4427 746.036 60.151 745.75 59.9219C745.464 59.6927 745.073 59.5781 744.578 59.5781C744.25 59.5781 743.948 59.6484 743.672 59.7891C743.396 59.9245 743.159 60.1276 742.961 60.3984C742.763 60.6693 742.609 61 742.5 61.3906C742.391 61.7812 742.336 62.2318 742.336 62.7422V63.0703C742.336 63.4714 742.391 63.849 742.5 64.2031C742.615 64.5521 742.779 64.8594 742.992 65.125C743.211 65.3906 743.474 65.599 743.781 65.75C744.094 65.901 744.448 65.9766 744.844 65.9766C745.354 65.9766 745.786 65.8724 746.141 65.6641C746.495 65.4557 746.805 65.1771 747.07 64.8281L747.945 65.5234C747.763 65.7995 747.531 66.0625 747.25 66.3125C746.969 66.5625 746.622 66.7656 746.211 66.9219C745.805 67.0781 745.323 67.1562 744.766 67.1562ZM751.188 60.3516V67H749.742V58.5469H751.109L751.188 60.3516ZM750.844 62.4531L750.242 62.4297C750.247 61.8516 750.333 61.3177 750.5 60.8281C750.667 60.3333 750.901 59.9036 751.203 59.5391C751.505 59.1745 751.865 58.8932 752.281 58.6953C752.703 58.4922 753.169 58.3906 753.68 58.3906C754.096 58.3906 754.471 58.4479 754.805 58.5625C755.138 58.6719 755.422 58.849 755.656 59.0938C755.896 59.3385 756.078 59.6562 756.203 60.0469C756.328 60.4323 756.391 60.9036 756.391 61.4609V67H754.938V61.4453C754.938 61.0026 754.872 60.6484 754.742 60.3828C754.612 60.112 754.422 59.9167 754.172 59.7969C753.922 59.6719 753.615 59.6094 753.25 59.6094C752.891 59.6094 752.562 59.6849 752.266 59.8359C751.974 59.987 751.721 60.1953 751.508 60.4609C751.299 60.7266 751.135 61.0312 751.016 61.375C750.901 61.7135 750.844 62.0729 750.844 62.4531ZM762.094 67.1562C761.505 67.1562 760.971 67.0573 760.492 66.8594C760.018 66.6562 759.609 66.3724 759.266 66.0078C758.927 65.6432 758.667 65.2109 758.484 64.7109C758.302 64.2109 758.211 63.6641 758.211 63.0703V62.7422C758.211 62.0547 758.312 61.4427 758.516 60.9062C758.719 60.3646 758.995 59.9062 759.344 59.5312C759.693 59.1562 760.089 58.8724 760.531 58.6797C760.974 58.487 761.432 58.3906 761.906 58.3906C762.51 58.3906 763.031 58.4948 763.469 58.7031C763.911 58.9115 764.273 59.2031 764.555 59.5781C764.836 59.9479 765.044 60.3854 765.18 60.8906C765.315 61.3906 765.383 61.9375 765.383 62.5312V63.1797H759.07V62H763.938V61.8906C763.917 61.5156 763.839 61.151 763.703 60.7969C763.573 60.4427 763.365 60.151 763.078 59.9219C762.792 59.6927 762.401 59.5781 761.906 59.5781C761.578 59.5781 761.276 59.6484 761 59.7891C760.724 59.9245 760.487 60.1276 760.289 60.3984C760.091 60.6693 759.938 61 759.828 61.3906C759.719 61.7812 759.664 62.2318 759.664 62.7422V63.0703C759.664 63.4714 759.719 63.849 759.828 64.2031C759.943 64.5521 760.107 64.8594 760.32 65.125C760.539 65.3906 760.802 65.599 761.109 65.75C761.422 65.901 761.776 65.9766 762.172 65.9766C762.682 65.9766 763.115 65.8724 763.469 65.6641C763.823 65.4557 764.133 65.1771 764.398 64.8281L765.273 65.5234C765.091 65.7995 764.859 66.0625 764.578 66.3125C764.297 66.5625 763.951 66.7656 763.539 66.9219C763.133 67.0781 762.651 67.1562 762.094 67.1562ZM772.398 65.3594V55H773.852V67H772.523L772.398 65.3594ZM766.711 62.8672V62.7031C766.711 62.0573 766.789 61.4714 766.945 60.9453C767.107 60.4141 767.333 59.9583 767.625 59.5781C767.922 59.1979 768.273 58.9062 768.68 58.7031C769.091 58.4948 769.549 58.3906 770.055 58.3906C770.586 58.3906 771.049 58.4844 771.445 58.6719C771.846 58.8542 772.185 59.1224 772.461 59.4766C772.742 59.8255 772.964 60.2474 773.125 60.7422C773.286 61.237 773.398 61.7969 773.461 62.4219V63.1406C773.404 63.7604 773.292 64.3177 773.125 64.8125C772.964 65.3073 772.742 65.7292 772.461 66.0781C772.185 66.4271 771.846 66.6953 771.445 66.8828C771.044 67.0651 770.576 67.1562 770.039 67.1562C769.544 67.1562 769.091 67.0495 768.68 66.8359C768.273 66.6224 767.922 66.3229 767.625 65.9375C767.333 65.5521 767.107 65.099 766.945 64.5781C766.789 64.0521 766.711 63.4818 766.711 62.8672ZM768.164 62.7031V62.8672C768.164 63.2891 768.206 63.6849 768.289 64.0547C768.378 64.4245 768.513 64.75 768.695 65.0312C768.878 65.3125 769.109 65.5339 769.391 65.6953C769.672 65.8516 770.008 65.9297 770.398 65.9297C770.878 65.9297 771.271 65.8281 771.578 65.625C771.891 65.4219 772.141 65.1536 772.328 64.8203C772.516 64.487 772.661 64.125 772.766 63.7344V61.8516C772.703 61.5651 772.612 61.2891 772.492 61.0234C772.378 60.7526 772.227 60.513 772.039 60.3047C771.857 60.0911 771.63 59.9219 771.359 59.7969C771.094 59.6719 770.779 59.6094 770.414 59.6094C770.018 59.6094 769.677 59.6927 769.391 59.8594C769.109 60.0208 768.878 60.2448 768.695 60.5312C768.513 60.8125 768.378 61.1406 768.289 61.5156C768.206 61.8854 768.164 62.2812 768.164 62.7031ZM783.453 65.9688C783.797 65.9688 784.115 65.8984 784.406 65.7578C784.698 65.6172 784.938 65.4245 785.125 65.1797C785.312 64.9297 785.419 64.6458 785.445 64.3281H786.82C786.794 64.8281 786.625 65.2943 786.312 65.7266C786.005 66.1536 785.602 66.5 785.102 66.7656C784.602 67.026 784.052 67.1562 783.453 67.1562C782.818 67.1562 782.263 67.0443 781.789 66.8203C781.32 66.5964 780.93 66.2891 780.617 65.8984C780.31 65.5078 780.078 65.0599 779.922 64.5547C779.771 64.0443 779.695 63.5052 779.695 62.9375V62.6094C779.695 62.0417 779.771 61.5052 779.922 61C780.078 60.4896 780.31 60.0391 780.617 59.6484C780.93 59.2578 781.32 58.9505 781.789 58.7266C782.263 58.5026 782.818 58.3906 783.453 58.3906C784.115 58.3906 784.693 58.526 785.188 58.7969C785.682 59.0625 786.07 59.4271 786.352 59.8906C786.638 60.349 786.794 60.8698 786.82 61.4531H785.445C785.419 61.1042 785.32 60.7891 785.148 60.5078C784.982 60.2266 784.753 60.0026 784.461 59.8359C784.174 59.6641 783.839 59.5781 783.453 59.5781C783.01 59.5781 782.638 59.6667 782.336 59.8438C782.039 60.0156 781.802 60.25 781.625 60.5469C781.453 60.8385 781.328 61.1641 781.25 61.5234C781.177 61.8776 781.141 62.2396 781.141 62.6094V62.9375C781.141 63.3073 781.177 63.6719 781.25 64.0312C781.323 64.3906 781.445 64.7161 781.617 65.0078C781.794 65.2995 782.031 65.5339 782.328 65.7109C782.63 65.8828 783.005 65.9688 783.453 65.9688ZM789.891 55V67H788.445V55H789.891ZM789.547 62.4531L788.945 62.4297C788.951 61.8516 789.036 61.3177 789.203 60.8281C789.37 60.3333 789.604 59.9036 789.906 59.5391C790.208 59.1745 790.568 58.8932 790.984 58.6953C791.406 58.4922 791.872 58.3906 792.383 58.3906C792.799 58.3906 793.174 58.4479 793.508 58.5625C793.841 58.6719 794.125 58.849 794.359 59.0938C794.599 59.3385 794.781 59.6562 794.906 60.0469C795.031 60.4323 795.094 60.9036 795.094 61.4609V67H793.641V61.4453C793.641 61.0026 793.576 60.6484 793.445 60.3828C793.315 60.112 793.125 59.9167 792.875 59.7969C792.625 59.6719 792.318 59.6094 791.953 59.6094C791.594 59.6094 791.266 59.6849 790.969 59.8359C790.677 59.987 790.424 60.1953 790.211 60.4609C790.003 60.7266 789.839 61.0312 789.719 61.375C789.604 61.7135 789.547 62.0729 789.547 62.4531ZM802.242 65.5547V61.2031C802.242 60.8698 802.174 60.5807 802.039 60.3359C801.909 60.0859 801.711 59.8932 801.445 59.7578C801.18 59.6224 800.852 59.5547 800.461 59.5547C800.096 59.5547 799.776 59.6172 799.5 59.7422C799.229 59.8672 799.016 60.0312 798.859 60.2344C798.708 60.4375 798.633 60.6562 798.633 60.8906H797.188C797.188 60.5885 797.266 60.2891 797.422 59.9922C797.578 59.6953 797.802 59.4271 798.094 59.1875C798.391 58.9427 798.745 58.75 799.156 58.6094C799.573 58.4635 800.036 58.3906 800.547 58.3906C801.161 58.3906 801.703 58.4948 802.172 58.7031C802.646 58.9115 803.016 59.2266 803.281 59.6484C803.552 60.0651 803.688 60.5885 803.688 61.2188V65.1562C803.688 65.4375 803.711 65.737 803.758 66.0547C803.81 66.3724 803.885 66.6458 803.984 66.875V67H802.477C802.404 66.8333 802.346 66.612 802.305 66.3359C802.263 66.0547 802.242 65.7943 802.242 65.5547ZM802.492 61.875L802.508 62.8906H801.047C800.635 62.8906 800.268 62.9245 799.945 62.9922C799.622 63.0547 799.352 63.151 799.133 63.2812C798.914 63.4115 798.747 63.5755 798.633 63.7734C798.518 63.9661 798.461 64.1927 798.461 64.4531C798.461 64.7188 798.521 64.9609 798.641 65.1797C798.76 65.3984 798.94 65.5729 799.18 65.7031C799.424 65.8281 799.724 65.8906 800.078 65.8906C800.521 65.8906 800.911 65.7969 801.25 65.6094C801.589 65.4219 801.857 65.1927 802.055 64.9219C802.258 64.651 802.367 64.388 802.383 64.1328L803 64.8281C802.964 65.0469 802.865 65.2891 802.703 65.5547C802.542 65.8203 802.326 66.0755 802.055 66.3203C801.789 66.5599 801.471 66.7604 801.102 66.9219C800.737 67.0781 800.326 67.1562 799.867 67.1562C799.294 67.1562 798.792 67.0443 798.359 66.8203C797.932 66.5964 797.599 66.2969 797.359 65.9219C797.125 65.5417 797.008 65.1172 797.008 64.6484C797.008 64.1953 797.096 63.7969 797.273 63.4531C797.451 63.1042 797.706 62.8151 798.039 62.5859C798.372 62.3516 798.773 62.1745 799.242 62.0547C799.711 61.9349 800.234 61.875 800.812 61.875H802.492ZM807.406 59.875V67H805.961V58.5469H807.367L807.406 59.875ZM810.047 58.5L810.039 59.8438C809.919 59.8177 809.805 59.8021 809.695 59.7969C809.591 59.7865 809.471 59.7812 809.336 59.7812C809.003 59.7812 808.708 59.8333 808.453 59.9375C808.198 60.0417 807.982 60.1875 807.805 60.375C807.628 60.5625 807.487 60.7865 807.383 61.0469C807.284 61.3021 807.219 61.5833 807.188 61.8906L806.781 62.125C806.781 61.6146 806.831 61.1354 806.93 60.6875C807.034 60.2396 807.193 59.8438 807.406 59.5C807.62 59.151 807.891 58.8802 808.219 58.6875C808.552 58.4896 808.948 58.3906 809.406 58.3906C809.51 58.3906 809.63 58.4036 809.766 58.4297C809.901 58.4505 809.995 58.474 810.047 58.5ZM816.055 65.5547V61.2031C816.055 60.8698 815.987 60.5807 815.852 60.3359C815.721 60.0859 815.523 59.8932 815.258 59.7578C814.992 59.6224 814.664 59.5547 814.273 59.5547C813.909 59.5547 813.589 59.6172 813.312 59.7422C813.042 59.8672 812.828 60.0312 812.672 60.2344C812.521 60.4375 812.445 60.6562 812.445 60.8906H811C811 60.5885 811.078 60.2891 811.234 59.9922C811.391 59.6953 811.615 59.4271 811.906 59.1875C812.203 58.9427 812.557 58.75 812.969 58.6094C813.385 58.4635 813.849 58.3906 814.359 58.3906C814.974 58.3906 815.516 58.4948 815.984 58.7031C816.458 58.9115 816.828 59.2266 817.094 59.6484C817.365 60.0651 817.5 60.5885 817.5 61.2188V65.1562C817.5 65.4375 817.523 65.737 817.57 66.0547C817.622 66.3724 817.698 66.6458 817.797 66.875V67H816.289C816.216 66.8333 816.159 66.612 816.117 66.3359C816.076 66.0547 816.055 65.7943 816.055 65.5547ZM816.305 61.875L816.32 62.8906H814.859C814.448 62.8906 814.081 62.9245 813.758 62.9922C813.435 63.0547 813.164 63.151 812.945 63.2812C812.727 63.4115 812.56 63.5755 812.445 63.7734C812.331 63.9661 812.273 64.1927 812.273 64.4531C812.273 64.7188 812.333 64.9609 812.453 65.1797C812.573 65.3984 812.753 65.5729 812.992 65.7031C813.237 65.8281 813.536 65.8906 813.891 65.8906C814.333 65.8906 814.724 65.7969 815.062 65.6094C815.401 65.4219 815.669 65.1927 815.867 64.9219C816.07 64.651 816.18 64.388 816.195 64.1328L816.812 64.8281C816.776 65.0469 816.677 65.2891 816.516 65.5547C816.354 65.8203 816.138 66.0755 815.867 66.3203C815.602 66.5599 815.284 66.7604 814.914 66.9219C814.549 67.0781 814.138 67.1562 813.68 67.1562C813.107 67.1562 812.604 67.0443 812.172 66.8203C811.745 66.5964 811.411 66.2969 811.172 65.9219C810.938 65.5417 810.82 65.1172 810.82 64.6484C810.82 64.1953 810.909 63.7969 811.086 63.4531C811.263 63.1042 811.518 62.8151 811.852 62.5859C812.185 62.3516 812.586 62.1745 813.055 62.0547C813.523 61.9349 814.047 61.875 814.625 61.875H816.305ZM823.156 65.9688C823.5 65.9688 823.818 65.8984 824.109 65.7578C824.401 65.6172 824.641 65.4245 824.828 65.1797C825.016 64.9297 825.122 64.6458 825.148 64.3281H826.523C826.497 64.8281 826.328 65.2943 826.016 65.7266C825.708 66.1536 825.305 66.5 824.805 66.7656C824.305 67.026 823.755 67.1562 823.156 67.1562C822.521 67.1562 821.966 67.0443 821.492 66.8203C821.023 66.5964 820.633 66.2891 820.32 65.8984C820.013 65.5078 819.781 65.0599 819.625 64.5547C819.474 64.0443 819.398 63.5052 819.398 62.9375V62.6094C819.398 62.0417 819.474 61.5052 819.625 61C819.781 60.4896 820.013 60.0391 820.32 59.6484C820.633 59.2578 821.023 58.9505 821.492 58.7266C821.966 58.5026 822.521 58.3906 823.156 58.3906C823.818 58.3906 824.396 58.526 824.891 58.7969C825.385 59.0625 825.773 59.4271 826.055 59.8906C826.341 60.349 826.497 60.8698 826.523 61.4531H825.148C825.122 61.1042 825.023 60.7891 824.852 60.5078C824.685 60.2266 824.456 60.0026 824.164 59.8359C823.878 59.6641 823.542 59.5781 823.156 59.5781C822.714 59.5781 822.341 59.6667 822.039 59.8438C821.742 60.0156 821.505 60.25 821.328 60.5469C821.156 60.8385 821.031 61.1641 820.953 61.5234C820.88 61.8776 820.844 62.2396 820.844 62.6094V62.9375C820.844 63.3073 820.88 63.6719 820.953 64.0312C821.026 64.3906 821.148 64.7161 821.32 65.0078C821.497 65.2995 821.734 65.5339 822.031 65.7109C822.333 65.8828 822.708 65.9688 823.156 65.9688ZM831.688 58.5469V59.6562H827.117V58.5469H831.688ZM828.664 56.4922H830.109V64.9062C830.109 65.1927 830.154 65.4089 830.242 65.5547C830.331 65.7005 830.445 65.7969 830.586 65.8438C830.727 65.8906 830.878 65.9141 831.039 65.9141C831.159 65.9141 831.284 65.9036 831.414 65.8828C831.549 65.8568 831.651 65.8359 831.719 65.8203L831.727 67C831.612 67.0365 831.461 67.0703 831.273 67.1016C831.091 67.138 830.87 67.1562 830.609 67.1562C830.255 67.1562 829.93 67.0859 829.633 66.9453C829.336 66.8047 829.099 66.5703 828.922 66.2422C828.75 65.9089 828.664 65.4609 828.664 64.8984V56.4922ZM836.891 67.1562C836.302 67.1562 835.768 67.0573 835.289 66.8594C834.815 66.6562 834.406 66.3724 834.062 66.0078C833.724 65.6432 833.464 65.2109 833.281 64.7109C833.099 64.2109 833.008 63.6641 833.008 63.0703V62.7422C833.008 62.0547 833.109 61.4427 833.312 60.9062C833.516 60.3646 833.792 59.9062 834.141 59.5312C834.49 59.1562 834.885 58.8724 835.328 58.6797C835.771 58.487 836.229 58.3906 836.703 58.3906C837.307 58.3906 837.828 58.4948 838.266 58.7031C838.708 58.9115 839.07 59.2031 839.352 59.5781C839.633 59.9479 839.841 60.3854 839.977 60.8906C840.112 61.3906 840.18 61.9375 840.18 62.5312V63.1797H833.867V62H838.734V61.8906C838.714 61.5156 838.635 61.151 838.5 60.7969C838.37 60.4427 838.161 60.151 837.875 59.9219C837.589 59.6927 837.198 59.5781 836.703 59.5781C836.375 59.5781 836.073 59.6484 835.797 59.7891C835.521 59.9245 835.284 60.1276 835.086 60.3984C834.888 60.6693 834.734 61 834.625 61.3906C834.516 61.7812 834.461 62.2318 834.461 62.7422V63.0703C834.461 63.4714 834.516 63.849 834.625 64.2031C834.74 64.5521 834.904 64.8594 835.117 65.125C835.336 65.3906 835.599 65.599 835.906 65.75C836.219 65.901 836.573 65.9766 836.969 65.9766C837.479 65.9766 837.911 65.8724 838.266 65.6641C838.62 65.4557 838.93 65.1771 839.195 64.8281L840.07 65.5234C839.888 65.7995 839.656 66.0625 839.375 66.3125C839.094 66.5625 838.747 66.7656 838.336 66.9219C837.93 67.0781 837.448 67.1562 836.891 67.1562ZM843.312 59.875V67H841.867V58.5469H843.273L843.312 59.875ZM845.953 58.5L845.945 59.8438C845.826 59.8177 845.711 59.8021 845.602 59.7969C845.497 59.7865 845.378 59.7812 845.242 59.7812C844.909 59.7812 844.615 59.8333 844.359 59.9375C844.104 60.0417 843.888 60.1875 843.711 60.375C843.534 60.5625 843.393 60.7865 843.289 61.0469C843.19 61.3021 843.125 61.5833 843.094 61.8906L842.688 62.125C842.688 61.6146 842.737 61.1354 842.836 60.6875C842.94 60.2396 843.099 59.8438 843.312 59.5C843.526 59.151 843.797 58.8802 844.125 58.6875C844.458 58.4896 844.854 58.3906 845.312 58.3906C845.417 58.3906 845.536 58.4036 845.672 58.4297C845.807 58.4505 845.901 58.474 845.953 58.5ZM852.211 64.7578C852.211 64.5495 852.164 64.3568 852.07 64.1797C851.982 63.9974 851.797 63.8333 851.516 63.6875C851.24 63.5365 850.823 63.4062 850.266 63.2969C849.797 63.1979 849.372 63.0807 848.992 62.9453C848.617 62.8099 848.297 62.6458 848.031 62.4531C847.771 62.2604 847.57 62.0339 847.43 61.7734C847.289 61.513 847.219 61.2083 847.219 60.8594C847.219 60.526 847.292 60.2109 847.438 59.9141C847.589 59.6172 847.799 59.3542 848.07 59.125C848.346 58.8958 848.677 58.7161 849.062 58.5859C849.448 58.4557 849.878 58.3906 850.352 58.3906C851.029 58.3906 851.607 58.5104 852.086 58.75C852.565 58.9896 852.932 59.3099 853.188 59.7109C853.443 60.1068 853.57 60.5469 853.57 61.0312H852.125C852.125 60.7969 852.055 60.5703 851.914 60.3516C851.779 60.1276 851.578 59.9427 851.312 59.7969C851.052 59.651 850.732 59.5781 850.352 59.5781C849.951 59.5781 849.625 59.6406 849.375 59.7656C849.13 59.8854 848.951 60.0391 848.836 60.2266C848.727 60.4141 848.672 60.612 848.672 60.8203C848.672 60.9766 848.698 61.1172 848.75 61.2422C848.807 61.362 848.906 61.474 849.047 61.5781C849.188 61.6771 849.385 61.7708 849.641 61.8594C849.896 61.9479 850.221 62.0365 850.617 62.125C851.31 62.2812 851.88 62.4688 852.328 62.6875C852.776 62.9062 853.109 63.1745 853.328 63.4922C853.547 63.8099 853.656 64.1953 853.656 64.6484C853.656 65.0182 853.578 65.3568 853.422 65.6641C853.271 65.9714 853.049 66.237 852.758 66.4609C852.471 66.6797 852.128 66.8516 851.727 66.9766C851.331 67.0964 850.885 67.1562 850.391 67.1562C849.646 67.1562 849.016 67.0234 848.5 66.7578C847.984 66.4922 847.594 66.1484 847.328 65.7266C847.062 65.3047 846.93 64.8594 846.93 64.3906H848.383C848.404 64.7865 848.518 65.1016 848.727 65.3359C848.935 65.5651 849.19 65.7292 849.492 65.8281C849.794 65.9219 850.094 65.9688 850.391 65.9688C850.786 65.9688 851.117 65.9167 851.383 65.8125C851.654 65.7083 851.859 65.5651 852 65.3828C852.141 65.2005 852.211 64.9922 852.211 64.7578ZM855.578 66.2344C855.578 65.9896 855.654 65.7839 855.805 65.6172C855.961 65.4453 856.185 65.3594 856.477 65.3594C856.768 65.3594 856.99 65.4453 857.141 65.6172C857.297 65.7839 857.375 65.9896 857.375 66.2344C857.375 66.474 857.297 66.6771 857.141 66.8438C856.99 67.0104 856.768 67.0938 856.477 67.0938C856.185 67.0938 855.961 67.0104 855.805 66.8438C855.654 66.6771 855.578 66.474 855.578 66.2344Z" fill="white"/>
<defs>
<radialGradient id="paint0_radial_121_114" cx="0" cy="0" r="1" gradientUnits="userSpaceOnUse" gradientTransform="translate(877.229 60.35) scale(70.68)">
<stop stop-color="#A98149"/>
<stop offset="0.99" stop-color="#67421F"/>
</radialGradient>
<radialGradient id="paint1_radial_121_114" cx="0" cy="0" r="1" gradientUnits="userSpaceOnUse" gradientTransform="translate(639.558 36.5604) scale(100.464 3.3488)">
<stop offset="0.3" stop-color="#FFF5E7"/>
<stop offset="0.32" stop-color="#FFCE86"/>
<stop offset="0.33" stop-color="#FFB13E"/>
<stop offset="0.34" stop-color="#FF9800"/>
<stop offset="0.35" stop-color="#F69200"/>
<stop offset="0.38" stop-color="#C87700"/>
<stop offset="0.41" stop-color="#9D5D00"/>
<stop offset="0.44" stop-color="#774700"/>
<stop offset="0.47" stop-color="#573400"/>
<stop offset="0.51" stop-color="#3B2300"/>
<stop offset="0.55" stop-color="#251600"/>
<stop offset="0.6" stop-color="#140C00"/>
<stop offset="0.67" stop-color="#090500"/>
<stop offset="0.76" stop-color="#020100"/>
<stop offset="1"/>
</radialGradient>
<radialGradient id="paint2_radial_121_114" cx="0" cy="0" r="1" gradientUnits="userSpaceOnUse" gradientTransform="translate(639.881 31.5524) scale(34.7964 3.5772)">
<stop stop-color="white"/>
<stop offset="0.14" stop-color="#FFBA55"/>
<stop offset="0.21" stop-color="#FF9800"/>
<stop offset="0.24" stop-color="#DA8200"/>
<stop offset="0.29" stop-color="#AD6700"/>
<stop offset="0.34" stop-color="#834E00"/>
<stop offset="0.39" stop-color="#603900"/>
<stop offset="0.45" stop-color="#422700"/>
<stop offset="0.51" stop-color="#2A1900"/>
<stop offset="0.59" stop-color="#170E00"/>
<stop offset="0.67" stop-color="#0A0600"/>
<stop offset="0.78" stop-color="#020100"/>
<stop offset="1"/>
</radialGradient>
<radialGradient id="paint3_radial_121_114" cx="0" cy="0" r="1" gradientUnits="userSpaceOnUse" gradientTransform="translate(657.936 36.695) scale(49.979 17.066)">
<stop stop-color="white"/>
<stop offset="0.14" stop-color="#FFBA55"/>
<stop offset="0.21" stop-color="#FF9800"/>
<stop offset="0.24" stop-color="#DA8200"/>
<stop offset="0.29" stop-color="#AD6700"/>
<stop offset="0.34" stop-color="#834E00"/>
<stop offset="0.39" stop-color="#603900"/>
<stop offset="0.45" stop-color="#422700"/>
<stop offset="0.51" stop-color="#2A1900"/>
<stop offset="0.59" stop-color="#170E00"/>
<stop offset="0.67" stop-color="#0A0600"/>
<stop offset="0.78" stop-color="#020100"/>
<stop offset="1"/>
</radialGradient>
<radialGradient id="paint4_radial_121_114" cx="0" cy="0" r="1" gradientUnits="userSpaceOnUse" gradientTransform="translate(653.459 35.4516) rotate(90) scale(35.9784 2.8404)">
<stop stop-color="#FF9800"/>
<stop offset="0.02" stop-color="#EF8E00"/>
<stop offset="0.09" stop-color="#BD7100"/>
<stop offset="0.17" stop-color="#905600"/>
<stop offset="0.25" stop-color="#693F00"/>
<stop offset="0.34" stop-color="#492B00"/>
<stop offset="0.43" stop-color="#2E1B00"/>
<stop offset="0.53" stop-color="#1A0F00"/>
<stop offset="0.64" stop-color="#0B0700"/>
<stop offset="0.78" stop-color="#030200"/>
<stop offset="1"/>
</radialGradient>
<radialGradient id="paint5_radial_121_114" cx="0" cy="0" r="1" gradientUnits="userSpaceOnUse" gradientTransform="translate(658.81 34.0863) rotate(45) scale(25.1598 1.9863)">
<stop stop-color="#FF9800"/>
<stop offset="0.02" stop-color="#EF8E00"/>
<stop offset="0.09" stop-color="#BD7100"/>
<stop offset="0.17" stop-color="#905600"/>
<stop offset="0.25" stop-color="#693F00"/>
<stop offset="0.34" stop-color="#492B00"/>
<stop offset="0.43" stop-color="#2E1B00"/>
<stop offset="0.53" stop-color="#1A0F00"/>
<stop offset="0.64" stop-color="#0B0700"/>
<stop offset="0.78" stop-color="#030200"/>
<stop offset="1"/>
</radialGradient>
<radialGradient id="paint6_radial_121_114" cx="0" cy="0" r="1" gradientUnits="userSpaceOnUse" gradientTransform="translate(651.911 29.9524) rotate(135) scale(25.1598 1.9863)">
<stop stop-color="#FF9800"/>
<stop offset="0.02" stop-color="#EF8E00"/>
<stop offset="0.09" stop-color="#BD7100"/>
<stop offset="0.17" stop-color="#905600"/>
<stop offset="0.25" stop-color="#693F00"/>
<stop offset="0.34" stop-color="#492B00"/>
<stop offset="0.43" stop-color="#2E1B00"/>
<stop offset="0.53" stop-color="#1A0F00"/>
<stop offset="0.64" stop-color="#0B0700"/>
<stop offset="0.78" stop-color="#030200"/>
<stop offset="1"/>
</radialGradient>
</defs>
</svg>
