<svg width="56" height="82" viewBox="0 0 56 82" fill="none" xmlns="http://www.w3.org/2000/svg">
<path fill-rule="evenodd" clip-rule="evenodd" d="M46.8953 3L52.5613 13.8398V24.6L50.1862 26.8727L52.5613 26.3749V32.0466H54.0375L53.096 35.4427H50.9684C51.1135 35.8495 51.2472 36.2619 51.3638 36.6772C54.1342 45.8901 48.8437 59.2187 47.5325 61.4942H53.8526C44.4662 86.5501 11.3636 86.5672 2 61.4942H8.323C6.90651 59.0395 1.7753 46.0209 4.48881 36.6772C4.60827 36.2619 4.73912 35.8495 4.88418 35.4427C1.85209 35.4427 2.23039 35.6902 2.23039 32.0466H3.74359V26.3749L6.11863 26.8727L3.74359 24.6L3.74075 18.442V13.8398L9.4067 3L16.1393 15.6574L19.4615 13.0093L21.572 16.835L28.151 13.8398L34.7329 16.835L36.8434 13.0093L40.1656 15.6574L46.8953 3V3Z" stroke="#FEFEFE" stroke-width="1.99674" stroke-miterlimit="22.9256"/>
<path d="M25.1389 29.6631C25.1389 26.9098 23.7509 25.5786 21.646 25.5786C19.5412 25.5786 18.156 26.9098 18.156 29.6631V34.8711C18.156 37.6245 19.5412 38.9528 21.646 38.9528C22.3657 38.9528 23.0312 38.7878 23.5489 38.4749L24.6013 39.4335L25.6367 38.3441L24.5843 37.3827C24.954 36.7569 25.1389 35.9065 25.1389 34.8711V29.6631ZM22.1438 35.13L21.1113 36.2194L21.9589 37.0158C21.8508 37.0328 21.757 37.0328 21.646 37.0328C20.7216 37.0328 20.2978 36.2933 20.2978 34.5952V29.939C20.2978 28.2409 20.7216 27.5014 21.646 27.5014C22.5704 27.5014 22.9943 28.2409 22.9943 29.939V34.5952C22.9943 35.0759 22.9573 35.4827 22.8833 35.8126L22.1438 35.13Z" fill="#FEFEFE"/>
<path d="M32.3607 34.0775C32.3607 32.0267 31.6211 30.8065 30.199 30.7695L32.0279 27.4814V25.8004H26.635V27.6293H29.7183L27.6305 31.4721L28.6858 32.5074C28.8678 32.3595 29.0726 32.2287 29.3855 32.2287C29.9771 32.2287 30.3099 32.7463 30.3099 34.2994V35.2039C30.3099 36.7199 29.9771 37.1437 29.3485 37.1437C28.7227 37.1437 28.39 36.7199 28.39 35.2039V34.5383L26.3392 34.6321V35.2607C26.3392 37.6614 27.3916 38.9527 29.3485 38.9527C31.3083 38.9527 32.3607 37.6614 32.3607 35.2778V34.0775Z" fill="#FEFEFE"/>
<path d="M33.5439 33.5969H37.9015V31.8618H33.5439V33.5969Z" fill="#FEFEFE"/>
<path d="M17.2685 46.1689C17.8032 46.1689 18.1559 46.5386 18.1559 47.8499V48.3135C18.1559 48.9592 17.9881 49.4968 17.6382 50.1225L14.3303 55.999V57.4951H20.2039V55.6662H16.8617L19.3193 51.3058C19.9649 50.1595 20.2039 49.4228 20.2039 48.3135V47.8157C20.2039 45.4862 19.1514 44.3428 17.2685 44.3428C15.4026 44.3428 14.3502 45.4862 14.3502 47.8157V48.6264L16.401 48.7202V47.8499C16.401 46.5386 16.7508 46.1689 17.2685 46.1689Z" fill="#FEFEFE"/>
<path d="M23.4749 47.9238C23.4749 46.5585 23.8447 46.1689 24.4363 46.1689C25.0279 46.1689 25.3949 46.5585 25.3949 47.9238V54.1331C25.3949 55.4983 25.0279 55.888 24.4363 55.888C23.8447 55.888 23.4749 55.4983 23.4749 54.1331V47.9238ZM27.4456 48.0347C27.4456 45.654 26.3762 44.3428 24.4363 44.3428C22.4965 44.3428 21.4241 45.654 21.4241 48.0347V54.0221C21.4241 56.4057 22.4965 57.7169 24.4363 57.7169C26.3762 57.7169 27.4456 56.4057 27.4456 54.0221V48.0347Z" fill="#FEFEFE"/>
<path d="M31.6041 46.1689C32.1388 46.1689 32.4886 46.5386 32.4886 47.8499V48.3135C32.4886 48.9592 32.3237 49.4968 31.9738 50.1225L28.6658 55.999V57.4951H34.5394V55.6662H31.1973L33.6548 51.3058C34.3005 50.1595 34.5394 49.4228 34.5394 48.3135V47.8157C34.5394 45.4862 33.487 44.3428 31.6041 44.3428C29.7382 44.3428 28.6857 45.4862 28.6857 47.8157V48.6264L30.7337 48.7202V47.8499C30.7337 46.5386 31.0864 46.1689 31.6041 46.1689Z" fill="#FEFEFE"/>
<path d="M38.7718 46.1689C39.3066 46.1689 39.6564 46.5386 39.6564 47.8499V48.3135C39.6564 48.9592 39.4915 49.4968 39.1416 50.1225L35.8336 55.999V57.4951H41.7072V55.6662H38.3651L40.8226 51.3058C41.4683 50.1595 41.7072 49.4228 41.7072 48.3135V47.8157C41.7072 45.4862 40.6548 44.3428 38.7718 44.3428C36.9059 44.3428 35.8535 45.4862 35.8535 47.8157V48.6264L37.9015 48.7202V47.8499C37.9015 46.5386 38.2542 46.1689 38.7718 46.1689Z" fill="#FEFEFE"/>
</svg>
