<svg width="56" height="82" viewBox="0 0 56 82" fill="none" xmlns="http://www.w3.org/2000/svg">
<path fill-rule="evenodd" clip-rule="evenodd" d="M46.8909 3L52.5575 13.8409V24.6015L50.1864 26.8722L52.5575 26.3698V32.0465H54.0345L53.1001 35.4424H50.9701C51.1107 35.8443 51.2414 36.2563 51.3619 36.6682C54.135 45.8915 48.8401 59.2141 47.5339 61.4948H53.8536C44.4695 86.5425 11.364 86.5626 2 61.4948H8.31969C6.90304 59.0333 1.77896 46.0121 4.49171 36.6682C4.60223 36.2563 4.73284 35.8443 4.88355 35.4424C1.84929 35.4424 2.23109 35.6836 2.23109 32.0465H3.73817V26.3698L6.11935 26.8722L3.73817 24.6015V18.4426V13.8409L9.40479 3L16.1364 15.6595L19.462 13.007L21.572 16.835L28.1529 13.8409L34.7338 16.835L36.8437 13.007L40.1593 15.6595L46.8909 3V3Z" stroke="#FEFEFE" stroke-width="1.99387" stroke-miterlimit="22.9256"/>
<path d="M25.1387 29.6552C25.1387 26.9023 23.7522 25.576 21.6423 25.576C19.5424 25.576 18.1559 26.9023 18.1559 29.6552V34.8697C18.1559 37.6227 19.5424 38.9489 21.6423 38.9489C22.3657 38.9489 23.0288 38.7881 23.5513 38.4666L24.6062 39.4312L25.631 38.3461L24.5861 37.3815C24.9478 36.7485 25.1387 35.9046 25.1387 34.8697V29.6552ZM22.1447 35.1309L21.1098 36.216L21.9638 37.0098C21.8533 37.0299 21.7528 37.0299 21.6423 37.0299C20.718 37.0299 20.296 36.2864 20.296 34.5884V29.9365C20.296 28.2386 20.718 27.4951 21.6423 27.4951C22.5666 27.4951 22.9987 28.2386 22.9987 29.9365V34.5884C22.9987 35.0707 22.9585 35.4826 22.8881 35.8142L22.1447 35.1309Z" fill="#FEFEFE"/>
<path d="M27.8916 34.3872L29.6398 29.5445V34.3872H27.8916ZM32.6038 34.3872H31.6593V25.7969H29.3887L26.0831 34.6083V36.1957H29.6398V38.7276H31.6593V36.1957H32.6038V34.3872Z" fill="#FEFEFE"/>
<path d="M33.5382 33.5936H37.8987V31.8555H33.5382V33.5936Z" fill="#FEFEFE"/>
<path d="M17.2717 46.1626C17.8042 46.1626 18.1559 46.5343 18.1559 47.8505V48.3127C18.1559 48.9557 17.9851 49.4882 17.6334 50.1212L14.3279 55.9988V57.4958H20.2055V55.6672H16.8598L19.3213 51.3068C19.9644 50.1614 20.2055 49.4179 20.2055 48.3127V47.8103C20.2055 45.4794 19.1505 44.334 17.2717 44.334C15.4029 44.334 14.348 45.4794 14.348 47.8103V48.6241L16.3976 48.7146V47.8505C16.3976 46.5343 16.7493 46.1626 17.2717 46.1626Z" fill="#FEFEFE"/>
<path d="M23.4709 47.9208C23.4709 46.5544 23.8426 46.1626 24.4354 46.1626C25.0282 46.1626 25.4 46.5544 25.4 47.9208V54.13C25.4 55.4964 25.0282 55.8883 24.4354 55.8883C23.8426 55.8883 23.4709 55.4964 23.4709 54.13V47.9208ZM27.4496 48.0314C27.4496 45.6502 26.3745 44.334 24.4354 44.334C22.4963 44.334 21.4213 45.6502 21.4213 48.0314V54.0195C21.4213 56.4007 22.4963 57.7169 24.4354 57.7169C26.3745 57.7169 27.4496 56.4007 27.4496 54.0195V48.0314Z" fill="#FEFEFE"/>
<path d="M31.5991 46.1626C32.1416 46.1626 32.4933 46.5343 32.4933 47.8505V48.3127C32.4933 48.9557 32.3225 49.4882 31.9708 50.1212L28.6653 55.9988V57.4958H34.5429V55.6672H31.1972L33.6487 51.3068C34.3018 50.1614 34.5429 49.4179 34.5429 48.3127V47.8103C34.5429 45.4794 33.4879 44.334 31.5991 44.334C29.7403 44.334 28.6854 45.4794 28.6854 47.8103V48.6241L30.735 48.7146V47.8505C30.735 46.5343 31.0867 46.1626 31.5991 46.1626Z" fill="#FEFEFE"/>
<path d="M38.7728 46.1626C39.3053 46.1626 39.657 46.5343 39.657 47.8505V48.3127C39.657 48.9557 39.4862 49.4882 39.1446 50.1212L35.829 55.9988V57.4958H41.7066V55.6672H38.3609L40.8224 51.3068C41.4655 50.1614 41.7066 49.4179 41.7066 48.3127V47.8103C41.7066 45.4794 40.6516 44.334 38.7728 44.334C36.904 44.334 35.8491 45.4794 35.8491 47.8103V48.6241L37.8987 48.7146V47.8505C37.8987 46.5343 38.2504 46.1626 38.7728 46.1626Z" fill="#FEFEFE"/>
</svg>
