<svg width="56" height="82" viewBox="0 0 56 82" fill="none" xmlns="http://www.w3.org/2000/svg">
<path d="M24.9179 29.6553C24.9179 26.9024 23.5314 25.5762 21.4315 25.5762C19.3216 25.5762 17.9351 26.9024 17.9351 29.6553V34.8698C17.9351 37.6228 19.3216 38.949 21.4315 38.949C22.1448 38.949 22.818 38.7883 23.3304 38.4667L24.3854 39.4313L25.4202 38.3361L24.3653 37.3816C24.737 36.7487 24.9179 35.9047 24.9179 34.8698V29.6553ZM21.9238 35.1311L20.8889 36.2162L21.743 37.0099C21.6324 37.03 21.542 37.03 21.4315 37.03C20.5071 37.03 20.0751 36.2865 20.0751 34.5885V29.9367C20.0751 28.2387 20.5071 27.4952 21.4315 27.4952C22.3558 27.4952 22.7778 28.2387 22.7778 29.9367V34.5885C22.7778 35.0708 22.7376 35.4727 22.6673 35.8143L21.9238 35.1311Z" fill="#FEFEFE"/>
<path d="M17.0509 46.1627C17.5834 46.1627 17.935 46.5344 17.935 47.8506V48.3128C17.935 48.9558 17.7743 49.4883 17.4226 50.1213L14.1171 55.9889V57.4859H19.9846V55.6573H16.6389L19.1005 51.2968C19.7435 50.1615 19.9846 49.418 19.9846 48.3128V47.8104C19.9846 45.4795 18.9297 44.3341 17.0509 44.3341C15.1821 44.3341 14.1271 45.4795 14.1271 47.8104V48.6243L16.1767 48.7147V47.8506C16.1767 46.5344 16.5284 46.1627 17.0509 46.1627Z" fill="#FEFEFE"/>
<path fill-rule="evenodd" clip-rule="evenodd" d="M46.8909 3L52.5575 13.8409V24.6015L50.1864 26.8722L52.5575 26.3698V32.0465H54.0345L53.1001 35.4424H50.9701C51.1107 35.8443 51.2414 36.2563 51.3619 36.6682C54.135 45.8915 48.8401 59.2141 47.5339 61.4948H53.8536C44.4695 86.5425 11.364 86.5626 2 61.4948H8.31969C6.90304 59.0333 1.77896 46.0121 4.49171 36.6682C4.60223 36.2563 4.73284 35.8443 4.88355 35.4424C1.84929 35.4424 2.23109 35.6836 2.23109 32.0465H3.73817V26.3698L6.11935 26.8722L3.73817 24.6015V18.4426V13.8409L9.40479 3L16.1364 15.6595L19.462 13.007L21.572 16.835L28.1529 13.8409L34.7338 16.835L36.8437 13.007L40.1593 15.6595L46.8909 3V3Z" stroke="#FEFEFE" stroke-width="1.99387" stroke-miterlimit="22.9256"/>
<path d="M33.5081 33.5936H37.8685V31.8555H33.5081V33.5936Z" fill="#FEFEFE"/>
<path d="M27.8515 34.3872L29.6097 29.5445V34.3872H27.8515ZM32.5636 34.3872H31.6192V25.7969H29.3485L26.043 34.6083V36.1957H29.6097V38.7276H31.6192V36.1957H32.5636V34.3872Z" fill="#FEFEFE"/>
<path d="M23.4407 47.9208C23.4407 46.5544 23.8024 46.1626 24.3952 46.1626C24.988 46.1626 25.3598 46.5544 25.3598 47.9208V54.13C25.3598 55.4964 24.988 55.8782 24.3952 55.8782C23.8024 55.8782 23.4407 55.4964 23.4407 54.13V47.9208ZM27.4094 48.0314C27.4094 45.6502 26.3343 44.334 24.3952 44.334C22.4561 44.334 21.3911 45.6502 21.3911 48.0314V54.0195C21.3911 56.4007 22.4561 57.7068 24.3952 57.7068C26.3343 57.7068 27.4094 56.4007 27.4094 54.0195V48.0314Z" fill="#FEFEFE"/>
<path d="M31.569 46.1626C32.1015 46.1626 32.4531 46.5343 32.4531 47.8505V48.3127C32.4531 48.9557 32.2823 49.4882 31.9307 50.1212L28.6251 55.9887V57.4858H34.5027V55.6572H31.157L33.6186 51.2967C34.2616 50.1614 34.5027 49.4179 34.5027 48.3127V47.8103C34.5027 45.4794 33.4478 44.334 31.569 44.334C29.7002 44.334 28.6452 45.4794 28.6452 47.8103V48.6241L30.6948 48.7146V47.8505C30.6948 46.5343 31.0465 46.1626 31.569 46.1626Z" fill="#FEFEFE"/>
<path d="M41.7467 52.8341C41.7467 50.7844 41.0032 49.5687 39.5866 49.5285L41.4152 46.2431V44.5552H36.0198V46.3838H39.1043L37.0145 50.2318L38.0694 51.2667C38.2503 51.116 38.4512 50.9854 38.7727 50.9854C39.3655 50.9854 39.6971 51.5078 39.6971 53.0551V53.9594C39.6971 55.4765 39.3655 55.8985 38.7325 55.8985C38.1096 55.8985 37.768 55.4765 37.768 53.9594V53.2962L35.7184 53.3867V54.0196C35.7184 56.4209 36.7733 57.707 38.7325 57.707C40.6918 57.707 41.7467 56.4209 41.7467 54.0397V52.8341Z" fill="#FEFEFE"/>
</svg>
