<svg width="56" height="82" viewBox="0 0 56 82" fill="none" xmlns="http://www.w3.org/2000/svg">
<path fill-rule="evenodd" clip-rule="evenodd" d="M46.8953 3L52.5613 13.8398V24.6L50.1862 26.8727L52.5613 26.3749V32.0466H54.0404L53.096 35.4456H50.9684C51.1135 35.8495 51.2472 36.2619 51.3638 36.6772C54.1342 45.8901 48.8437 59.2187 47.5325 61.4942H53.8526C44.4662 86.5501 11.3636 86.5672 2 61.4942H8.323C6.90651 59.0395 1.7753 46.0209 4.48881 36.6772C4.60827 36.2619 4.73912 35.8495 4.88418 35.4456C1.85209 35.4456 2.23039 35.6902 2.23039 32.0466H3.74359V26.3749L6.11863 26.8727L3.74359 24.6L3.74075 18.442V13.8398L9.4067 3L16.1393 15.6574L19.4587 13.0093L21.572 16.835L28.151 13.8398L34.7329 16.835L36.8434 13.0093L40.1656 15.6574L46.8953 3V3Z" stroke="#FEFEFE" stroke-width="1.99674" stroke-miterlimit="22.9256"/>
<path d="M25.099 29.6603C25.099 26.9098 23.7138 25.5786 21.609 25.5786C19.5013 25.5786 18.1161 26.9098 18.1161 29.6603V34.8711C18.1161 37.6245 19.5013 38.9528 21.609 38.9528C22.3286 38.9528 22.9942 38.7878 23.5118 38.4721L24.5642 39.4335L25.5996 38.3441L24.5443 37.3827C24.9141 36.7541 25.099 35.9065 25.099 34.8711V29.6603ZM22.1067 35.13L21.0714 36.2194L21.9218 37.0129C21.8109 37.0328 21.7199 37.0328 21.609 37.0328C20.6845 37.0328 20.2607 36.2933 20.2607 34.5924V29.939C20.2607 28.2381 20.6845 27.5014 21.609 27.5014C22.5305 27.5014 22.9572 28.2381 22.9572 29.939V34.5924C22.9572 35.0731 22.9202 35.4798 22.8463 35.8126L22.1067 35.13Z" fill="#FEFEFE"/>
<path d="M33.5041 33.5968H37.8645V31.8589H33.5041V33.5968Z" fill="#FEFEFE"/>
<path d="M32.3237 34.0775C32.3237 32.0267 31.5841 30.8065 30.162 30.7695L31.9909 27.4814V25.8004H26.5951V27.6293H29.6813L27.5935 31.4721L28.6459 32.5074C28.8308 32.3595 29.0356 32.2287 29.3485 32.2287C29.9401 32.2287 30.2729 32.7463 30.2729 34.2994V35.2039C30.2729 36.7171 29.9401 37.1437 29.3115 37.1437C28.6829 37.1437 28.3501 36.7171 28.3501 35.2039V34.5383L26.2993 34.6321V35.2579C26.2993 37.6614 27.3546 38.9527 29.3115 38.9527C31.2713 38.9527 32.3237 37.6614 32.3237 35.2778V34.0775Z" fill="#FEFEFE"/>
<path d="M17.2287 46.1688C17.7663 46.1688 18.1162 46.5385 18.1162 47.8498V48.3134C18.1162 48.9591 17.9512 49.4938 17.5985 50.1224L14.2933 55.996V57.495H20.1669V55.6661H16.8248L19.2795 51.3057C19.928 50.1594 20.1669 49.4199 20.1669 48.3134V47.8128C20.1669 45.4861 19.1145 44.3398 17.2287 44.3398C15.3628 44.3398 14.3104 45.4861 14.3104 47.8128V48.6263L16.3612 48.7202V47.8498C16.3612 46.5385 16.7139 46.1688 17.2287 46.1688Z" fill="#FEFEFE"/>
<path d="M23.4379 47.9237C23.4379 46.5584 23.8077 46.1688 24.3965 46.1688C24.9881 46.1688 25.3579 46.5584 25.3579 47.9237V54.133C25.3579 55.4983 24.9881 55.8851 24.3965 55.8851C23.8077 55.8851 23.4379 55.4983 23.4379 54.133V47.9237ZM27.4086 48.0347C27.4086 45.6511 26.3363 44.3398 24.3965 44.3398C22.4566 44.3398 21.3871 45.6511 21.3871 48.0347V54.0192C21.3871 56.4028 22.4566 57.714 24.3965 57.714C26.3363 57.714 27.4086 56.4028 27.4086 54.0192V48.0347Z" fill="#FEFEFE"/>
<path d="M31.5642 46.1688C32.1018 46.1688 32.4517 46.5385 32.4517 47.8498V48.3134C32.4517 48.9591 32.2867 49.4938 31.934 50.1224L28.6288 55.996V57.495H34.5024V55.6661H31.1603L33.615 51.3057C34.2635 50.1594 34.5024 49.4199 34.5024 48.3134V47.8128C34.5024 45.4861 33.45 44.3398 31.5642 44.3398C29.6983 44.3398 28.6459 45.4861 28.6459 47.8128V48.6263L30.6967 48.7202V47.8498C30.6967 46.5385 31.0494 46.1688 31.5642 46.1688Z" fill="#FEFEFE"/>
<path d="M41.7442 52.8386C41.7442 50.7878 41.0046 49.5676 39.5825 49.5306L41.4114 46.2425V44.5615H36.0185V46.3904H39.1018L37.014 50.2332L38.0693 51.2685C38.2541 51.1206 38.4561 50.9898 38.769 50.9898C39.3606 50.9898 39.6934 51.5074 39.6934 53.0605V53.965C39.6934 55.481 39.3606 55.9048 38.732 55.9048C38.1062 55.9048 37.7734 55.481 37.7734 53.965V53.2994L35.7227 53.3933V54.019C35.7227 56.4225 36.7751 57.7138 38.732 57.7138C40.6918 57.7138 41.7442 56.4225 41.7442 54.0389V52.8386Z" fill="#FEFEFE"/>
</svg>
