<svg width="56" height="82" viewBox="0 0 56 82" fill="none" xmlns="http://www.w3.org/2000/svg">
<path fill-rule="evenodd" clip-rule="evenodd" d="M46.8954 3L52.5612 13.8392L52.5569 24.6L50.1859 26.8663L52.5569 26.3738V32.0441H54.0387L53.0973 35.4392H50.9661C51.1143 35.8489 51.245 36.2586 51.3627 36.6726C54.1346 45.8862 48.8436 59.214 47.5317 61.4891H53.8513C44.4634 86.5452 11.3617 86.5627 2 61.4891H8.32397C6.90751 59.0353 1.77772 46.0169 4.48862 36.6726C4.60629 36.2586 4.73705 35.8489 4.88523 35.4392C1.85182 35.4392 2.23099 35.6876 2.23099 32.0441H3.74334V26.3738L6.11864 26.8663L3.74334 24.6L3.73898 18.4373V13.8392L9.40484 3L16.1385 15.6567L19.4596 13.0068L21.5734 16.8334L28.1501 13.8392L34.7312 16.8334L36.845 13.0068L40.1661 15.6567L46.8954 3V3Z" stroke="#FEFEFE" stroke-width="1.9946" stroke-miterlimit="22.9256"/>
<path d="M25.0993 29.6601C25.0993 26.9056 23.7133 25.5763 21.6082 25.5763C19.5031 25.5763 18.1172 26.9056 18.1172 29.6601V34.8683C18.1172 37.6184 19.5031 38.9521 21.6082 38.9521C22.3274 38.9521 22.9942 38.7821 23.5128 38.4683L24.5632 39.4315L25.6005 38.3419L24.5458 37.3787C24.9162 36.7511 25.0993 35.9012 25.0993 34.8683V29.6601ZM22.1094 35.1254L21.0721 36.215L21.922 37.0126C21.8131 37.03 21.7215 37.03 21.6082 37.03C20.6843 37.03 20.2615 36.2891 20.2615 34.5894V29.9346C20.2615 28.2349 20.6843 27.4983 21.6082 27.4983C22.5322 27.4983 22.9593 28.2349 22.9593 29.9346V34.5894C22.9593 35.0688 22.9201 35.4785 22.846 35.8097L22.1094 35.1254Z" fill="#FEFEFE"/>
<path d="M33.5065 33.5911H37.8648V31.8564H33.5065V33.5911Z" fill="#FEFEFE"/>
<path d="M29.3138 27.4024C29.8455 27.4024 30.1986 27.7729 30.1986 29.0848V29.5468C30.1986 30.1961 30.0329 30.7279 29.6799 31.3598L26.3763 37.2305V38.7298H32.247V36.8993H28.9041L31.3622 32.5409C32.0073 31.3947 32.247 30.6538 32.247 29.5468V29.0499C32.247 26.7225 31.1966 25.5763 29.3138 25.5763C27.4441 25.5763 26.3937 26.7225 26.3937 29.0499V29.8606L28.4421 29.9521V29.0848C28.4421 27.7729 28.7952 27.4024 29.3138 27.4024Z" fill="#FEFEFE"/>
<path d="M17.2325 46.165C17.7642 46.165 18.1172 46.5355 18.1172 47.8473V48.3093C18.1172 48.9544 17.9516 49.4904 17.5986 50.118L14.2949 55.9931V57.488H20.17V55.6619H16.8228L19.2809 51.3035C19.9259 50.1573 20.17 49.4163 20.17 48.3093V47.8081C20.17 45.4808 19.1153 44.3389 17.2325 44.3389C15.3671 44.3389 14.3124 45.4808 14.3124 47.8081V48.6231L16.3608 48.7146V47.8473C16.3608 46.5355 16.7138 46.165 17.2325 46.165Z" fill="#FEFEFE"/>
<path d="M23.4388 47.9214C23.4388 46.5529 23.8092 46.165 24.3976 46.165C24.9903 46.165 25.3608 46.5529 25.3608 47.9214V54.1277C25.3608 55.4963 24.9903 55.8841 24.3976 55.8841C23.8092 55.8841 23.4388 55.4963 23.4388 54.1277V47.9214ZM27.4092 48.0304C27.4092 45.6507 26.3371 44.3389 24.3976 44.3389C22.4581 44.3389 21.386 45.6507 21.386 48.0304V54.0188C21.386 56.3984 22.4581 57.7103 24.3976 57.7103C26.3371 57.7103 27.4092 56.3984 27.4092 54.0188V48.0304Z" fill="#FEFEFE"/>
<path d="M31.567 46.165C32.1031 46.165 32.4518 46.5355 32.4518 47.8473V48.3093C32.4518 48.9544 32.2862 49.4904 31.9331 50.118L28.6295 55.9931V57.488H34.5046V55.6619H31.1574L33.6155 51.3035C34.2605 50.1573 34.5046 49.4163 34.5046 48.3093V47.8081C34.5046 45.4808 33.4498 44.3389 31.567 44.3389C29.7017 44.3389 28.6469 45.4808 28.6469 47.8081V48.6231L30.6954 48.7146V47.8473C30.6954 46.5355 31.0484 46.165 31.567 46.165Z" fill="#FEFEFE"/>
<path d="M41.7438 52.8336C41.7438 50.7852 41.0073 49.5649 39.5821 49.53L41.4126 46.2395V44.5571H36.0169V46.3876H39.1027L37.015 50.2317L38.0697 51.2646C38.2528 51.1164 38.4576 50.9857 38.7714 50.9857C39.3598 50.9857 39.6954 51.5043 39.6954 53.0559V53.9625C39.6954 55.4748 39.3598 55.9019 38.7322 55.9019C38.1046 55.9019 37.7734 55.4748 37.7734 53.9625V53.2956L35.7206 53.3872V54.0191C35.7206 56.4206 36.7753 57.7106 38.7322 57.7106C40.6935 57.7106 41.7438 56.4206 41.7438 54.0365V52.8336Z" fill="#FEFEFE"/>
</svg>
