<svg width="56" height="82" viewBox="0 0 56 82" fill="none" xmlns="http://www.w3.org/2000/svg">
<path fill-rule="evenodd" clip-rule="evenodd" d="M46.8941 3L52.5593 13.8449V24.5973L50.1892 26.8749L52.5593 26.3778V32.043H54.0392L53.1027 35.4421H50.9638C51.1141 35.8468 51.2528 36.263 51.3685 36.6792C54.1317 45.8939 48.848 59.2245 47.53 61.5022L53.8542 61.4906C44.4661 86.5564 11.365 86.568 2 61.4906L8.32425 61.5022C6.91372 59.0396 1.78033 46.0211 4.48577 36.6792C4.61294 36.263 4.74012 35.8468 4.89042 35.4421C1.8497 35.4421 2.23123 35.6965 2.23123 32.043H3.74582V26.3778L6.11596 26.8749L3.74582 24.5973V18.4464V13.8449L9.41105 3L16.14 15.6601L19.4582 13.0124L21.574 16.8394L28.1526 13.8449L34.7312 16.8394L36.847 13.0124L40.1652 15.6601L46.8941 3V3Z" stroke="#FEFEFE" stroke-width="1.99786" stroke-miterlimit="22.9256"/>
<path d="M25.135 29.6612C25.135 26.9096 23.7592 25.58 21.6434 25.58C19.5391 25.58 18.1517 26.9096 18.1517 29.6612V34.8756C18.1517 37.6272 19.5391 38.9568 21.6434 38.9568C22.3718 38.9568 23.0308 38.7834 23.551 38.4712L24.6032 39.4309L25.6437 38.3441L24.58 37.3844C24.95 36.7601 25.135 35.9046 25.135 34.8756V29.6612ZM22.1521 35.1299L21.1115 36.2167L21.9671 37.0145C21.8515 37.0376 21.759 37.0376 21.6434 37.0376C20.7184 37.0376 20.3022 36.2976 20.3022 34.5981V29.9387C20.3022 28.2391 20.7184 27.4992 21.6434 27.4992C22.5683 27.4992 22.9961 28.2391 22.9961 29.9387V34.5981C22.9961 35.0721 22.9614 35.4768 22.8805 35.8121L22.1521 35.1299Z" fill="#FEFEFE"/>
<path d="M32.3033 38.7373V36.899H30.6615V25.7998H29.0197L26.9502 26.8866V28.8868L28.6151 28.1237V36.899H26.9502V38.7373H32.3033Z" fill="#FEFEFE"/>
<path d="M33.5403 33.5923H37.899V31.858H33.5403V33.5923Z" fill="#FEFEFE"/>
<path d="M17.273 46.1714C17.8048 46.1714 18.1517 46.5413 18.1517 47.8478V48.3103C18.1517 48.9577 17.9898 49.5011 17.6429 50.1255L14.3363 55.9988V57.4903H20.2096V55.6635H16.8683L19.3194 51.3047C19.9669 50.1601 20.2096 49.4202 20.2096 48.3103V47.8131C20.2096 45.4892 19.1575 44.3446 17.273 44.3446C15.4 44.3446 14.3479 45.4892 14.3479 47.8131V48.6224L16.4058 48.7149V47.8478C16.4058 46.5413 16.7527 46.1714 17.273 46.1714Z" fill="#FEFEFE"/>
<path d="M23.4817 47.9287C23.4817 46.5644 23.8517 46.1714 24.4413 46.1714C25.031 46.1714 25.4009 46.5644 25.4009 47.9287V54.1374C25.4009 55.5016 25.031 55.8832 24.4413 55.8832C23.8517 55.8832 23.4817 55.5016 23.4817 54.1374V47.9287ZM27.4474 48.0328C27.4474 45.6511 26.3721 44.3446 24.4413 44.3446C22.4989 44.3446 21.4237 45.6511 21.4237 48.0328V54.0217C21.4237 56.4035 22.4989 57.7215 24.4413 57.7215C26.3721 57.7215 27.4474 56.4035 27.4474 54.0217V48.0328Z" fill="#FEFEFE"/>
<path d="M31.6095 46.1714C32.1414 46.1714 32.4882 46.5413 32.4882 47.8478V48.3103C32.4882 48.9577 32.3263 49.5011 31.9795 50.1255L28.6729 55.9988V57.4903H34.5462V55.6635H31.1933L33.6559 51.3047C34.3034 50.1601 34.5462 49.4202 34.5462 48.3103V47.8131C34.5462 45.4892 33.4941 44.3446 31.6095 44.3446C29.7365 44.3446 28.6844 45.4892 28.6844 47.8131V48.6224L30.7424 48.7149V47.8478C30.7424 46.5413 31.0892 46.1714 31.6095 46.1714Z" fill="#FEFEFE"/>
<path d="M41.7838 52.8426C41.7838 50.7846 41.0438 49.5707 39.6217 49.536L41.4485 46.2409V44.5645H36.0607V46.3912H39.1477L37.055 50.2412L38.1072 51.2702C38.2921 51.1199 38.5003 50.9928 38.8124 50.9928C39.4021 50.9928 39.7374 51.513 39.7374 53.0623V53.9641C39.7374 55.4787 39.4021 55.9065 38.7777 55.9065C38.1418 55.9065 37.8066 55.4787 37.8066 53.9641V53.3051L35.7601 53.3976V54.0219C35.7601 56.4268 36.8122 57.7217 38.7777 57.7217C40.7317 57.7217 41.7838 56.4268 41.7838 54.045V52.8426Z" fill="#FEFEFE"/>
</svg>
