<svg width="55" height="80" viewBox="0 0 55 80" fill="none" xmlns="http://www.w3.org/2000/svg">
<g clip-path="url(#clip0_121_306)">
<path fill-rule="evenodd" clip-rule="evenodd" d="M45.9578 1.77686L51.623 12.6217V23.3741L49.2529 25.6518L51.623 25.1546V30.8198H53.1029L52.1664 34.219H50.0275C50.1778 34.6236 50.3166 35.0399 50.4322 35.4561C53.1954 44.6708 47.9117 58.0014 46.5937 60.2791L52.9179 60.2675C43.5298 85.3333 10.4287 85.3448 1.06372 60.2675L7.38797 60.2791C5.97744 57.8164 0.844048 44.7979 3.54949 35.4561C3.67666 35.0399 3.80384 34.6236 3.95415 34.219C0.913418 34.219 1.29495 34.4733 1.29495 30.8198H2.80954V25.1546L5.17969 25.6518L2.80954 23.3741V17.2233V12.6217L8.47477 1.77686L15.2037 14.4369L18.5219 11.7893L20.6377 15.6162L27.2163 12.6217L33.7949 15.6162L35.9107 11.7893L39.2289 14.4369L45.9578 1.77686V1.77686Z" stroke="#FEFEFE" stroke-width="1.99786" stroke-miterlimit="22.9256"/>
<path d="M24.1987 28.4381C24.1987 25.6864 22.8229 24.3568 20.7071 24.3568C18.6029 24.3568 17.2155 25.6864 17.2155 28.4381V33.6524C17.2155 36.4041 18.6029 37.7337 20.7071 37.7337C21.4355 37.7337 22.0945 37.5718 22.6148 37.2481L23.6669 38.2077L24.7074 37.1209L23.6438 36.1613C24.0137 35.537 24.1987 34.6814 24.1987 33.6524V28.4381ZM21.2158 33.9068L20.1753 34.9936L21.0308 35.7913C20.9152 35.8145 20.8227 35.8145 20.7071 35.8145C19.7937 35.8145 19.3659 35.0745 19.3659 33.3749V28.7156C19.3659 27.016 19.7937 26.2761 20.7071 26.2761C21.632 26.2761 22.0598 27.016 22.0598 28.7156V33.3749C22.0598 33.849 22.0251 34.2652 21.9442 34.5889L21.2158 33.9068Z" fill="#FEFEFE"/>
<path d="M31.367 37.5142V35.6875H29.7252V24.5767H28.0835L26.0139 25.675V27.6636L27.6788 26.9121V35.6875H26.0139V37.5142H31.367Z" fill="#FEFEFE"/>
<path d="M32.604 32.3807H36.9743V30.6349H32.604V32.3807Z" fill="#FEFEFE"/>
<path d="M16.3367 44.9482C16.8685 44.9482 17.2154 45.3182 17.2154 46.6247V47.0871C17.2154 47.7346 17.0535 48.278 16.7067 48.9023L13.4 54.7757V56.2787H19.2734V54.4404H15.932L18.3831 50.0816C19.0306 48.937 19.2734 48.197 19.2734 47.0871V46.59C19.2734 44.2661 18.2213 43.1215 16.3367 43.1215C14.4637 43.1215 13.4116 44.2661 13.4116 46.59V47.4109L15.4696 47.5033V46.6247C15.4696 45.3182 15.8164 44.9482 16.3367 44.9482Z" fill="#FEFEFE"/>
<path d="M22.5454 46.7056C22.5454 45.3413 22.9154 44.9482 23.505 44.9482C24.0947 44.9482 24.4647 45.3413 24.4647 46.7056V52.9142C24.4647 54.2785 24.0947 54.6716 23.505 54.6716C22.9154 54.6716 22.5454 54.2785 22.5454 52.9142V46.7056ZM26.5111 46.8096C26.5111 44.4279 25.4358 43.1215 23.505 43.1215C21.5627 43.1215 20.4874 44.4279 20.4874 46.8096V52.7986C20.4874 55.1803 21.5627 56.4983 23.505 56.4983C25.4358 56.4983 26.5111 55.1803 26.5111 52.7986V46.8096Z" fill="#FEFEFE"/>
<path d="M30.6732 44.9482C31.2051 44.9482 31.5519 45.3182 31.5519 46.6247V47.0871C31.5519 47.7346 31.3901 48.278 31.0432 48.9023L27.7366 54.7757V56.2787H33.6099V54.4404H30.257L32.7197 50.0816C33.3671 48.937 33.6099 48.197 33.6099 47.0871V46.59C33.6099 44.2661 32.5578 43.1215 30.6732 43.1215C28.8003 43.1215 27.7481 44.2661 27.7481 46.59V47.4109L29.8061 47.5033V46.6247C29.8061 45.3182 30.153 44.9482 30.6732 44.9482Z" fill="#FEFEFE"/>
<path d="M37.8415 44.9482C38.3733 44.9482 38.7201 45.3182 38.7201 46.6247V47.0871C38.7201 47.7346 38.5583 48.278 38.2114 48.9023L34.9048 54.7757V56.2787H40.7781V54.4404H37.4252L39.8879 50.0816C40.5353 48.937 40.7781 48.197 40.7781 47.0871V46.59C40.7781 44.2661 39.726 43.1215 37.8415 43.1215C35.9685 43.1215 34.9163 44.2661 34.9163 46.59V47.4109L36.9743 47.5033V46.6247C36.9743 45.3182 37.3212 44.9482 37.8415 44.9482Z" fill="#FEFEFE"/>
</g>
<defs>
<clipPath id="clip0_121_306">
<rect width="54.0741" height="80" fill="white"/>
</clipPath>
</defs>
</svg>
