<svg width="55" height="80" viewBox="0 0 55 80" fill="none" xmlns="http://www.w3.org/2000/svg">
<g clip-path="url(#clip0_121_323)">
<path fill-rule="evenodd" clip-rule="evenodd" d="M45.9589 1.7793L51.6247 12.6142L51.6204 23.3793L49.2494 25.6456L51.6204 25.1488V30.8234H53.1022L52.1608 34.2185H50.0296C50.1777 34.6282 50.3085 35.0379 50.4262 35.4519C53.1981 44.6655 47.907 57.9933 46.5952 60.2684H52.9148C43.5269 85.3245 10.4252 85.342 1.06348 60.2684H7.38745C5.97098 57.8146 0.841201 44.7962 3.5521 35.4519C3.66977 35.0379 3.80052 34.6282 3.94871 34.2185C0.915293 34.2185 1.29447 34.4669 1.29447 30.8234H2.80682V25.1488L5.18212 25.6456L2.80682 23.3793V17.2166V12.6142L8.46832 1.7793L15.202 14.4359L18.523 11.7861L20.6368 15.6127L27.2136 12.6142L33.7947 15.6127L35.9085 11.7861L39.2296 14.4359L45.9589 1.7793V1.7793Z" stroke="#FEFEFE" stroke-width="1.9946" stroke-miterlimit="22.9256"/>
<path d="M24.202 28.4394C24.202 25.6849 22.816 24.3556 20.7109 24.3556C18.6059 24.3556 17.2199 25.6849 17.2199 28.4394V33.6476C17.2199 36.4021 18.6059 37.7314 20.7109 37.7314C21.4301 37.7314 22.0969 37.5658 22.6112 37.2476L23.6659 38.2108L24.6988 37.1212L23.6485 36.158C24.0189 35.5304 24.202 34.6805 24.202 33.6476V28.4394ZM21.2078 33.9047L20.1749 34.9943L21.0247 35.7919C20.9158 35.8093 20.8199 35.8093 20.7109 35.8093C19.787 35.8093 19.3599 35.0684 19.3599 33.3687V28.7139C19.3599 27.0142 19.787 26.2776 20.7109 26.2776C21.6349 26.2776 22.0577 27.0142 22.0577 28.7139V33.3687C22.0577 33.8524 22.0228 34.2578 21.9487 34.589L21.2078 33.9047Z" fill="#FEFEFE"/>
<path d="M28.4121 26.1861C28.9482 26.1861 29.3012 26.5522 29.3012 27.8641V28.326C29.3012 28.9754 29.1356 29.5115 28.7826 30.1391L25.4746 36.0142V37.5091H31.3497V35.6786H28.0068L30.4649 31.3202C31.11 30.174 31.3497 29.4374 31.3497 28.326V27.8292C31.3497 25.5018 30.2993 24.3556 28.4121 24.3556C26.5468 24.3556 25.4964 25.5018 25.4964 27.8292V28.6398L27.5448 28.7357V27.8641C27.5448 26.5522 27.8979 26.1861 28.4121 26.1861Z" fill="#FEFEFE"/>
<path d="M32.6049 32.3747H36.9676V30.6357H32.6049V32.3747Z" fill="#FEFEFE"/>
<path d="M16.3308 44.9443C16.8669 44.9443 17.2199 45.3148 17.2199 46.6266V47.0886C17.2199 47.7337 17.0543 48.2697 16.7013 48.8973L13.3933 54.7724V56.2717H19.2684V54.4412H15.9255L18.3836 50.0828C19.0287 48.9366 19.2684 48.1956 19.2684 47.0886V46.5918C19.2684 44.2644 18.218 43.1182 16.3308 43.1182C14.4655 43.1182 13.4151 44.2644 13.4151 46.5918V47.4024L15.4635 47.4939V46.6266C15.4635 45.3148 15.8166 44.9443 16.3308 44.9443Z" fill="#FEFEFE"/>
<path d="M22.5371 46.7007C22.5371 45.3322 22.9075 44.9443 23.5003 44.9443C24.0886 44.9443 24.4591 45.3322 24.4591 46.7007V52.907C24.4591 54.2755 24.0886 54.6634 23.5003 54.6634C22.9075 54.6634 22.5371 54.2755 22.5371 52.907V46.7007ZM26.5119 46.8097C26.5119 44.43 25.4397 43.1182 23.5003 43.1182C21.5608 43.1182 20.4886 44.43 20.4886 46.8097V52.7981C20.4886 55.1777 21.5608 56.4896 23.5003 56.4896C25.4397 56.4896 26.5119 55.1777 26.5119 52.7981V46.8097Z" fill="#FEFEFE"/>
<path d="M30.6654 44.9443C31.2015 44.9443 31.5545 45.3148 31.5545 46.6266V47.0886C31.5545 47.7337 31.3889 48.2697 31.0359 48.8973L27.7279 54.7724V56.2717H33.603V54.4412H30.2601L32.7182 50.0828C33.3633 48.9366 33.603 48.1956 33.603 47.0886V46.5918C33.603 44.2644 32.5526 43.1182 30.6654 43.1182C28.8001 43.1182 27.7497 44.2644 27.7497 46.5918V47.4024L29.7981 47.4939V46.6266C29.7981 45.3148 30.1511 44.9443 30.6654 44.9443Z" fill="#FEFEFE"/>
<path d="M37.8349 44.9443C38.3709 44.9443 38.7196 45.3148 38.7196 46.6266V47.0886C38.7196 47.7337 38.554 48.2697 38.2053 48.8973L34.8973 54.7724V56.2717H40.7724V54.4412H37.4295L39.8833 50.0828C40.5327 48.9366 40.7724 48.1956 40.7724 47.0886V46.5918C40.7724 44.2644 39.7177 43.1182 37.8349 43.1182C35.9695 43.1182 34.9148 44.2644 34.9148 46.5918V47.4024L36.9676 47.4939V46.6266C36.9676 45.3148 37.3162 44.9443 37.8349 44.9443Z" fill="#FEFEFE"/>
</g>
<defs>
<clipPath id="clip0_121_323">
<rect width="54.0741" height="80" fill="white"/>
</clipPath>
</defs>
</svg>
